<svg width="64pt" height="64pt" viewBox="0 0 22.578 22.578" version="1.1" id="svg831" xmlns="http://www.w3.org/2000/svg"><g id="layer1" transform="translate(0 -274.422)"><path d="M17.371 277.929c-.017-1.31-1.096-2.353-2.405-2.353H7.612a2.394 2.394 0 00-2.404 2.336c-.006.364-.002.728-.002 1.091a4.473 4.473 0 00-4.236 4.46 4.473 4.473 0 004.236 4.459v5.542c0 1.326 1.086 2.382 2.406 2.382h12.62c.756 0 1.376-.62 1.376-1.377v-4.128c0-.756-.62-1.376-1.376-1.376h-2.86c-.008-3.679.014-7.358 0-11.036zm-9.759-1.665h7.354c.84 0 1.526.57 1.684 1.351H5.928c.158-.781.845-1.35 1.684-1.35zm2.989.346a.344.344 0 000 .688h1.376a.344.344 0 000-.688zm-4.707 1.693h10.79v10.662h-4.019c-.755 0-1.376.62-1.376 1.376v2.09H5.894v-4.52a4.478 4.478 0 004.02-4.448 4.477 4.477 0 00-4.02-4.448zm-.452 1.377a3.777 3.777 0 013.782 3.783 3.778 3.778 0 01-3.782 3.783 3.778 3.778 0 01-3.783-3.783 3.777 3.777 0 013.783-3.783zm5.159 1.376a.344.344 0 000 .688h5.16a.344.344 0 000-.688zm-6.246.937l-1.186 1.186a.344.344 0 000 .485l1.272 1.27a.345.345 0 00.485 0 .344.344 0 000-.486l-1.028-1.026.944-.944a.344.344 0 000-.485.36.36 0 00-.487 0zm1.584 0a.344.344 0 000 .485l.945.944-1.029 1.026a.344.344 0 00.488.485l1.27-1.27a.344.344 0 000-.484l-1.187-1.186c-.196-.149-.334-.126-.487 0zm5.005.44a.344.344 0 000 .687h.688a.344.344 0 100-.688zm2.064 0a.344.344 0 000 .687h1.033a.344.344 0 000-.688zm2.41 0a.344.344 0 100 .687h.342a.344.344 0 000-.688zm-4.474 1.372a.344.344 0 10.002.688.344.344 0 00-.002-.688zm1.332 0a.344.344 0 000 .689h.732a.344.344 0 100-.689zm2.108 0a.344.344 0 10.003.688.344.344 0 00-.003-.688zm1.376 0a.344.344 0 000 .689.344.344 0 000-.689zm-5.159 1.377a.344.344 0 000 .688h1.03a.344.344 0 100-.688zm2.237 0a.344.344 0 100 .688h2.922a.344.344 0 000-.688h-2.922zm-.173 4.471h7.567c.384 0 .688.304.688.688v4.128a.683.683 0 01-.688.689h-7.567a.683.683 0 01-.688-.689v-4.128c0-.384.304-.688.688-.688zm4.518.792l-2.065 3.576a.344.344 0 00.597.345l2.064-3.575a.344.344 0 00-.127-.47c-.175-.107-.37-.039-.47.124zm-3.233.49l-1.186 1.186a.344.344 0 000 .485l1.273 1.272a.344.344 0 00.485-.488l-1.026-1.025c.318-.319.458-.461.942-.945a.344.344 0 000-.485c-.148-.137-.346-.12-.488 0zm4.51 0a.344.344 0 000 .485l.941.942-1.028 1.028a.344.344 0 000 .488.344.344 0 00.488 0l1.27-1.272a.344.344 0 000-.485l-1.186-1.186c-.197-.148-.34-.12-.485 0zm-12.566 2.184h5.395v.688H10.6a.344.344 0 000 .688h.69c.005.242.076.466.191.663h-3.87c-.959 0-1.718-.74-1.718-1.694zm2.643.688a.344.344 0 000 .688h.687a.344.344 0 100-.688z" style="line-height:normal;font-variant-ligatures:normal;font-variant-position:normal;font-variant-caps:normal;font-variant-numeric:normal;font-variant-alternates:normal;font-variant-east-asian:normal;font-feature-settings:normal;font-variation-settings:normal;text-indent:0;text-align:start;text-decoration-line:none;text-decoration-style:solid;text-decoration-color:#000;text-transform:none;text-orientation:mixed;white-space:normal;shape-padding:0;shape-margin:0;inline-size:0;isolation:auto;mix-blend-mode:normal;solid-color:#000;solid-opacity:1" id="path644" color="#000" font-style="normal" font-variant="normal" font-weight="400" font-stretch="normal" font-size="medium" font-family="sans-serif" text-decoration="none" letter-spacing="normal" word-spacing="normal" writing-mode="lr-tb" direction="ltr" dominant-baseline="auto" baseline-shift="baseline" text-anchor="start" clip-rule="nonzero" display="inline" overflow="visible" visibility="visible" opacity="1" color-interpolation="sRGB" color-interpolation-filters="linearRGB" vector-effect="none" fill="#d2e9e3" fill-opacity="1" fill-rule="nonzero" stroke="none" stroke-width=".688" stroke-linecap="round" stroke-linejoin="round" stroke-miterlimit="4" stroke-dasharray="none" stroke-dashoffset="0" stroke-opacity="1" color-rendering="auto" image-rendering="auto" shape-rendering="auto" text-rendering="auto" stop-color="#000" stop-opacity="1"/></g></svg>