<svg width="120" height="120" fill="none" xmlns="http://www.w3.org/2000/svg"><path d="M22.133 102.004L13.71 7.5h92.58l-8.434 94.489L59.944 112.5l-37.812-10.496z" fill="#1572B6"/><path d="M60 104.468l30.638-8.494 7.207-80.745H60v89.239z" fill="#33A9DC"/><path d="M60 49.466h15.338l1.057-11.869H60v-11.59h29.063l-.278 3.108-2.846 31.942H60v-11.59z" fill="#fff"/><path d="M60.071 79.567l-.052.016-12.908-3.488-.825-9.244H34.65l1.624 18.199 23.741 6.593.056-.016v-12.06z" fill="#EBEBEB"/><path d="M74.351 60.566l-1.395 15.522-12.926 3.487v12.06l23.76-6.585.176-1.957 2.014-22.527H74.351z" fill="#fff"/><path d="M60.041 26.006v11.591H32.044l-.233-2.606-.529-5.876-.277-3.109h29.036zM60 49.466v11.592H47.254l-.233-2.607-.525-5.876-.277-3.109H60z" fill="#EBEBEB"/></svg>