<svg width="64pt" height="64pt" viewBox="0 0 22.578 22.578" version="1.1" id="svg831" xmlns="http://www.w3.org/2000/svg"><g id="layer1" transform="translate(0 -274.422)"><path d="M1.916 278.266a.892.892 0 00-.697.363 1.247 1.247 0 00-.249.766v8.48c0 .289.088.557.25.766a.89.89 0 00.696.362h6.003l-.185 1.29h-1.67c-.463 0-.896.243-1.135.64l-.264.44c-.252.419.07.985.56.985h8.96c.489 0 .808-.566.556-.985l-.263-.44a1.322 1.322 0 00-1.134-.64h-1.67l-.185-1.29h3.11a.334.334 0 100-.668H1.916c-.054 0-.107-.025-.168-.104-.12-.205-.11-.353-.11-.584h12.96a.334.334 0 100-.667H1.639v-7.585c0-.263.157-.455.278-.461H17.49c.053 0 .11.022.17.1.06.08.11.21.11.36v2.915a.334.334 0 00.669 0v-2.914c0-.29-.088-.557-.25-.766a.898.898 0 00-.7-.363zm1.808 1.192a.334.334 0 00-.056.468.85.85 0 01.182.53c0 .479-.381.86-.86.86a.85.85 0 01-.522-.177.334.334 0 10-.407.53 1.527 1.527 0 002.132-2.153c-.219-.179-.338-.149-.469-.058zm1.863 2.28l-.299-.299c-.02-.02-.01-.02-.004-.034.006-.015-.001-.017.027-.017h.424a.579.579 0 00.574-.574v-.712a.579.579 0 00-.574-.574h-.424a.334.334 0 000 .667h.33v.525h-.33a.708.708 0 00-.646.431.709.709 0 00.154.762l.23.231-.371.372-.232-.232a.709.709 0 00-.761-.152.707.707 0 00-.43.645v.328h-.526v-.328a.334.334 0 10-.668 0v.422c0 .313.261.573.575.573h.711a.58.58 0 00.575-.573v-.422c0-.028.005-.023.02-.03.014-.005.011-.012.031.009l.298.298a.581.581 0 00.813 0l.506-.502a.581.581 0 000-.814h-.002zm3.762-2.058a.58.58 0 00-.575.574v.421c0 .028-.005.024-.02.03-.014.006-.014.012-.034-.008l-.298-.298a.577.577 0 00-.81 0l-.505.503a.58.58 0 000 .813l.298.298c.02.02.013.02.007.035-.006.014.001.02-.027.02h-.423a.579.579 0 00-.575.573v.712c0 .314.261.574.575.574h.423c.028 0 .021.003.027.018.006.014.013.015-.007.034l-.298.298a.58.58 0 000 .813l.505.503a.577.577 0 00.81 0l.298-.298c.02-.02.02-.014.035-.008.015.006.02 0 .02.029v.421a.58.58 0 00.574.574h.712a.58.58 0 00.574-.574v-.421c0-.028.005-.023.02-.03.014-.005.012-.012.031.009l.299.298a.58.58 0 00.813 0l.502-.503a.58.58 0 000-.813l-.298-.298c-.02-.02-.01-.02-.005-.034.006-.015 0-.018.027-.018h.424c.313 0 .574-.26.574-.574v-.712a.578.578 0 00-.574-.574h-.424c-.027 0-.02-.005-.027-.02-.006-.014-.014-.014.005-.034l.298-.298a.58.58 0 000-.813l-.502-.503a.58.58 0 00-.813 0l-.299.298c-.02.02-.017.014-.032.008-.014-.006-.02-.003-.02-.03v-.42a.58.58 0 00-.573-.575zm.094.668h.524v.327c0 .297.192.547.431.646.24.1.552.06.762-.15l.234-.232.37.37-.232.234a.704.704 0 00-.153.759c.099.239.349.43.645.43h.33v.528h-.33a.709.709 0 00-.645.431.708.708 0 00.153.761l.231.232-.372.372-.231-.232a.708.708 0 00-.762-.152.707.707 0 00-.43.645v.33h-.525v-.33a.708.708 0 00-.432-.645.708.708 0 00-.761.152l-.232.232-.372-.372.232-.232a.706.706 0 00.15-.76.704.704 0 00-.643-.432h-.33v-.527h.33a.704.704 0 00.643-.431c.1-.24.06-.55-.15-.759l-.234-.234.374-.37.232.232c.21.21.522.25.761.15a.709.709 0 00.432-.646zm.26 1.12a1.53 1.53 0 00-1.524 1.529 1.53 1.53 0 001.524 1.527c.84 0 1.528-.688 1.528-1.527 0-.84-.688-1.528-1.528-1.528zm0 .669c.479 0 .86.381.86.86 0 .478-.381.86-.86.86a.855.855 0 01-.86-.86c0-.479.382-.86.86-.86zm6.899 1.172c-.55 0-1 .454-1 1.003v7.844c0 .55.45 1 1 1h4.006c.549 0 1-.45 1-1v-7.844c0-.549-.451-1.003-1-1.003zm0 .668h4.006c.188 0 .332.147.332.335v6.006h-4.673v-6.006a.33.33 0 01.335-.335zm1.845 2.421l-.333 1.336a.334.334 0 00.242.404.334.334 0 00.404-.242l.335-1.335a.334.334 0 00-.244-.404c-.203-.044-.337.042-.404.241zm-1.247.18l-.335.333a.334.334 0 000 .473l.335.332a.332.332 0 10.47-.47l-.098-.099.099-.098a.334.334 0 000-.47c-.191-.144-.345-.117-.471 0zm2.335 0a.335.335 0 000 .471l.1.098-.1.099a.334.334 0 00.474.47l.332-.332a.334.334 0 000-.473l-.332-.333c-.191-.144-.347-.116-.474 0zm-10.942 2.425h2.222l.184 1.29H8.407zm-2.528 1.958h7.28c.23 0 .443.12.561.318l.247.412H5.257l.246-.412a.654.654 0 01.562-.318zm10.202.025h4.673v1.17a.327.327 0 01-.332.332h-4.006a.329.329 0 01-.335-.332zm2.336.334a.334.334 0 10.001.668.334.334 0 00-.001-.668z" style="line-height:normal;font-variant-ligatures:normal;font-variant-position:normal;font-variant-caps:normal;font-variant-numeric:normal;font-variant-alternates:normal;font-variant-east-asian:normal;font-feature-settings:normal;font-variation-settings:normal;text-indent:0;text-align:start;text-decoration-line:none;text-decoration-style:solid;text-decoration-color:#000;text-transform:none;text-orientation:mixed;white-space:normal;shape-padding:0;shape-margin:0;inline-size:0;isolation:auto;mix-blend-mode:normal;solid-color:#000;solid-opacity:1" id="path1586" color="#000" font-style="normal" font-variant="normal" font-weight="400" font-stretch="normal" font-size="medium" font-family="sans-serif" text-decoration="none" letter-spacing="normal" word-spacing="normal" writing-mode="lr-tb" direction="ltr" dominant-baseline="auto" baseline-shift="baseline" text-anchor="start" clip-rule="nonzero" display="inline" overflow="visible" visibility="visible" opacity="1" color-interpolation="sRGB" color-interpolation-filters="linearRGB" vector-effect="none" fill="#d2e9e3" fill-opacity="1" fill-rule="nonzero" stroke="none" stroke-width=".667" stroke-linecap="round" stroke-linejoin="round" stroke-miterlimit="4" stroke-dasharray="none" stroke-dashoffset="0" stroke-opacity="1" color-rendering="auto" image-rendering="auto" shape-rendering="auto" text-rendering="auto" stop-color="#000" stop-opacity="1"/></g></svg>