<svg width="64pt" height="64pt" viewBox="0 0 22.578 22.578" version="1.1" id="svg831" xmlns="http://www.w3.org/2000/svg"><g id="layer1" transform="translate(0 -274.422)"><path d="M8.894 276.05c-.695 0-1.265.572-1.265 1.267v2.728H2.31c-.734 0-1.339.602-1.339 1.337v12.654c0 .734.605 1.337 1.34 1.337h11.305c.734 0 1.337-.603 1.337-1.337v-2.658h5.39a1.27 1.27 0 001.266-1.266v-11.713a.33.33 0 000-.017v-1.065c0-.695-.57-1.267-1.266-1.267zm0 .666h4.06v.334a.991.991 0 01-.997.998H8.295v-.73c0-.336.264-.602.6-.602zm4.726 0h6.722c.336 0 .6.266.6.601v.73h-7.664c.211-.279.342-.622.342-.997zm-4.327.334a.333.333 0 10-.003.665.333.333 0 00.003-.665zm1.331 0a.333.333 0 10-.002.665.333.333 0 00.002-.665zm1.332 0a.333.333 0 10-.003.665.333.333 0 00.003-.665zm-3.661 1.663h12.647v11.399c0 .335-.264.6-.6.6H8.894a.594.594 0 01-.599-.6zm1.664.667c-.674.11-.875.396-.998 1v4.658c.087.646.401.875.998.998h3.995c.673-.108.877-.394.998-.998v-4.659c-.09-.645-.401-.874-.998-1zm.03.665h3.935l-1.967 2.168zm5.96 0a.333.333 0 000 .666h3.996a.333.333 0 100-.666zm-6.322.594l1.879 2.07-1.879 2.07zm4.658 0v4.14l-1.879-2.07zm-11.976.072h3.988v.332c0 .555-.442 1-.997 1H1.636v-.661c0-.375.299-.67.673-.67zm4.655 0h.665v1.332H6.62a1.65 1.65 0 00.345-1zm-4.327.332a.333.333 0 10-.003.665.333.333 0 00.003-.665zm1.331 0a.333.333 0 10-.002.665.333.333 0 00.002-.665zm1.332 0a.333.333 0 10-.003.665.333.333 0 00.003-.665zm10.993.273a.618.618 0 00-.615.611v2.165c0 .335.28.615.615.615h3.293c.334 0 .611-.28.611-.615v-2.165a.616.616 0 00-.611-.611zm.052.665h3.187v2.06h-3.187zm-14.71.728H7.63v7.403c0 .695.57 1.266 1.265 1.266h5.391v2.658c0 .375-.295.67-.67.67H2.309a.668.668 0 01-.673-.67zm10.32.495l1.97 2.168H9.987zm-8.955.17c-.36 0-.66.3-.66.661v2.34c0 .36.3.66.66.66h3.266c.361 0 .66-.3.66-.66v-2.34a.665.665 0 00-.66-.661zm.677.666h1.912l-.956.743zm-.672.32c.003.004.005.005.008.007l1.078.838-1.078.838-.008.006zm2.17.845l1.082-.841v1.682zm10.774.167a.333.333 0 00-.332.332c.001.183.15.33.332.332h3.996a.333.333 0 00.334-.332.333.333 0 00-.334-.332zm-11.316.254l.956.743H3.677zm15.07 1.076H9.536c-.398-.003-.604.194-.575.575v2.179c-.013.398.224.566.575.575h10.167c.398 0 .572-.199.576-.575v-2.18c-.002-.325-.2-.58-.576-.574zm-7.846.666h5.523l-2.761.658zm7.756.152v1.695l-3.559-.848zm-9.986.001l3.556.847-3.556.846zm-5.993.18a.333.333 0 000 .666H5.63a.333.333 0 000-.665zm10.984 1.008l2.76.656h-5.519zm-11.159.324a.575.575 0 00-.57.57v1.185c0 .311.259.57.57.57h2.42a.575.575 0 00.571-.57v-1.185a.575.575 0 00-.57-.57zm.096.667h2.229v.992H3.555zm-.916 2.328a.333.333 0 100 .665h10.649a.333.333 0 000-.665zm0 1.331a.333.333 0 100 .666h10.649a.333.333 0 000-.666z" style="line-height:normal;font-variant-ligatures:normal;font-variant-position:normal;font-variant-caps:normal;font-variant-numeric:normal;font-variant-alternates:normal;font-variant-east-asian:normal;font-feature-settings:normal;font-variation-settings:normal;text-indent:0;text-align:start;text-decoration-line:none;text-decoration-style:solid;text-decoration-color:#000;text-transform:none;text-orientation:mixed;white-space:normal;shape-padding:0;shape-margin:0;inline-size:0;isolation:auto;mix-blend-mode:normal;solid-color:#000;solid-opacity:1" id="path1465" color="#000" font-style="normal" font-variant="normal" font-weight="400" font-stretch="normal" font-size="medium" font-family="sans-serif" text-decoration="none" letter-spacing="normal" word-spacing="normal" writing-mode="lr-tb" direction="ltr" dominant-baseline="auto" baseline-shift="baseline" text-anchor="start" clip-rule="nonzero" display="inline" overflow="visible" visibility="visible" opacity="1" color-interpolation="sRGB" color-interpolation-filters="linearRGB" vector-effect="none" fill="#d2e9e3" fill-opacity="1" fill-rule="nonzero" stroke="none" stroke-width=".666" stroke-linecap="round" stroke-linejoin="round" stroke-miterlimit="4" stroke-dasharray="none" stroke-dashoffset="0" stroke-opacity="1" color-rendering="auto" image-rendering="auto" shape-rendering="auto" text-rendering="auto" stop-color="#000" stop-opacity="1"/></g></svg>