<svg width="120" height="120" fill="none" xmlns="http://www.w3.org/2000/svg"><path d="M59.782 90.356c-4.44.02-8.866-.475-13.192-1.474a25.356 25.356 0 01-3.773-1.166l3.05 5.209 1.192 16.275c0 1.826 5.797 3.304 12.945 3.304 7.147 0 12.945-1.478 12.945-3.304l.945-16.451 2.883-5.048c-1.235.494-2.508.89-3.806 1.181a57.57 57.57 0 01-13.189 1.474zM76.876 37.4A128.558 128.558 0 0160 38.377c-5.64.045-11.278-.282-16.875-.978a31.603 31.603 0 01-5.25-1.095 7.615 7.615 0 01-1.294-.537L39.375 61.5a25.176 25.176 0 011.56-3.979c.42-.844.891-1.661 1.41-2.449.49-.744 1.03-1.454 1.62-2.122a12.928 12.928 0 011.762-1.669 8.392 8.392 0 011.827-1.091 4.631 4.631 0 011.826-.375 3.941 3.941 0 012.017.57 5.78 5.78 0 011.823 1.845c.123.173.208.37.248.578.033.181.05.366.052.55a1.46 1.46 0 01-.293.965.873.873 0 01-.693.352.889.889 0 01-.683-.375 7.334 7.334 0 01-.705-1.106 2.67 2.67 0 00-.806-.942 1.699 1.699 0 00-.956-.292 2.955 2.955 0 00-1.714.664 9.939 9.939 0 00-1.804 1.755 19.227 19.227 0 00-1.713 2.497 26.026 26.026 0 00-1.448 2.877c-.406.94-.74 1.91-1.001 2.902-.233.837-.359 1.7-.375 2.569a6 6 0 00.052.78c.03.25.096.495.195.727.083.205.211.389.375.537a.926.926 0 00.623.21c.34-.016.67-.114.964-.285a7.231 7.231 0 001.125-.75c.406-.327.794-.677 1.162-1.047a18.659 18.659 0 001.98-2.329c.221-.302.417-.621.585-.956l1.065-3.187a1.5 1.5 0 01.51-.75 1.13 1.13 0 01.649-.218c.108 0 .216.018.319.053a.783.783 0 01.487.468c.052.137.078.282.075.428a6.2 6.2 0 01-.116 1.222 9.63 9.63 0 01-.293 1.125c-.117.363-.248.727-.393 1.092a26.02 26.02 0 00-.424 1.147c-.068.138-.123.28-.165.428l-.293.904c-.115.352-.24.757-.375 1.215l-.412 1.368c-.143.465-.278.921-.405 1.369l-.349 1.215-.259.907c-.067.244-.112.375-.127.435a2.821 2.821 0 01-.184.48 3.182 3.182 0 01-.296.503 1.828 1.828 0 01-.375.375.697.697 0 01-.424.157.597.597 0 01-.532-.243 1.706 1.706 0 01-.166-.897v-.19a1.898 1.898 0 010-.203 4.8 4.8 0 01.218-.814c.108-.397.233-.847.375-1.35.142-.503.303-1.023.48-1.56l.465-1.444c-.405.453-.844.903-1.316 1.35a14.2 14.2 0 01-1.455 1.208c-.47.34-.972.633-1.5.874a3.559 3.559 0 01-1.455.337 2.603 2.603 0 01-1.38-.353 1.891 1.891 0 01-.199-.138l1.556 16.32c.405 1.016 8.033 3.51 18.094 3.51 10.061 0 17.696-2.498 18.094-3.514l2.25-19.402-.537.495a23.456 23.456 0 01-1.814 1.537 8.19 8.19 0 01-1.665.998 4.324 4.324 0 01-1.74.352c-.479.032-.954-.1-1.347-.375a1.264 1.264 0 01-.476-1.043v-.1a.684.684 0 010-.117c.053-.334.174-.653.356-.938.227-.38.478-.748.75-1.098.29-.38.599-.765.927-1.155.327-.39.63-.759.91-1.107.25-.305.481-.624.694-.956.153-.206.248-.45.274-.705a.32.32 0 00-.116-.258.6.6 0 00-.375-.094 2.148 2.148 0 00-.945.236c-.346.172-.67.386-.964.638-.33.281-.64.587-.926.914a13.486 13.486 0 00-1.567 2.198c-.218.38-.403.726-.555 1.039l-.195.42c-.085.18-.177.384-.274.611-.098.228-.203.46-.315.698-.11.25-.212.476-.304.678l-.248.57a9.839 9.839 0 01-.153.345 9.05 9.05 0 00-.188.462c-.087.225-.188.49-.303.794l-.376.957-.356.948-.292.788c-.083.225-.139.375-.161.461-.074.228-.165.45-.27.664a2.73 2.73 0 01-.357.551c-.128.152-.283.28-.457.375a1.17 1.17 0 01-.578.143 1.126 1.126 0 01-.682-.195.886.886 0 01-.27-.75c0-.187.023-.374.067-.555.047-.191.104-.379.173-.563.067-.187.139-.375.213-.543.076-.17.14-.346.2-.51.412-.905.832-1.812 1.26-2.72.427-.907.837-1.807 1.23-2.7.082-.187.157-.374.236-.55l-.072.07c-.472.455-.973.878-1.5 1.268a7.877 7.877 0 01-1.466.874 3.458 3.458 0 01-1.414.326 1.827 1.827 0 01-.783-.15 1.309 1.309 0 01-.503-.405 1.624 1.624 0 01-.27-.611c0-.079-.03-.165-.041-.248-.135.105-.27.207-.405.304a8.222 8.222 0 01-1.399.806 3.09 3.09 0 01-1.237.304 1.17 1.17 0 01-.893-.375 1.808 1.808 0 01-.341-1.248c.009-.49.07-.976.184-1.452a7.422 7.422 0 01-.75 1.073 6.525 6.525 0 01-1.02.99 5.09 5.09 0 01-1.283.724 4.209 4.209 0 01-1.545.277c-.246.001-.49-.03-.727-.094a1.525 1.525 0 01-.612-.326 1.635 1.635 0 01-.423-.619 2.548 2.548 0 01-.162-.971s0-.146.045-.412c.067-.427.165-.848.293-1.26.165-.575.415-1.325.75-2.25.335-.926.82-2.033 1.455-3.323.117-.294.308-.552.555-.75a1.155 1.155 0 011.016-.176c.115.032.224.082.322.15a.8.8 0 01.24.258.702.702 0 01.09.375.951.951 0 01-.033.26 3.074 3.074 0 01-.248.603c-.125.25-.272.535-.442.855-.17.32-.348.666-.533 1.039-.187.37-.361.754-.521 1.151-.16.397-.298.803-.413 1.215a5.247 5.247 0 00-.194 1.2.884.884 0 00.116.446.401.401 0 00.375.203 2.393 2.393 0 001.421-.488c.47-.345.89-.754 1.249-1.215.386-.491.732-1.013 1.035-1.56a18.8 18.8 0 00.772-1.526c.148-.321.273-.652.375-.99a9.87 9.87 0 01.375-.975 3 3 0 01.447-.75.792.792 0 01.63-.3.78.78 0 01.652.311c.163.216.248.48.24.75-.014.23-.066.458-.154.672a27.272 27.272 0 01-.885 2.148c-.182.418-.352.84-.51 1.268-.147.413-.272.834-.375 1.26-.098.374-.15.76-.154 1.147a.437.437 0 00.503.488c.308-.019.608-.102.881-.244a6.025 6.025 0 001.106-.686 8.6 8.6 0 00.29-.229c.096-.417.222-.826.374-1.226.268-.705.539-1.407.814-2.104l.75-1.913 3.469-8.748c.098-.304.293-.567.555-.75a1.33 1.33 0 01.705-.218c.235 0 .462.08.645.229a.893.893 0 01.292.75c-.002.176-.035.35-.097.514a6.22 6.22 0 01-.248.585 164.588 164.588 0 00-1.53 3.566c-.302.722-.611 1.472-.926 2.25l-.926 2.284c-.3.75-.583 1.452-.848 2.107l-.682 1.729a7.614 7.614 0 00-.248.727 2.673 2.673 0 00-.12.75.664.664 0 00.068.327.274.274 0 00.262.124 1.5 1.5 0 00.6-.17 6.13 6.13 0 00.78-.445c.28-.185.57-.398.87-.638.3-.24.6-.49.9-.75.298-.25.583-.508.855-.773.273-.264.515-.502.728-.712.05-.05.11-.09.176-.116.128-.375.248-.75.349-1.125.06-.163.144-.394.251-.694.11-.3.235-.594.375-.881.125-.268.281-.52.465-.75a.724.724 0 01.559-.289.901.901 0 01.663.21.848.848 0 01.207.619 2.24 2.24 0 01-.023.258c0 .117-.034.244-.056.375a8.367 8.367 0 01-.075.375 1.725 1.725 0 01-.075.26c.283-.308.588-.613.915-.916a9.37 9.37 0 011.02-.821 5.887 5.887 0 011.076-.596 2.83 2.83 0 011.099-.229c.254 0 .506.037.75.109.238.067.462.175.664.319.195.14.357.32.476.528.128.23.191.488.184.75a2.924 2.924 0 01-.282 1.189 8.598 8.598 0 01-.704 1.267c-.283.425-.588.84-.915 1.242-.328.402-.635.769-.923 1.099l-.724.84a1.268 1.268 0 00-.303.468c-.002.1.036.195.104.266a.48.48 0 00.346.102 1.32 1.32 0 00.573-.218 9.742 9.742 0 001.058-.75 52.649 52.649 0 001.729-1.436c.48-.413 1.038-.904 1.672-1.463l3.03-28.05a7.593 7.593 0 01-1.294.537c-1.72.503-3.48.86-5.261 1.065zM60 30.75c-13.095 0-23.708 1.462-23.708 3.27 0 1.807 10.583 3.262 23.708 3.262 13.125 0 23.707-1.462 23.707-3.27 0-1.807-10.627-3.262-23.707-3.262zm9.465 4.226c0 .424-1.26.75-2.816.75-1.556 0-2.816-.345-2.816-.75s1.26-.75 2.816-.75c1.556 0 2.805.319 2.805.743l.011.007z" fill="#DA4648"/><path d="M64.388 34.627a.127.127 0 00-.023.068c0 .274 1.016.495 2.25.495s2.25-.221 2.25-.495l2.963-12L83.61 10.256c.248-.281-.255-1.155-1.095-1.905s-1.748-1.001-2.029-.716L67.957 20.846l-3.57 13.781z" fill="#DA4648"/></svg>