<svg width="120" height="120" fill="none" xmlns="http://www.w3.org/2000/svg"><path d="M85.688 67.008H9.445V98.39h64.758l11.484-31.383zm-43.29 18.867c0 1.523-.468 2.742-1.406 3.656-.937.914-2.133 1.36-3.61 1.36-1.57 0-2.812-.399-3.726-1.196-.914-.797-1.36-1.968-1.336-3.515l.024-.07h2.578c0 .913.21 1.57.656 2.015.445.445 1.031.656 1.805.656.703 0 1.265-.258 1.71-.797.446-.515.657-1.218.657-2.109V74.719h2.648v11.156zm13.524 3.844c-1.031.797-2.39 1.172-4.078 1.172-1.617 0-3.024-.422-4.242-1.29-1.196-.867-1.782-2.085-1.758-3.656l.023-.07h2.555c0 .96.328 1.688.984 2.156.657.492 1.477.727 2.414.727.938 0 1.664-.188 2.203-.586.516-.399.774-.938.774-1.617 0-.657-.234-1.22-.703-1.64-.469-.423-1.313-.798-2.508-1.15-1.711-.468-3.047-1.1-3.961-1.874-.938-.774-1.406-1.782-1.406-3.024 0-1.289.515-2.344 1.523-3.187 1.031-.844 2.344-1.243 3.938-1.243 1.734 0 3.093.47 4.125 1.383 1.03.914 1.523 2.063 1.5 3.422l-.024.07h-2.554c0-.843-.282-1.5-.844-2.015-.563-.492-1.313-.75-2.227-.75-.89 0-1.593.21-2.086.633-.492.422-.726.96-.726 1.64 0 .61.258 1.125.797 1.524.539.398 1.406.773 2.648 1.125 1.664.469 2.953 1.101 3.82 1.922.868.796 1.313 1.828 1.313 3.093.047 1.383-.469 2.438-1.5 3.235z" fill="#F47822"/><path d="M82.71 1.406H25.173a3.13 3.13 0 00-3.117 3.117v60.188h6.234V7.64h54.422v21.61h21.609v83.109H28.29v-11.671h-6.235v14.789a3.13 3.13 0 003.117 3.117h82.265a3.131 3.131 0 003.118-3.117V29.25L82.711 1.406z" fill="#F47822"/><path d="M96 40.172H36.61v4.594H96v-4.594zm-9.398 8.93H36.609v4.593h49.993v-4.593z" fill="#F47822"/></svg>