<svg width="120" height="120" fill="none" xmlns="http://www.w3.org/2000/svg"><path fill-rule="evenodd" clip-rule="evenodd" d="M1.143 52.646c0 .66.194 1.094.303 1.517.708 2.75 2.232 5.11 4.04 7.262 2.574 3.068 5.727 5.537 8.956 7.86 2.801 2.013 5.66 3.982 8.472 5.98.483.343.94.738 1.464 1.16-.451.243-.826.457-1.216.655-3.712 1.883-7.283 3.993-10.574 6.55-1.984 1.54-3.902 3.179-5.257 5.32-2.18 3.442-2.951 7.11-1.326 11.025.474 1.144 1.198 2.132 2.219 2.862.33.236.702.471 1.09.563.991.233 2.002.386 3.006.571l2.843-.002c3.145-.281 6.007-1.358 8.593-3.143 4.043-2.79 6.766-6.53 7.937-11.331.851-3.49.886-6.983-.117-10.456-.093-.323-.21-.639-.332-.95-.122-.313-.265-.617-.434-1.006l6.446-3.707.097.083c-.117.383-.242.766-.348 1.153-.766 2.797-1.275 5.644-1.092 8.547.195 3.094 1.058 5.99 2.87 8.574 1.464 2.091 4.953 2.169 6.51.07.552-.745 1.087-1.524 1.49-2.355 1.05-2.17 2.023-4.38 3.027-6.573l.176-.401c-.073 1.038-.157 1.95-.195 2.864-.06 1.426.023 2.843.51 4.2.418 1.16 1.127 2.028 2.457 2.18.91.105 1.634-.312 2.302-.84a9.734 9.734 0 002.523-2.999c1.782-3.272 3.612-6.526 5.228-9.88 1.747-3.63 3.275-7.365 4.898-11.056l.268-.654c.384 1.506.65 2.982 1.143 4.379.572 1.62 1.28 3.203 2.05 4.742.365.726.323 1.198-.183 1.807-2.114 2.55-4.193 5.131-6.273 7.71-.46.568-.919 1.148-1.302 1.77a3.47 3.47 0 00-.45 1.278 1.629 1.629 0 001.296 1.848c.823.177 1.7.243 2.539.18 2.903-.213 5.54-1.232 7.87-2.959 3.02-2.237 3.99-5.29 3.258-8.907-.198-.982-.547-1.936-.888-2.882-.153-.427-.163-.726.115-1.123 2.415-3.447 4.477-7.105 6.395-10.846a2.23 2.23 0 01.287-.452c.622 3.234 1.557 6.352 3.233 9.18-.854.824-1.701 1.571-2.467 2.394-1.687 1.814-3.15 3.782-3.912 6.183-.328 1.035-.58 2.087-.434 3.192.227 1.717 1.633 2.833 3.321 2.442 3.613-.837 6.733-2.54 9.012-5.555 1.533-2.03 1.673-4.296 1.03-6.668-.175-.645-.385-1.28-.61-2.02.892-.276 1.761-.608 2.66-.814 4.668-1.065 9.285-.879 13.783.807 2.626.984 4.748 2.631 6.006 5.223 1.537 3.167.687 6.173-2.299 8.175-.278.187-.597.334-.828.568a.82.82 0 00-.192.628c.02.115.325.26.5.258.981-.008 1.777-.523 2.541-1.051 1.915-1.325 3.312-3.107 3.613-5.454l.059-.176-.072-1.528c-.03-.088.021-.175.015-.242-.407-3.417-2.233-6.068-4.888-8.145-3.075-2.405-6.706-3.395-10.546-3.551a23.814 23.814 0 00-9.154 1.409c-.841.304-1.675.665-2.52 1.006-.114-.206-.236-.403-.336-.606-.868-1.777-1.92-3.476-2.152-5.514-.165-1.448-.368-2.893-.024-4.325.331-1.377.762-2.73 1.168-4.09.21-.699.062-1.09-.605-1.406a2.677 2.677 0 00-.737-.242c-1.64-.238-3.259-.102-4.848.36-.563.165-.971.48-1.096 1.102-.071.357-.217.7-.318 1.052-.415 1.465-.71 2.959-1.38 4.355-1.683 3.501-3.603 6.87-5.568 10.216-.212.36-.436.715-.705 1.153-.69-1.444-1.426-2.74-1.649-4.258-.252-1.718-.45-3.433-.023-5.137.318-1.271.733-2.52 1.115-3.773.181-.597.098-.91-.442-1.224-.273-.158-.581-.299-.889-.345a10.916 10.916 0 00-5.02.41c-.508.166-.775.495-.931 1.02-.458 1.549-.848 3.135-1.49 4.608-2.6 5.962-5.276 11.894-7.949 17.824-.558 1.239-1.211 2.434-1.84 3.64-.16.305-.392.574-.59.861-.16-.188-.222-.318-.221-.447.005-.762-.086-1.547.06-2.284.439-2.23.945-4.446 1.478-6.655.441-1.824.954-3.632 1.442-5.444.164-.607.167-1.174-.269-1.684-.732-.854-2.262-1.041-3.17-.383l-.4.227.077-.647c.191-1.387.23-2.769-.15-4.135-.475-1.702-1.69-2.682-3.456-2.627-.824.025-1.688.165-2.45.465-3.205 1.257-5.67 3.481-7.768 6.158a2.43 2.43 0 01-.71.613c-2.712 1.504-5.433 2.989-8.152 4.48l-3.028 1.658c-.811-.774-1.55-1.578-2.386-2.26-2.557-2.084-5.155-4.118-7.73-6.18-2.281-1.827-4.492-3.73-6.183-6.15-1.258-1.8-2.07-3.77-2.147-5.995-.098-2.836.706-5.427 2.15-7.84 1.847-3.085 4.366-5.562 7.135-7.806 2.93-2.372 6.099-4.385 9.383-6.224 4.594-2.571 9.32-4.848 14.387-6.35 5.196-1.542 10.468-2.424 15.905-1.809 2.138.242 4.213.731 6.12 1.777 1.459.8 2.656 1.847 3.213 3.483.55 1.611.532 3.243.152 4.88-.774 3.312-2.588 6.043-4.87 8.484-3.745 4-8.312 6.723-13.455 8.522a37.008 37.008 0 01-9.154 1.953c-2.559.215-5.064-.012-7.486-.902-1.604-.59-3.001-1.491-4.124-2.8-.2-.234-.458-.488-.832-.269-.366.216-.431.564-.308.918.205.587.394 1.198.714 1.723.804 1.317 1.975 2.272 3.265 3.092 2.478 1.576 5.248 2.105 8.12 2.228 4.357.189 8.608-.462 12.8-1.631 5.984-1.669 11.187-4.616 15.36-9.266 3.474-3.872 5.956-8.242 6.487-13.518.26-2.575-.017-5.098-1.222-7.448-1.308-2.545-3.387-4.438-5.874-5.742-3.62-1.898-7.528-3.003-11.56-3.003h-4.041c-4.885 0-9.607 1.4-14.197 3.069a97.546 97.546 0 00-10.189 4.409c-7.203 3.599-13.91 7.939-19.42 13.906-2.745 2.973-5.07 6.253-6.406 10.115a37.958 37.958 0 00-1.042 3.512m26.1 33.763c-.313 4.18-2.207 7.569-5.304 10.314-1.742 1.543-3.74 2.642-6.067 3.028-.843.14-1.707.174-2.525-.176-1.167-.499-1.429-1.535-1.451-2.638-.035-1.76.58-3.35 1.425-4.862 1.103-1.973 2.72-3.476 4.445-4.88 2.719-2.214 5.668-4.087 8.689-5.856l.228-.093c.467 1.725.689 3.428.56 5.163zm23.585-18.168c-.22 1.335-.496 2.67-.886 3.964-1.348 4.479-3.08 8.819-4.952 13.1-.346.792-.85 1.515-1.287 2.266a1.585 1.585 0 01-.265.313c-.542.535-1.056.507-1.33-.193-.318-.814-.514-1.685-.683-2.546-.114-.579-.086-1.186-.122-1.779.037-4.213 1.322-8.041 3.503-11.606.899-1.47 1.877-2.87 3.373-3.8a5.88 5.88 0 011.495-.662c.797-.224 1.286.144 1.154.943zM67 87.045l5.784-6.753c.24 2.508-4.022 7.514-5.784 6.753zm18.472-4.544c-.409.234-.854.403-1.273.62-.384.198-.51-.002-.522-.332a2.235 2.235 0 01.088-.676c.78-2.755 2.218-5.106 4.356-7.018l.15-.077c1.017 2.845-.158 5.97-2.8 7.483z" fill="#CB6699"/></svg>