<svg width="64pt" height="64pt" viewBox="0 0 22.578 22.578" version="1.1" id="svg831" xmlns="http://www.w3.org/2000/svg"><g id="layer1" transform="translate(0 -274.422)"><path d="M14.604 276.606c-2.063 2.062-4.124 4.125-6.186 6.188a.333.333 0 00-.088.117l-.946 2.126a.767.767 0 00.158.845.767.767 0 00.845.158l2.109-.94a.326.326 0 00.127-.088l6.195-6.195a1.001 1.001 0 000-1.41l-.8-.801c-.504-.478-.966-.409-1.414 0zm.941.469l.801.801a.329.329 0 010 .472l-1.325 1.326-1.272-1.272 1.327-1.327c.189-.148.285-.16.47 0zm-8.918 1.099c-.547 0-.998.45-.998.997v2.996H1.97c-.548 0-.999.452-.999 1v10.984c0 .548.45.998.998.998H15.95c.548 0 .998-.45.998-.998v-2.995h3.662c.547 0 .998-.453.998-1V279.17c0-.548-.45-.997-.998-.997h-2.664a.333.333 0 000 .665h2.664c.187 0 .334.144.334.332v.998h-4.661a.333.333 0 000 .666h4.66v9.32a.33.33 0 01-.333.335c-4.663-.005-9.316 0-13.983 0a.328.328 0 01-.331-.334v-9.321H9.29a.333.333 0 100-.666H6.296v-.998c0-.188.144-.332.331-.332h4.662a.333.333 0 000-.665zm6.652.7l1.27 1.27-4.174 4.173-1.272-1.269zm-5.986.297a.333.333 0 10.003.666.333.333 0 00-.003-.666zm1.332 0a.333.333 0 10.002.666.333.333 0 00-.002-.666zm1.331 0a.333.333 0 10.003.666.333.333 0 00-.003-.666zm-7.988 3.662H5.63v1.331H1.634v-.997a.33.33 0 01.334-.334zm.665.333a.333.333 0 10.002.666.333.333 0 00-.002-.666zm1.331 0a.333.333 0 10.003.666.333.333 0 00-.003-.666zm10.32 0a.67.67 0 00-.665.666v.664a.67.67 0 00.666.666v2.664a.67.67 0 00-.666.666v.666c0 .363.302.666.666.666h.665a.671.671 0 00.666-.666h2.664c0 .363.303.666.666.666h.666a.671.671 0 00.666-.666v-.666a.67.67 0 00-.666-.666v-2.664a.67.67 0 00.666-.666v-.663a.67.67 0 00-.666-.666h-.666a.671.671 0 00-.666.665h-2.664a.67.67 0 00-.666-.665zm-5.544.458l1.058 1.056-1.682.75c-.053.024-.076.009-.105-.02-.029-.028-.043-.05-.02-.103zm5.545.208h.665v.664h-.665zm4.661 0h.666v.665h-.666zm-3.33.665h2.664c0 .363.303.665.666.665v2.664a.671.671 0 00-.666.666h-2.664a.67.67 0 00-.666-.666v-2.664a.67.67 0 00.666-.665zm-13.982.334h3.995v.727a.979.979 0 00-.331-.061H3.3c-.548 0-1 .45-1 .997v1.666c0 .548.452.998 1 .998h1.998a.979.979 0 00.331-.061v1.059c0 .547.45 1 .998 1h9.656v2.995a.327.327 0 01-.333.332H1.968a.329.329 0 01-.334-.332zm15.314.331c-.731 0-1.332.6-1.332 1.332 0 .731.601 1.332 1.332 1.332.732 0 1.332-.6 1.332-1.332 0-.732-.6-1.332-1.332-1.332zm0 .666a.66.66 0 01.666.666.661.661 0 01-.666.666.661.661 0 01-.665-.666.66.66 0 01.665-.666zm-13.648.334h1.998c.188 0 .331.144.331.332v1.666a.326.326 0 01-.331.332H3.3a.328.328 0 01-.334-.332v-1.666c0-.188.146-.332.334-.332zm5.991.332a.333.333 0 000 .666h2.664a.333.333 0 000-.666zm-1.998 1.332a.333.333 0 000 .666h4.662a.333.333 0 000-.666zm6.992.666h.665v.666h-.665zm4.661 0h.666v.666h-.666zm-11.653.666a.333.333 0 000 .666h4.662a.333.333 0 000-.666zm-3.661.666c-.731 0-1.332.6-1.332 1.332v1.332c0 .732.6 1.332 1.332 1.332.731 0 1.332-.6 1.332-1.332v-1.332c0-.732-.6-1.332-1.332-1.332zm0 .666a.66.66 0 01.666.666v1.332a.66.66 0 01-.666.666.661.661 0 01-.666-.666v-1.332a.66.66 0 01.666-.666zm8.323 1.332a.333.333 0 100 .666h.332a.333.333 0 100-.666zm1.998 0a.333.333 0 100 .666h.332a.333.333 0 100-.666zm-7.99 1.332a.333.333 0 100 .666h4.66a.333.333 0 100-.666zm5.992 0a.333.333 0 100 .666h.666a.333.333 0 000-.666zm1.998 0a.333.333 0 100 .666h1.332a.333.333 0 000-.666z" style="line-height:normal;font-variant-ligatures:normal;font-variant-position:normal;font-variant-caps:normal;font-variant-numeric:normal;font-variant-alternates:normal;font-variant-east-asian:normal;font-feature-settings:normal;font-variation-settings:normal;text-indent:0;text-align:start;text-decoration-line:none;text-decoration-style:solid;text-decoration-color:#000;text-transform:none;text-orientation:mixed;white-space:normal;shape-padding:0;shape-margin:0;inline-size:0;isolation:auto;mix-blend-mode:normal;solid-color:#000;solid-opacity:1" id="path1699" color="#000" font-style="normal" font-variant="normal" font-weight="400" font-stretch="normal" font-size="medium" font-family="sans-serif" text-decoration="none" letter-spacing="normal" word-spacing="normal" writing-mode="lr-tb" direction="ltr" dominant-baseline="auto" baseline-shift="baseline" text-anchor="start" clip-rule="nonzero" display="inline" overflow="visible" visibility="visible" opacity="1" color-interpolation="sRGB" color-interpolation-filters="linearRGB" vector-effect="none" fill="#d2e9e3" fill-opacity="1" fill-rule="nonzero" stroke="none" stroke-width=".666" stroke-linecap="round" stroke-linejoin="round" stroke-miterlimit="4" stroke-dasharray="none" stroke-dashoffset="0" stroke-opacity="1" color-rendering="auto" image-rendering="auto" shape-rendering="auto" text-rendering="auto" stop-color="#000" stop-opacity="1"/></g></svg>