<?xml version="1.0" encoding="UTF-8" standalone="no"?>
<svg
   xmlns:dc="http://purl.org/dc/elements/1.1/"
   xmlns:cc="http://creativecommons.org/ns#"
   xmlns:rdf="http://www.w3.org/1999/02/22-rdf-syntax-ns#"
   xmlns:svg="http://www.w3.org/2000/svg"
   xmlns="http://www.w3.org/2000/svg"
   xmlns:sodipodi="http://sodipodi.sourceforge.net/DTD/sodipodi-0.dtd"
   xmlns:inkscape="http://www.inkscape.org/namespaces/inkscape"
   inkscape:export-ydpi="576"
   inkscape:export-xdpi="576"
   inkscape:export-filename="D:\project\finish project september adnan\expanded line\png\2 - Website Maintenance.png"
   sodipodi:docname="3 - Flow.svg"
   inkscape:version="1.0 (4035a4fb49, 2020-05-01)"
   id="svg831"
   version="1.1"
   viewBox="0 0 22.577778 22.577778"
   height="64pt"
   width="64pt">
  <defs
     id="defs825">
    <pattern
       y="0"
       x="0"
       height="6"
       width="6"
       patternUnits="userSpaceOnUse"
       id="EMFhbasepattern" />
    <pattern
       y="0"
       x="0"
       height="6"
       width="6"
       patternUnits="userSpaceOnUse"
       id="EMFhbasepattern-9" />
    <pattern
       y="0"
       x="0"
       height="6"
       width="6"
       patternUnits="userSpaceOnUse"
       id="EMFhbasepattern-0" />
    <pattern
       y="0"
       x="0"
       height="6"
       width="6"
       patternUnits="userSpaceOnUse"
       id="EMFhbasepattern-7" />
    <pattern
       y="0"
       x="0"
       height="6"
       width="6"
       patternUnits="userSpaceOnUse"
       id="EMFhbasepattern-2" />
    <pattern
       y="0"
       x="0"
       height="6"
       width="6"
       patternUnits="userSpaceOnUse"
       id="EMFhbasepattern-98" />
    <pattern
       y="0"
       x="0"
       height="6"
       width="6"
       patternUnits="userSpaceOnUse"
       id="EMFhbasepattern-6" />
    <pattern
       y="0"
       x="0"
       height="6"
       width="6"
       patternUnits="userSpaceOnUse"
       id="EMFhbasepattern-01" />
    <pattern
       y="0"
       x="0"
       height="6"
       width="6"
       patternUnits="userSpaceOnUse"
       id="EMFhbasepattern-07" />
    <pattern
       y="0"
       x="0"
       height="6"
       width="6"
       patternUnits="userSpaceOnUse"
       id="EMFhbasepattern-8" />
    <pattern
       y="0"
       x="0"
       height="6"
       width="6"
       patternUnits="userSpaceOnUse"
       id="EMFhbasepattern-4" />
    <pattern
       y="0"
       x="0"
       height="6"
       width="6"
       patternUnits="userSpaceOnUse"
       id="EMFhbasepattern-40" />
    <pattern
       y="0"
       x="0"
       height="6"
       width="6"
       patternUnits="userSpaceOnUse"
       id="EMFhbasepattern-08" />
    <pattern
       y="0"
       x="0"
       height="6"
       width="6"
       patternUnits="userSpaceOnUse"
       id="EMFhbasepattern-04" />
    <pattern
       y="0"
       x="0"
       height="6"
       width="6"
       patternUnits="userSpaceOnUse"
       id="EMFhbasepattern-014" />
    <pattern
       y="0"
       x="0"
       height="6"
       width="6"
       patternUnits="userSpaceOnUse"
       id="EMFhbasepattern-27" />
    <pattern
       y="0"
       x="0"
       height="6"
       width="6"
       patternUnits="userSpaceOnUse"
       id="EMFhbasepattern-09" />
    <pattern
       y="0"
       x="0"
       height="6"
       width="6"
       patternUnits="userSpaceOnUse"
       id="EMFhbasepattern-5" />
    <pattern
       y="0"
       x="0"
       height="6"
       width="6"
       patternUnits="userSpaceOnUse"
       id="EMFhbasepattern-018" />
  </defs>
  <sodipodi:namedview
     inkscape:document-rotation="0"
     inkscape:snap-global="true"
     inkscape:snap-nodes="false"
     inkscape:bbox-nodes="true"
     inkscape:snap-bbox="true"
     showguides="true"
     inkscape:snap-midpoints="true"
     inkscape:snap-smooth-nodes="true"
     inkscape:snap-intersection-paths="true"
     inkscape:object-paths="true"
     inkscape:showpageshadow="false"
     inkscape:pagecheckerboard="true"
     inkscape:window-maximized="1"
     inkscape:window-y="-8"
     inkscape:window-x="-8"
     inkscape:window-height="706"
     inkscape:window-width="1366"
     units="pt"
     showgrid="false"
     inkscape:current-layer="layer1"
     inkscape:document-units="pt"
     inkscape:cy="42.666667"
     inkscape:cx="42.666667"
     inkscape:zoom="6.2578125"
     inkscape:pageshadow="2"
     inkscape:pageopacity="0.0"
     borderopacity="1.0"
     bordercolor="#666666"
     pagecolor="#ffffff"
     id="base">
    <inkscape:grid
       id="grid1378"
       type="xygrid" />
    <sodipodi:guide
       inkscape:locked="false"
       id="guide1380"
       orientation="78.000048,0"
       position="0.97013831,21.607643" />
    <sodipodi:guide
       inkscape:locked="false"
       id="guide1382"
       orientation="0,78.000005"
       position="0.97013831,0.97013129" />
    <sodipodi:guide
       inkscape:locked="false"
       id="guide1384"
       orientation="-78.000048,0"
       position="21.607639,0.97013129" />
    <sodipodi:guide
       inkscape:locked="false"
       id="guide1386"
       orientation="0,-78.000005"
       position="21.607639,21.607643" />
  </sodipodi:namedview>
  <metadata
     id="metadata828">
    <rdf:RDF>
      <cc:Work
         rdf:about="">
        <dc:format>image/svg+xml</dc:format>
        <dc:type
           rdf:resource="http://purl.org/dc/dcmitype/StillImage" />
        <dc:title></dc:title>
      </cc:Work>
    </rdf:RDF>
  </metadata>
  <g
     transform="translate(0,-274.42223)"
     id="layer1"
     inkscape:groupmode="layer"
     inkscape:label="Icon">
    <path
       id="path1386"
       style="color:#000000;font-style:normal;font-variant:normal;font-weight:normal;font-stretch:normal;font-size:medium;line-height:normal;font-family:sans-serif;font-variant-ligatures:normal;font-variant-position:normal;font-variant-caps:normal;font-variant-numeric:normal;font-variant-alternates:normal;font-variant-east-asian:normal;font-feature-settings:normal;font-variation-settings:normal;text-indent:0;text-align:start;text-decoration:none;text-decoration-line:none;text-decoration-style:solid;text-decoration-color:#000000;letter-spacing:normal;word-spacing:normal;text-transform:none;writing-mode:lr-tb;direction:ltr;text-orientation:mixed;dominant-baseline:auto;baseline-shift:baseline;text-anchor:start;white-space:normal;shape-padding:0;shape-margin:0;inline-size:0;clip-rule:nonzero;display:inline;overflow:visible;visibility:visible;isolation:auto;mix-blend-mode:normal;color-interpolation:sRGB;color-interpolation-filters:linearRGB;solid-color:#000000;solid-opacity:1;vector-effect:none;fill:#D2E9E3;fill-opacity:1;fill-rule:nonzero;stroke:none;stroke-width:0.529167;stroke-linecap:round;stroke-linejoin:round;stroke-miterlimit:4;stroke-dasharray:none;stroke-dashoffset:0;stroke-opacity:1;color-rendering:auto;image-rendering:auto;shape-rendering:auto;text-rendering:auto;enable-background:accumulate;stop-color:#000000"
       d="m 2.6364037,277.3902 c -0.916278,0 -1.6662649,0.74674 -1.6662649,1.66301 v 13.31582 c 0,0.91627 0.7499869,1.66301 1.6662649,1.66301 H 19.944625 c 0.916279,0 1.663014,-0.74674 1.663014,-1.66301 v -13.31582 c 0,-0.91627 -0.746735,-1.66301 -1.663014,-1.66301 z m 0,0.66573 H 19.944625 c 0.558981,0 0.997289,0.4383 0.997289,0.99728 v 13.31582 c 0,0.55897 -0.438308,0.99729 -0.997289,0.99729 H 2.6364037 c -0.5589809,0 -1.000539,-0.43832 -1.000539,-0.99729 v -13.31582 c 0,-0.55898 0.4415581,-0.99728 1.000539,-0.99728 z m 0,0.66572 a 0.33286312,0.33286312 0 0 0 -0.3341631,0.33156 0.33286312,0.33286312 0 0 0 0.3341631,0.33417 h 0.3315627 a 0.33286312,0.33286312 0 0 0 0.3341632,-0.33417 0.33286312,0.33286312 0 0 0 -0.3341632,-0.33156 z m 1.6630143,0 a 0.33286312,0.33286312 0 0 0 -0.3315627,0.33156 0.33286312,0.33286312 0 0 0 0.3315627,0.33417 h 0.3348132 a 0.33286312,0.33286312 0 0 0 0.3315628,-0.33417 0.33286312,0.33286312 0 0 0 -0.3315628,-0.33156 z m 1.6636645,0 a 0.33286312,0.33286312 0 0 0 -0.3315627,0.33156 0.33286312,0.33286312 0 0 0 0.3315627,0.33417 h 0.3341631 a 0.33286312,0.33286312 0 0 0 0.3315628,-0.33417 0.33286312,0.33286312 0 0 0 -0.3315628,-0.33156 z m 8.4899545,0 a 0.33286312,0.33286312 0 0 0 -0.334813,0.33156 0.33286312,0.33286312 0 0 0 0.334813,0.33417 H 14.7846 a 0.33286312,0.33286312 0 0 0 0.334164,-0.33417 0.33286312,0.33286312 0 0 0 -0.334164,-0.33156 z m 1.495934,0 a 0.33286312,0.33286312 0 0 0 -0.331563,0.33156 0.33286312,0.33286312 0 0 0 0.331563,0.33417 h 0.334163 a 0.33286312,0.33286312 0 0 0 0.331562,-0.33417 0.33286312,0.33286312 0 0 0 -0.331562,-0.33156 z m 1.666265,0 a 0.33286312,0.33286312 0 0 0 -0.334164,0.33156 0.33286312,0.33286312 0 0 0 0.334164,0.33417 h 2.329389 a 0.33286312,0.33286312 0 0 0 0.334164,-0.33417 0.33286312,0.33286312 0 0 0 -0.334164,-0.33156 z m -4.541109,2.19937 a 0.33289641,0.33289641 0 0 0 -0.334163,0.33156 v 0.85751 H 11.29019 a 0.33289641,0.33289641 0 0 0 -0.334163,0.33156 v 1.15462 l -1.4842314,1.48488 H 8.6487401 8.6266346 7.4622645 v -0.85556 A 0.33289641,0.33289641 0 0 0 7.1307017,283.89142 H 4.7519022 a 0.33289641,0.33289641 0 0 0 -0.3315628,0.33417 v 2.3762 a 0.33289641,0.33289641 0 0 0 0.3315628,0.33416 h 2.3787995 a 0.33289641,0.33289641 0 0 0 0.3315628,-0.33416 v -0.85491 h 0.8328074 v 1.85675 l -1.6240069,2.37685 a 0.33289641,0.33289641 0 0 0 0.275002,0.52075 h 3.361136 a 0.33289641,0.33289641 0 0 0 0.275652,-0.52075 l -1.6220573,-2.3736 v -1.86 h 0.5109965 l 1.5823998,1.585 a 0.33289641,0.33289641 0 0 0 0.471989,0 l 1.680568,-1.68317 a 0.33289641,0.33289641 0 0 0 0,-0.46939 l -1.584998,-1.58564 v -0.81786 h 1.118211 v 0.85556 a 0.33289641,0.33289641 0 0 0 0.334163,0.33156 h 2.044637 v 2.9015 h -2.044637 a 0.33289641,0.33289641 0 0 0 -0.334163,0.33221 v 2.37816 a 0.33289641,0.33289641 0 0 0 0.334163,0.3322 h 4.754998 a 0.33289641,0.33289641 0 0 0 0.331563,-0.3322 v -2.37816 a 0.33289641,0.33289641 0 0 0 -0.331563,-0.33221 h -2.044636 v -2.9015 h 2.044636 a 0.33289641,0.33289641 0 0 0 0.331563,-0.33156 v -2.3788 a 0.33289641,0.33289641 0 0 0 -0.331563,-0.33156 z m 0.331563,0.66572 h 4.089272 v 1.71047 H 13.40569 v -0.83606 a 0.33286312,0.33286312 0 0 0 0,-0.0195 z m -2.1155,2.61675 1.211829,1.21183 -1.211829,1.20857 -1.211179,-1.20857 z m -6.2067237,0.35366 H 6.79589 v 1.71307 H 5.0834663 Z m 8.3222237,2.97367 h 4.089272 v 1.71242 H 13.40569 Z m -4.779054,0.76909 1.0518988,1.53559 H 7.5773375 Z m -5.9902323,1.73973 a 0.33289577,0.33289577 0 0 0 -0.3341631,0.33156 v 1.99783 a 0.33289577,0.33289577 0 0 0 0.3341631,0.33156 h 1.9978275 a 0.33289577,0.33289577 0 0 0 0.3315628,-0.33156 v -1.99783 a 0.33289577,0.33289577 0 0 0 -0.3315628,-0.33156 z m 0.3315627,0.66573 H 4.299418 v 1.32949 H 2.9679664 Z m 6.4927771,1.3308 a 0.33286312,0.33286312 0 0 0 -0.3348131,0.33156 0.33286312,0.33286312 0 0 0 0.3348131,0.33416 h 0.3315628 a 0.33286312,0.33286312 0 0 0 0.3341637,-0.33416 0.33286312,0.33286312 0 0 0 -0.3341637,-0.33156 z m 1.6630145,0 a 0.33286312,0.33286312 0 0 0 -0.334163,0.33156 0.33286312,0.33286312 0 0 0 0.334163,0.33416 h 0.331563 a 0.33286312,0.33286312 0 0 0 0.334813,-0.33416 0.33286312,0.33286312 0 0 0 -0.334813,-0.33156 z m 1.663665,0 a 0.33286312,0.33286312 0 0 0 -0.331563,0.33156 0.33286312,0.33286312 0 0 0 0.331563,0.33416 h 0.334163 a 0.33286312,0.33286312 0 0 0 0.331563,-0.33416 0.33286312,0.33286312 0 0 0 -0.331563,-0.33156 z" />
  </g>
</svg>
