<svg xmlns="http://www.w3.org/2000/svg" id="svg831" version="1.1" viewBox="0 0 22.578 22.578" height="64pt" width="64pt"><g transform="translate(0 -274.422)" id="layer1"><path id="path1386" style="line-height:normal;font-variant-ligatures:normal;font-variant-position:normal;font-variant-caps:normal;font-variant-numeric:normal;font-variant-alternates:normal;font-variant-east-asian:normal;font-feature-settings:normal;font-variation-settings:normal;text-indent:0;text-align:start;text-decoration-line:none;text-decoration-style:solid;text-decoration-color:#000;text-transform:none;text-orientation:mixed;white-space:normal;shape-padding:0;shape-margin:0;inline-size:0;isolation:auto;mix-blend-mode:normal;solid-color:#000;solid-opacity:1" d="M2.636 277.39c-.916 0-1.666.747-1.666 1.663v13.316c0 .916.75 1.663 1.666 1.663h17.309c.916 0 1.663-.747 1.663-1.663v-13.316c0-.916-.747-1.663-1.663-1.663zm0 .666h17.309c.559 0 .997.438.997.997v13.316a.987.987 0 01-.997.997H2.636a.99.99 0 01-1-.997v-13.316a.99.99 0 011-.997zm0 .666a.333.333 0 00-.334.331.333.333 0 00.334.334h.332a.333.333 0 00.334-.334.333.333 0 00-.334-.331zm1.663 0a.333.333 0 00-.331.331.333.333 0 00.331.334h.335a.333.333 0 00.332-.334.333.333 0 00-.332-.331zm1.664 0a.333.333 0 00-.331.331.333.333 0 00.331.334h.334a.333.333 0 00.332-.334.333.333 0 00-.332-.331zm8.49 0a.333.333 0 00-.335.331.333.333 0 00.335.334h.332a.333.333 0 00.334-.334.333.333 0 00-.334-.331zm1.496 0a.333.333 0 00-.332.331.333.333 0 00.332.334h.334a.333.333 0 00.332-.334.333.333 0 00-.332-.331zm1.666 0a.333.333 0 00-.334.331.333.333 0 00.334.334h2.33a.333.333 0 00.334-.334.333.333 0 00-.334-.331zm-4.54 2.199a.333.333 0 00-.335.332v.857h-1.45a.333.333 0 00-.334.332v1.154l-1.484 1.485h-2.01v-.855a.333.333 0 00-.331-.335H4.75a.333.333 0 00-.33.335v2.376a.333.333 0 00.33.334h2.38a.333.333 0 00.331-.334v-.855h.833v1.857L6.67 289.98a.333.333 0 00.275.521h3.361a.333.333 0 00.276-.52l-1.622-2.374v-1.86h.51l1.583 1.585a.333.333 0 00.472 0l1.68-1.683a.333.333 0 000-.47l-1.584-1.585v-.818h1.118v.855a.333.333 0 00.334.332h2.045v2.901h-2.045a.333.333 0 00-.334.333v2.378a.333.333 0 00.334.332h4.755a.333.333 0 00.332-.332v-2.378a.333.333 0 00-.332-.333h-2.045v-2.901h2.045a.333.333 0 00.332-.332v-2.378a.333.333 0 00-.332-.332zm.33.666h4.09v1.71h-4.09v-.836a.333.333 0 000-.02zm-2.115 2.616l1.212 1.212-1.212 1.209-1.211-1.209zm-6.207.354h1.713v1.713H5.083zm8.323 2.974h4.089v1.712h-4.09zm-4.78.769l1.053 1.536H7.577zm-5.99 1.74a.333.333 0 00-.334.331v1.998a.333.333 0 00.334.332h1.998a.333.333 0 00.332-.332v-1.998a.333.333 0 00-.332-.331zm.332.665h1.331v1.33H2.968zm6.493 1.331a.333.333 0 00-.335.332.333.333 0 00.335.334h.331a.333.333 0 00.334-.334.333.333 0 00-.334-.332zm1.663 0a.333.333 0 00-.334.332.333.333 0 00.334.334h.331a.333.333 0 00.335-.334.333.333 0 00-.335-.332zm1.663 0a.333.333 0 00-.331.332.333.333 0 00.331.334h.335a.333.333 0 00.331-.334.333.333 0 00-.331-.332z" color="#000" font-style="normal" font-variant="normal" font-weight="400" font-stretch="normal" font-size="medium" font-family="sans-serif" text-decoration="none" letter-spacing="normal" word-spacing="normal" writing-mode="lr-tb" direction="ltr" dominant-baseline="auto" baseline-shift="baseline" text-anchor="start" clip-rule="nonzero" display="inline" overflow="visible" visibility="visible" color-interpolation="sRGB" color-interpolation-filters="linearRGB" vector-effect="none" fill="#d2e9e3" fill-opacity="1" fill-rule="nonzero" stroke="none" stroke-width=".529" stroke-linecap="round" stroke-linejoin="round" stroke-miterlimit="4" stroke-dasharray="none" stroke-dashoffset="0" stroke-opacity="1" color-rendering="auto" image-rendering="auto" shape-rendering="auto" text-rendering="auto" stop-color="#000"/></g></svg>