<svg xmlns="http://www.w3.org/2000/svg" id="svg831" version="1.1" viewBox="0 0 22.578 22.578" height="64pt" width="64pt"><g transform="translate(0 -274.422)" id="layer1"><path d="M2.032 277.39a1 1 0 00-.782.404 1.43 1.43 0 00-.28.876v10.09c0 .33.098.636.28.872.182.236.464.408.782.408h7.21l-.24 1.663h-2.04c-.53 0-1.023.279-1.296.733l-.312.523a.667.667 0 00-.089.408h-.633a.333.333 0 00-.334.334.333.333 0 00.334.332h13.314a.333.333 0 00.334-.332.333.333 0 00-.334-.334h-.633a.667.667 0 00-.09-.408l-.312-.523a1.513 1.513 0 00-1.295-.733h-2.04l-.24-1.663h7.21a1 1 0 00.781-.408c.182-.236.28-.542.28-.873v-10.09a1.43 1.43 0 00-.28-.875 1 1 0 00-.781-.405zm0 .665h18.514c.086 0 .171.042.253.148a.78.78 0 01.145.467v9.038H1.634v-9.038a.78.78 0 01.145-.467c.082-.106.167-.148.253-.148zm1.04.666a.87.87 0 00-.52.16.64.64 0 00-.27.506v5.66c0 .214.123.395.27.503a.87.87 0 00.52.162h16.417c.192 0 .37-.054.519-.162a.636.636 0 00.27-.503v-5.66a.64.64 0 00-.27-.506.866.866 0 00-.519-.16zm0 .666h16.417c.06 0 .105.02.123.032v5.593a.225.225 0 01-.123.035H3.072a.226.226 0 01-.123-.035v-5.593a.228.228 0 01.123-.032zm1.55.666a.333.333 0 00-.02 0 .333.333 0 00-.223.096l-.666.666a.333.333 0 000 .472l.666.665a.333.333 0 00.47 0 .333.333 0 000-.47l-.43-.431.43-.43a.333.333 0 000-.472.333.333 0 00-.227-.096zm3.33 0a.333.333 0 00-.02 0 .333.333 0 00-.226.096.333.333 0 000 .472l.43.43-.43.43a.333.333 0 000 .471.333.333 0 00.472 0l.666-.665a.333.333 0 000-.472l-.666-.666a.333.333 0 00-.226-.096zm-1.35 0a.333.333 0 00-.29.184l-.665 1.33a.333.333 0 00.15.447.333.333 0 00.447-.147l.666-1.333a.333.333 0 00-.15-.446.333.333 0 00-.157-.035zm9.68 0a.672.672 0 00-.666.666v2.995c0 .363.304.666.667.666h1.997a.672.672 0 00.666-.666v-2.995a.672.672 0 00-.666-.666zm0 .666h1.998v2.995h-1.997zm-6.342.332a.333.333 0 00-.332.334.333.333 0 00.332.331h.332a.333.333 0 00.334-.331.333.333 0 00-.334-.334zm1.663 0a.333.333 0 00-.331.334.333.333 0 00.331.331h2.999a.333.333 0 00.331-.331.333.333 0 00-.331-.334zm-1.007 1.332a.333.333 0 00-.226.098l-.666.666a.333.333 0 000 .47l.666.665a.333.333 0 00.472 0 .333.333 0 000-.472l-.43-.43.43-.43a.333.333 0 000-.47.333.333 0 00-.246-.097zm1.998 0a.333.333 0 00-.288.184l-.666 1.332a.333.333 0 00.148.445.333.333 0 00.447-.148l.666-1.332a.333.333 0 00-.15-.447.333.333 0 00-.157-.034zm1.33 0a.333.333 0 00-.225.098.333.333 0 000 .47l.43.43-.43.429a.333.333 0 000 .472.333.333 0 00.47 0l.666-.666a.333.333 0 000-.47l-.666-.665a.333.333 0 00-.246-.098zm-9.975.997a.333.333 0 00-.335.334.333.333 0 00.335.332h2.996a.333.333 0 00.331-.332.333.333 0 00-.331-.334zm4.327 0a.333.333 0 00-.334.334.333.333 0 00.334.332h.332a.333.333 0 00.334-.332.333.333 0 00-.334-.334zm1.182 2.998a.333.333 0 00-.334.332.333.333 0 00.334.332h.332a.333.333 0 00.334-.332.333.333 0 00-.334-.332zm1.664 0a.333.333 0 00-.332.332.333.333 0 00.332.332h.334a.333.333 0 00.332-.332.333.333 0 00-.332-.332zm1.666 0a.333.333 0 00-.334.332.333.333 0 00.334.332h.331a.333.333 0 00.335-.332.333.333 0 00-.335-.332zm-11.154 1.996h19.31v.385a.783.783 0 01-.145.468c-.082.106-.167.147-.253.147H2.032c-.086 0-.171-.041-.253-.147a.783.783 0 01-.145-.468zm8.279 1.666h2.752l.239 1.663h-3.23zm-2.951 2.33h8.654a.84.84 0 01.723.407l.314.524c.026.043.012.066-.039.066H5.964c-.051 0-.066-.023-.04-.066l.315-.524a.84.84 0 01.723-.407zm-3.996.997a.333.333 0 00-.332.334.333.333 0 00.332.332H3.3a.333.333 0 00.332-.332.333.333 0 00-.332-.334zm16.312 0a.333.333 0 00-.332.334.333.333 0 00.332.332h.334a.333.333 0 00.332-.332.333.333 0 00-.332-.334z" style="line-height:normal;font-variant-ligatures:normal;font-variant-position:normal;font-variant-caps:normal;font-variant-numeric:normal;font-variant-alternates:normal;font-variant-east-asian:normal;font-feature-settings:normal;font-variation-settings:normal;text-indent:0;text-align:start;text-decoration-line:none;text-decoration-style:solid;text-decoration-color:#000;text-transform:none;text-orientation:mixed;white-space:normal;shape-padding:0;shape-margin:0;inline-size:0;isolation:auto;mix-blend-mode:normal;solid-color:#000;solid-opacity:1" id="path1136" color="#000" font-style="normal" font-variant="normal" font-weight="400" font-stretch="normal" font-size="medium" font-family="sans-serif" text-decoration="none" letter-spacing="normal" word-spacing="normal" writing-mode="lr-tb" direction="ltr" dominant-baseline="auto" baseline-shift="baseline" text-anchor="start" clip-rule="nonzero" display="inline" overflow="visible" visibility="visible" opacity="1" color-interpolation="sRGB" color-interpolation-filters="linearRGB" vector-effect="none" fill="#d2e9e3" fill-opacity="1" fill-rule="nonzero" stroke="none" stroke-width=".529" stroke-linecap="round" stroke-linejoin="round" stroke-miterlimit="4" stroke-dasharray="none" stroke-dashoffset="0" stroke-opacity="1" color-rendering="auto" image-rendering="auto" shape-rendering="auto" text-rendering="auto" stop-color="#000" stop-opacity="1"/></g></svg>