<svg width="120" height="120" viewBox="0 0 120 120" fill="none" xmlns="http://www.w3.org/2000/svg">
<path d="M40.0156 120C45.32 120 50.407 117.893 54.1578 114.142C57.9085 110.391 60.0156 105.304 60.0156 100V80H40.0156C34.7113 80 29.6242 82.1071 25.8735 85.8579C22.1228 89.6086 20.0156 94.6957 20.0156 100C20.0156 105.304 22.1228 110.391 25.8735 114.142C29.6242 117.893 34.7113 120 40.0156 120V120Z" fill="#0ACF83"/>
<path d="M20.0156 60C20.0156 54.6957 22.1228 49.6086 25.8735 45.8579C29.6242 42.1071 34.7113 40 40.0156 40H60.0156V80H40.0156C34.7113 80 29.6242 77.8929 25.8735 74.1421C22.1228 70.3914 20.0156 65.3043 20.0156 60V60Z" fill="#A259FF"/>
<path d="M20.0156 20C20.0156 14.6984 22.1206 9.61366 25.868 5.86339C29.6153 2.11311 34.6984 0.00414189 40 0L60 0V40H40.0156C34.7113 40 29.6242 37.8929 25.8735 34.1421C22.1228 30.3914 20.0156 25.3043 20.0156 20V20Z" fill="#F24E1E"/>
<path d="M60.0156 0H80.0156C85.32 0 90.407 2.10714 94.1578 5.85786C97.9085 9.60859 100.016 14.6957 100.016 20C100.016 25.3043 97.9085 30.3914 94.1578 34.1421C90.407 37.8929 85.32 40 80.0156 40H60.0156V0Z" fill="#FF7262"/>
<path d="M100.016 60C100.016 65.3043 97.9085 70.3914 94.1578 74.1421C90.407 77.8929 85.32 80 80.0156 80C74.7113 80 69.6242 77.8929 65.8735 74.1421C62.1228 70.3914 60.0156 65.3043 60.0156 60C60.0156 54.6957 62.1228 49.6086 65.8735 45.8579C69.6242 42.1071 74.7113 40 80.0156 40C85.32 40 90.407 42.1071 94.1578 45.8579C97.9085 49.6086 100.016 54.6957 100.016 60V60Z" fill="#1ABCFE"/>
</svg>
