<?xml version="1.0" encoding="UTF-8" standalone="no"?><!DOCTYPE svg  PUBLIC '-//W3C//DTD SVG 1.1//EN'  'http://www.w3.org/Graphics/SVG/1.1/DTD/svg11.dtd'><svg viewBox="0 0 512 512" xmlns="http://www.w3.org/2000/svg" xmlns:xlink="http://www.w3.org/1999/xlink"><style>:root>svg{display:none}:root>svg:target{display:block}</style><svg viewBox="0 0 22.578 22.578" id="adaptation" xmlns="http://www.w3.org/2000/svg"><path d="M17.371 277.929c-.017-1.31-1.096-2.353-2.405-2.353H7.612a2.394 2.394 0 0 0-2.404 2.336c-.006.364-.002.728-.002 1.091a4.473 4.473 0 0 0-4.236 4.46 4.473 4.473 0 0 0 4.236 4.459v5.542c0 1.326 1.086 2.382 2.406 2.382H20.232c.756 0 1.376-.62 1.376-1.377v-4.128c0-.756-.62-1.376-1.376-1.376h-2.86c-.008-3.679.014-7.358 0-11.036zm-9.759-1.665h7.354c.84 0 1.526.57 1.684 1.351H5.928c.158-.781.845-1.35 1.684-1.35zm2.989.346a.344.344 0 0 0 0 .688h1.376a.344.344 0 0 0 0-.688zm-4.707 1.693h10.79v10.662h-4.019c-.755 0-1.376.62-1.376 1.376v2.09H5.894v-4.52a4.478 4.478 0 0 0 4.02-4.448 4.477 4.477 0 0 0-4.02-4.448zm-.452 1.377a3.777 3.777 0 0 1 3.782 3.783 3.778 3.778 0 0 1-3.782 3.783 3.778 3.778 0 0 1-3.783-3.783 3.777 3.777 0 0 1 3.783-3.783zm5.159 1.376a.344.344 0 0 0 0 .688h5.16a.344.344 0 0 0 0-.688zm-6.246.937-1.186 1.186a.344.344 0 0 0 0 .485l1.272 1.27c.134.133.351.133.485 0a.344.344 0 0 0 0-.486l-1.028-1.026.944-.944a.344.344 0 0 0 0-.485.36.36 0 0 0-.487 0zm1.584 0a.344.344 0 0 0 0 .485l.945.944-1.029 1.026a.344.344 0 0 0 .488.485l1.27-1.27a.344.344 0 0 0 0-.484l-1.187-1.186c-.196-.149-.334-.126-.487 0zm5.005.44a.344.344 0 0 0 0 .687h.688a.344.344 0 1 0 0-.688zm2.064 0a.344.344 0 0 0 0 .687h1.033a.344.344 0 0 0 0-.688zm2.41 0a.344.344 0 1 0 0 .687h.342a.344.344 0 0 0 0-.688zm-4.474 1.372a.344.344 0 1 0 .002.688.344.344 0 0 0-.002-.688zm1.332 0a.344.344 0 0 0 0 .689h.732a.344.344 0 1 0 0-.689zm2.108 0a.344.344 0 1 0 .003.688.344.344 0 0 0-.003-.688zm1.376 0a.344.344 0 0 0 0 .689.344.344 0 0 0 0-.689zm-5.159 1.377a.344.344 0 0 0 0 .688h1.03a.344.344 0 1 0 0-.688zm2.237 0a.344.344 0 1 0 0 .688h2.922a.344.344 0 0 0 0-.688h-2.922zm-.173 4.471h7.567c.384 0 .688.304.688.688v4.128a.683.683 0 0 1-.688.689h-7.567a.683.683 0 0 1-.688-.689v-4.128c0-.384.304-.688.688-.688zm4.518.792-2.065 3.576a.344.344 0 0 0 .597.345l2.064-3.575a.344.344 0 0 0-.127-.47c-.175-.107-.37-.039-.47.124zm-3.233.49-1.186 1.186a.344.344 0 0 0 0 .485l1.273 1.272a.344.344 0 0 0 .485-.488l-1.026-1.025c.318-.319.458-.461.942-.945a.344.344 0 0 0 0-.485c-.148-.137-.346-.12-.488 0zm4.51 0a.344.344 0 0 0 0 .485l.941.942-1.028 1.028a.344.344 0 0 0 0 .488.344.344 0 0 0 .488 0l1.27-1.272a.344.344 0 0 0 0-.485l-1.186-1.186c-.197-.148-.34-.12-.485 0zm-12.566 2.184h5.395v.688H10.6a.344.344 0 0 0 0 .688h.69c.005.242.076.466.191.663h-3.87c-.959 0-1.718-.74-1.718-1.694zm2.643.688a.344.344 0 0 0 0 .688h.687a.344.344 0 1 0 0-.688z" style="color:#000;font-style:normal;font-variant:normal;font-weight:400;font-stretch:normal;font-size:medium;line-height:normal;font-family:sans-serif;font-variant-ligatures:normal;font-variant-position:normal;font-variant-caps:normal;font-variant-numeric:normal;font-variant-alternates:normal;font-variant-east-asian:normal;font-feature-settings:normal;font-variation-settings:normal;text-indent:0;text-align:start;text-decoration:none;text-decoration-line:none;text-decoration-style:solid;text-decoration-color:#000;letter-spacing:normal;word-spacing:normal;text-transform:none;writing-mode:lr-tb;direction:ltr;text-orientation:mixed;dominant-baseline:auto;baseline-shift:baseline;text-anchor:start;white-space:normal;shape-padding:0;shape-margin:0;inline-size:0;clip-rule:nonzero;display:inline;overflow:visible;visibility:visible;opacity:1;isolation:auto;mix-blend-mode:normal;color-interpolation:sRGB;color-interpolation-filters:linearRGB;solid-color:#000;solid-opacity:1;vector-effect:none;fill:#d2e9e3;fill-opacity:1;fill-rule:nonzero;stroke:none;stroke-width:.687917;stroke-linecap:round;stroke-linejoin:round;stroke-miterlimit:4;stroke-dasharray:none;stroke-dashoffset:0;stroke-opacity:1;color-rendering:auto;image-rendering:auto;shape-rendering:auto;text-rendering:auto;enable-background:accumulate;stop-color:#000;stop-opacity:1" transform="translate(0 -274.422)"/></svg><svg fill="none" viewBox="0 0 120 120" id="bam-icon" xmlns="http://www.w3.org/2000/svg"><path d="M71 95.598h49V109.5H71V95.598ZM55.058 39.5H28v-29H0v86h55.058c9.085 0 16.45-7.784 16.45-16.869V55.59c0-9.086-7.365-16.09-16.45-16.09Z" fill="#2E98FB"/></svg><svg fill="none" viewBox="0 0 120 120" id="css-icon" xmlns="http://www.w3.org/2000/svg"><path d="M22.133 102.004 13.71 7.5h92.58l-8.434 94.489L59.944 112.5l-37.812-10.496Z" fill="#1572B6"/><path d="m60 104.468 30.638-8.494 7.207-80.745H60v89.239Z" fill="#33A9DC"/><path d="M60 49.466h15.338l1.057-11.869H60v-11.59h29.063l-.278 3.108-2.846 31.942H60v-11.59Z" fill="#fff"/><path d="m60.071 79.567-.052.016-12.908-3.488-.825-9.244H34.65l1.624 18.199 23.741 6.593.056-.016v-12.06Z" fill="#EBEBEB"/><path d="m74.351 60.566-1.395 15.522-12.926 3.487v12.06l23.76-6.585.176-1.957 2.014-22.527H74.351Z" fill="#fff"/><path d="M60.041 26.006v11.591H32.044l-.233-2.606-.529-5.876-.277-3.109h29.036ZM60 49.466v11.592H47.254l-.233-2.607-.525-5.876-.277-3.109H60Z" fill="#EBEBEB"/></svg><svg fill="none" viewBox="0 0 120 120" id="figma-icon" xmlns="http://www.w3.org/2000/svg"><path d="M40.016 120a20 20 0 0 0 20-20V80h-20a20 20 0 1 0 0 40Z" fill="#0ACF83"/><path d="M20.016 60a20 20 0 0 1 20-20h20v40h-20a20 20 0 0 1-20-20Z" fill="#A259FF"/><path d="M20.016 20A20 20 0 0 1 40 0h20v40H40.016a20 20 0 0 1-20-20Z" fill="#F24E1E"/><path d="M60.016 0h20a20 20 0 0 1 0 40h-20V0Z" fill="#FF7262"/><path d="M100.016 60a20 20 0 1 1-40-.001 20 20 0 0 1 40 .001Z" fill="#1ABCFE"/></svg><svg viewBox="0 0 22.578 22.578" id="fixed" xmlns="http://www.w3.org/2000/svg"><path d="M1.916 278.266a.892.892 0 0 0-.697.363 1.247 1.247 0 0 0-.249.766v8.48c0 .289.088.557.25.766a.89.89 0 0 0 .696.362h6.003l-.185 1.29h-1.67c-.463 0-.896.243-1.135.64l-.264.44c-.252.419.07.985.56.985h8.96c.489 0 .808-.566.556-.985l-.263-.44a1.322 1.322 0 0 0-1.134-.64h-1.67l-.185-1.29h3.11a.334.334 0 1 0 0-.668H1.916c-.054 0-.107-.025-.168-.104-.12-.205-.11-.353-.11-.584h12.96a.334.334 0 1 0 0-.667H1.639v-7.585c0-.263.157-.455.278-.461H17.49c.053 0 .11.022.17.1.06.08.11.21.11.36v2.915a.334.334 0 0 0 .669 0v-2.914c0-.29-.088-.557-.25-.766a.898.898 0 0 0-.7-.363zm1.808 1.192a.334.334 0 0 0-.056.468.85.85 0 0 1 .182.53c0 .479-.381.86-.86.86a.85.85 0 0 1-.522-.177.334.334 0 1 0-.407.53c.257.197.581.315.93.315.839 0 1.526-.688 1.526-1.528 0-.353-.12-.682-.324-.94-.219-.179-.338-.149-.469-.058zm1.863 2.28-.299-.299c-.02-.02-.01-.02-.004-.034.006-.015-.001-.017.027-.017h.424a.579.579 0 0 0 .574-.574v-.712a.579.579 0 0 0-.574-.574h-.424a.334.334 0 0 0 0 .667h.33v.525h-.33a.708.708 0 0 0-.646.431.709.709 0 0 0 .154.762l.23.231-.371.372-.232-.232a.709.709 0 0 0-.761-.152.707.707 0 0 0-.43.645v.328h-.526v-.328a.334.334 0 1 0-.668 0v.422c0 .313.261.573.575.573h.711c.313 0 .575-.26.575-.573v-.422c0-.028.005-.023.02-.03.014-.005.011-.012.031.009l.298.298a.581.581 0 0 0 .813 0l.506-.502a.581.581 0 0 0 0-.814h-.002zm3.762-2.058a.58.58 0 0 0-.575.574v.421c0 .028-.005.024-.02.03-.014.006-.014.012-.034-.008l-.298-.298a.577.577 0 0 0-.81 0l-.505.503a.58.58 0 0 0 0 .813l.298.298c.02.02.013.02.007.035-.006.014.001.02-.027.02h-.423a.579.579 0 0 0-.575.573v.712c0 .314.261.574.575.574h.423c.028 0 .021.003.027.018.006.014.013.015-.007.034l-.298.298a.58.58 0 0 0 0 .813l.505.503a.577.577 0 0 0 .81 0l.298-.298c.02-.02.02-.014.035-.008.015.006.02 0 .02.029v.421a.58.58 0 0 0 .574.574h.712a.58.58 0 0 0 .574-.574v-.421c0-.028.005-.023.02-.03.014-.005.012-.012.031.009l.299.298a.58.58 0 0 0 .813 0l.502-.503a.58.58 0 0 0 0-.813l-.298-.298c-.02-.02-.01-.02-.005-.034.006-.015 0-.018.027-.018h.424c.313 0 .574-.26.574-.574v-.712a.578.578 0 0 0-.574-.574h-.424c-.027 0-.02-.005-.027-.02-.006-.014-.014-.014.005-.034l.298-.298a.58.58 0 0 0 0-.813l-.502-.503a.58.58 0 0 0-.813 0l-.299.298c-.02.02-.017.014-.032.008-.014-.006-.02-.003-.02-.03v-.42a.58.58 0 0 0-.573-.575zm.094.668h.524v.327c0 .297.192.547.431.646.24.1.552.06.762-.15l.234-.232.37.37-.232.234a.704.704 0 0 0-.153.759c.099.239.349.43.645.43h.33v.528h-.33a.709.709 0 0 0-.645.431.708.708 0 0 0 .153.761l.231.232-.372.372-.231-.232a.708.708 0 0 0-.762-.152.707.707 0 0 0-.43.645v.33h-.525v-.33a.708.708 0 0 0-.432-.645.708.708 0 0 0-.761.152l-.232.232-.372-.372.232-.232a.706.706 0 0 0 .15-.76.704.704 0 0 0-.643-.432h-.33v-.527h.33a.704.704 0 0 0 .643-.431c.1-.24.06-.55-.15-.759l-.234-.234.374-.37.232.232c.21.21.522.25.761.15a.709.709 0 0 0 .432-.646zm.26 1.12a1.53 1.53 0 0 0-1.524 1.529c0 .839.685 1.527 1.524 1.527.84 0 1.528-.688 1.528-1.527 0-.84-.688-1.528-1.528-1.528zm0 .669c.479 0 .86.381.86.86 0 .478-.381.86-.86.86a.855.855 0 0 1-.86-.86c0-.479.382-.86.86-.86zm6.899 1.172c-.55 0-1 .454-1 1.003v7.844c0 .55.45 1 1 1h4.006c.549 0 1-.45 1-1v-7.844c0-.549-.451-1.003-1-1.003zm0 .668h4.006c.188 0 .332.147.332.335v6.006h-4.673v-6.006c0-.188.146-.335.335-.335zm1.845 2.421-.333 1.336a.334.334 0 0 0 .242.404.334.334 0 0 0 .404-.242l.335-1.335a.334.334 0 0 0-.244-.404c-.203-.044-.337.042-.404.241zm-1.247.18-.335.333a.334.334 0 0 0 0 .473l.335.332c.13.13.34.13.47 0 .13-.13.13-.34 0-.47l-.098-.099.099-.098c.129-.13.129-.34 0-.47-.191-.144-.345-.117-.471 0zm2.335 0c-.129.13-.129.34 0 .471l.1.098-.1.099a.334.334 0 0 0 .474.47l.332-.332a.334.334 0 0 0 0-.473l-.332-.333c-.191-.144-.347-.116-.474 0zm-10.942 2.425h2.222l.184 1.29H8.407Zm-2.528 1.958h7.28c.23 0 .443.12.561.318l.247.412H5.257l.246-.412a.654.654 0 0 1 .562-.318zm10.202.025h4.673v1.17a.327.327 0 0 1-.332.332h-4.006a.329.329 0 0 1-.335-.332zm2.336.334a.334.334 0 1 0 .001.668.334.334 0 0 0-.001-.668z" style="color:#000;font-style:normal;font-variant:normal;font-weight:400;font-stretch:normal;font-size:medium;line-height:normal;font-family:sans-serif;font-variant-ligatures:normal;font-variant-position:normal;font-variant-caps:normal;font-variant-numeric:normal;font-variant-alternates:normal;font-variant-east-asian:normal;font-feature-settings:normal;font-variation-settings:normal;text-indent:0;text-align:start;text-decoration:none;text-decoration-line:none;text-decoration-style:solid;text-decoration-color:#000;letter-spacing:normal;word-spacing:normal;text-transform:none;writing-mode:lr-tb;direction:ltr;text-orientation:mixed;dominant-baseline:auto;baseline-shift:baseline;text-anchor:start;white-space:normal;shape-padding:0;shape-margin:0;inline-size:0;clip-rule:nonzero;display:inline;overflow:visible;visibility:visible;opacity:1;isolation:auto;mix-blend-mode:normal;color-interpolation:sRGB;color-interpolation-filters:linearRGB;solid-color:#000;solid-opacity:1;vector-effect:none;fill:#d2e9e3;fill-opacity:1;fill-rule:nonzero;stroke:none;stroke-width:.667471;stroke-linecap:round;stroke-linejoin:round;stroke-miterlimit:4;stroke-dasharray:none;stroke-dashoffset:0;stroke-opacity:1;color-rendering:auto;image-rendering:auto;shape-rendering:auto;text-rendering:auto;enable-background:accumulate;stop-color:#000;stop-opacity:1" transform="translate(0 -274.422)"/></svg><svg viewBox="0 0 22.578 22.578" id="flexbox" xmlns="http://www.w3.org/2000/svg"><path d="M8.894 276.05c-.695 0-1.265.572-1.265 1.267v2.728H2.31c-.734 0-1.339.602-1.339 1.337v12.654c0 .734.605 1.337 1.34 1.337h11.305c.734 0 1.337-.603 1.337-1.337v-2.658h5.39a1.27 1.27 0 0 0 1.266-1.266v-11.713a.33.33 0 0 0 0-.017v-1.065c0-.695-.57-1.267-1.266-1.267zm0 .666h4.06v.334a.991.991 0 0 1-.997.998H8.295v-.73c0-.336.264-.602.6-.602zm4.726 0h6.722c.336 0 .6.266.6.601v.73h-7.664c.211-.279.342-.622.342-.997zm-4.327.334a.333.333 0 1 0-.003.665.333.333 0 0 0 .003-.665zm1.331 0a.333.333 0 1 0-.002.665.333.333 0 0 0 .002-.665zm1.332 0a.333.333 0 1 0-.003.665.333.333 0 0 0 .003-.665zm-3.661 1.663H20.942v11.399c0 .335-.264.6-.6.6H8.894a.594.594 0 0 1-.599-.6zm1.664.667c-.674.11-.875.396-.998 1v4.658c.087.646.401.875.998.998h3.995c.673-.108.877-.394.998-.998v-4.659c-.09-.645-.401-.874-.998-1zm.03.665h3.935l-1.967 2.168zm5.96 0a.333.333 0 0 0 0 .666h3.996a.333.333 0 1 0 0-.666zm-6.322.594 1.879 2.07-1.879 2.07zm4.658 0v4.14l-1.879-2.07zm-11.976.072h3.988v.332c0 .555-.442 1-.997 1H1.636v-.661c0-.375.299-.67.673-.67zm4.655 0h.665v1.332H6.62a1.65 1.65 0 0 0 .345-1zm-4.327.332a.333.333 0 1 0-.003.665.333.333 0 0 0 .003-.665zm1.331 0a.333.333 0 1 0-.002.665.333.333 0 0 0 .002-.665zm1.332 0a.333.333 0 1 0-.003.665.333.333 0 0 0 .003-.665zm10.993.273a.618.618 0 0 0-.615.611v2.165c0 .335.28.615.615.615h3.293c.334 0 .611-.28.611-.615v-2.165a.616.616 0 0 0-.611-.611zm.052.665h3.187v2.06h-3.187Zm-14.71.728H7.63v7.403c0 .695.57 1.266 1.265 1.266h5.391v2.658c0 .375-.295.67-.67.67H2.309a.668.668 0 0 1-.673-.67zm10.32.495 1.97 2.168H9.987Zm-8.955.17c-.36 0-.66.3-.66.661v2.34c0 .36.3.66.66.66h3.266c.361 0 .66-.3.66-.66v-2.34c0-.361-.299-.661-.66-.661zm.677.666h1.912l-.956.743zm-.672.32c.003.004.005.005.008.007l1.078.838-1.078.838-.008.006zm2.17.845 1.082-.841v1.682zm10.774.167a.333.333 0 0 0-.332.332c.001.183.15.33.332.332h3.996a.333.333 0 0 0 .334-.332.333.333 0 0 0-.334-.332zm-11.316.254.956.743H3.677Zm15.07 1.076H9.536c-.398-.003-.604.194-.575.575v2.179c-.013.398.224.566.575.575h10.167c.398 0 .572-.199.576-.575v-2.18c-.002-.325-.2-.58-.576-.574zm-7.846.666h5.523l-2.761.658zm7.756.152v1.695l-3.559-.848zm-9.986.001 3.556.847-3.556.846zm-5.993.18a.333.333 0 0 0 0 .666H5.63a.333.333 0 0 0 0-.665zm10.984 1.008 2.76.656h-5.519zm-11.159.324a.575.575 0 0 0-.57.57v1.185c0 .311.259.57.57.57h2.42c.312 0 .571-.259.571-.57v-1.185a.575.575 0 0 0-.57-.57zm.096.667h2.229v.992H3.555zm-.916 2.328a.333.333 0 1 0 0 .665h10.649a.333.333 0 0 0 0-.665zm0 1.331a.333.333 0 1 0 0 .666h10.649a.333.333 0 0 0 0-.666z" style="color:#000;font-style:normal;font-variant:normal;font-weight:400;font-stretch:normal;font-size:medium;line-height:normal;font-family:sans-serif;font-variant-ligatures:normal;font-variant-position:normal;font-variant-caps:normal;font-variant-numeric:normal;font-variant-alternates:normal;font-variant-east-asian:normal;font-feature-settings:normal;font-variation-settings:normal;text-indent:0;text-align:start;text-decoration:none;text-decoration-line:none;text-decoration-style:solid;text-decoration-color:#000;letter-spacing:normal;word-spacing:normal;text-transform:none;writing-mode:lr-tb;direction:ltr;text-orientation:mixed;dominant-baseline:auto;baseline-shift:baseline;text-anchor:start;white-space:normal;shape-padding:0;shape-margin:0;inline-size:0;clip-rule:nonzero;display:inline;overflow:visible;visibility:visible;opacity:1;isolation:auto;mix-blend-mode:normal;color-interpolation:sRGB;color-interpolation-filters:linearRGB;solid-color:#000;solid-opacity:1;vector-effect:none;fill:#d2e9e3;fill-opacity:1;fill-rule:nonzero;stroke:none;stroke-width:.665723;stroke-linecap:round;stroke-linejoin:round;stroke-miterlimit:4;stroke-dasharray:none;stroke-dashoffset:0;stroke-opacity:1;color-rendering:auto;image-rendering:auto;shape-rendering:auto;text-rendering:auto;enable-background:accumulate;stop-color:#000;stop-opacity:1" transform="translate(0 -274.422)"/></svg><svg fill="none" viewBox="0 0 120 120" id="gulp-icon" xmlns="http://www.w3.org/2000/svg"><path d="M59.782 90.356c-4.44.02-8.866-.475-13.192-1.474a25.356 25.356 0 0 1-3.773-1.166l3.05 5.209 1.192 16.275c0 1.826 5.797 3.304 12.945 3.304 7.147 0 12.945-1.478 12.945-3.304l.945-16.451 2.883-5.048c-1.235.494-2.508.89-3.806 1.181a57.57 57.57 0 0 1-13.189 1.474ZM76.876 37.4A128.558 128.558 0 0 1 60 38.377c-5.64.045-11.278-.282-16.875-.978a31.603 31.603 0 0 1-5.25-1.095 7.615 7.615 0 0 1-1.294-.537L39.375 61.5a25.176 25.176 0 0 1 1.56-3.979c.42-.844.891-1.661 1.41-2.449.49-.744 1.03-1.454 1.62-2.122a12.928 12.928 0 0 1 1.762-1.669 8.392 8.392 0 0 1 1.827-1.091 4.631 4.631 0 0 1 1.826-.375 3.941 3.941 0 0 1 2.017.57 5.78 5.78 0 0 1 1.823 1.845c.123.173.208.37.248.578.033.181.05.366.052.55.02.347-.084.688-.293.965a.873.873 0 0 1-.693.352.889.889 0 0 1-.683-.375 7.334 7.334 0 0 1-.705-1.106 2.67 2.67 0 0 0-.806-.942 1.699 1.699 0 0 0-.956-.292 2.955 2.955 0 0 0-1.714.664 9.939 9.939 0 0 0-1.804 1.755 19.227 19.227 0 0 0-1.713 2.497 26.026 26.026 0 0 0-1.448 2.877c-.406.94-.74 1.91-1.001 2.902-.233.837-.359 1.7-.375 2.569 0 .26.018.521.052.78.03.25.096.495.195.727.083.205.211.389.375.537a.926.926 0 0 0 .623.21c.34-.016.67-.114.964-.285a7.231 7.231 0 0 0 1.125-.75c.406-.327.794-.677 1.162-1.047a18.659 18.659 0 0 0 1.98-2.329c.221-.302.417-.621.585-.956l1.065-3.187a1.5 1.5 0 0 1 .51-.75c.188-.138.415-.214.649-.218.108 0 .216.018.319.053a.783.783 0 0 1 .487.468c.052.137.078.282.075.428a6.2 6.2 0 0 1-.116 1.222c-.075.381-.173.757-.293 1.125-.117.363-.248.727-.393 1.092a26.02 26.02 0 0 0-.424 1.147c-.068.138-.123.28-.165.428l-.293.904c-.115.352-.24.757-.375 1.215l-.412 1.368c-.143.465-.278.921-.405 1.369l-.349 1.215-.259.907c-.067.244-.112.375-.127.435a2.821 2.821 0 0 1-.184.48 3.182 3.182 0 0 1-.296.503 1.828 1.828 0 0 1-.375.375.697.697 0 0 1-.424.157.597.597 0 0 1-.532-.243 1.706 1.706 0 0 1-.166-.897v-.19a1.898 1.898 0 0 1 0-.203 4.8 4.8 0 0 1 .218-.814c.108-.397.233-.847.375-1.35.142-.503.303-1.023.48-1.56l.465-1.444c-.405.453-.844.903-1.316 1.35a14.2 14.2 0 0 1-1.455 1.208c-.47.34-.972.633-1.5.874-.456.214-.952.329-1.455.337a2.603 2.603 0 0 1-1.38-.353 1.891 1.891 0 0 1-.199-.138l1.556 16.32c.405 1.016 8.033 3.51 18.094 3.51 10.061 0 17.696-2.498 18.094-3.514l2.25-19.402-.537.495a23.456 23.456 0 0 1-1.814 1.537 8.19 8.19 0 0 1-1.665.998 4.324 4.324 0 0 1-1.74.352c-.479.032-.954-.1-1.347-.375a1.264 1.264 0 0 1-.476-1.043v-.1a.684.684 0 0 1 0-.117c.053-.334.174-.653.356-.938.227-.38.478-.748.75-1.098.29-.38.599-.765.927-1.155.327-.39.63-.759.91-1.107.25-.305.481-.624.694-.956.153-.206.248-.45.274-.705a.32.32 0 0 0-.116-.258.6.6 0 0 0-.375-.094 2.148 2.148 0 0 0-.945.236c-.346.172-.67.386-.964.638-.33.281-.64.587-.926.914a13.486 13.486 0 0 0-1.567 2.198c-.218.38-.403.726-.555 1.039l-.195.42c-.085.18-.177.384-.274.611-.098.228-.203.46-.315.698-.11.25-.212.476-.304.678l-.248.57c-.072.168-.123.283-.153.345-.03.063-.093.217-.188.462-.087.225-.188.49-.303.794l-.376.957-.356.948-.292.788c-.083.225-.139.375-.161.461-.074.228-.165.45-.27.664a2.73 2.73 0 0 1-.357.551c-.128.152-.283.28-.457.375a1.17 1.17 0 0 1-.578.143 1.126 1.126 0 0 1-.682-.195.886.886 0 0 1-.27-.75c0-.187.023-.374.067-.555.047-.191.104-.379.173-.563.067-.187.139-.375.213-.543.076-.17.14-.346.2-.51.412-.905.832-1.812 1.26-2.72.427-.907.837-1.807 1.23-2.7.082-.187.157-.374.236-.55l-.072.07c-.472.455-.973.878-1.5 1.268a7.877 7.877 0 0 1-1.466.874 3.458 3.458 0 0 1-1.414.326 1.827 1.827 0 0 1-.783-.15 1.309 1.309 0 0 1-.503-.405 1.624 1.624 0 0 1-.27-.611c0-.079-.03-.165-.041-.248-.135.105-.27.207-.405.304a8.222 8.222 0 0 1-1.399.806 3.09 3.09 0 0 1-1.237.304 1.17 1.17 0 0 1-.893-.375 1.808 1.808 0 0 1-.341-1.248c.009-.49.07-.976.184-1.452a7.422 7.422 0 0 1-.75 1.073 6.525 6.525 0 0 1-1.02.99 5.09 5.09 0 0 1-1.283.724 4.209 4.209 0 0 1-1.545.277c-.246.001-.49-.03-.727-.094a1.525 1.525 0 0 1-.612-.326 1.635 1.635 0 0 1-.423-.619 2.548 2.548 0 0 1-.162-.971s0-.146.045-.412c.067-.427.165-.848.293-1.26.165-.575.415-1.325.75-2.25.335-.926.82-2.033 1.455-3.323.117-.294.308-.552.555-.75a1.155 1.155 0 0 1 1.016-.176c.115.032.224.082.322.15.099.067.18.156.24.258a.702.702 0 0 1 .09.375c.001.088-.01.175-.033.26-.061.209-.144.411-.248.603-.125.25-.272.535-.442.855-.17.32-.348.666-.533 1.039-.187.37-.361.754-.521 1.151-.16.397-.298.803-.413 1.215a5.247 5.247 0 0 0-.194 1.2c-.002.156.039.31.116.446a.401.401 0 0 0 .375.203 2.393 2.393 0 0 0 1.421-.488c.47-.345.89-.754 1.249-1.215.386-.491.732-1.013 1.035-1.56.31-.555.567-1.064.772-1.526.148-.321.273-.652.375-.99a9.87 9.87 0 0 1 .375-.975 3 3 0 0 1 .447-.75.792.792 0 0 1 .63-.3.78.78 0 0 1 .652.311c.163.216.248.48.24.75-.014.23-.066.458-.154.672a27.272 27.272 0 0 1-.885 2.148c-.182.418-.352.84-.51 1.268-.147.413-.272.834-.375 1.26-.098.374-.15.76-.154 1.147a.437.437 0 0 0 .503.488c.308-.019.608-.102.881-.244a6.025 6.025 0 0 0 1.106-.686 8.6 8.6 0 0 0 .29-.229c.096-.417.222-.826.374-1.226.268-.705.539-1.407.814-2.104l.75-1.913 3.469-8.748c.098-.304.293-.567.555-.75.21-.138.454-.213.705-.218.235 0 .462.08.645.229a.893.893 0 0 1 .292.75c-.002.176-.035.35-.097.514a6.22 6.22 0 0 1-.248.585 164.588 164.588 0 0 0-1.53 3.566c-.302.722-.611 1.472-.926 2.25l-.926 2.284c-.3.75-.583 1.452-.848 2.107l-.682 1.729a7.614 7.614 0 0 0-.248.727 2.673 2.673 0 0 0-.12.75.664.664 0 0 0 .068.327.274.274 0 0 0 .262.124 1.5 1.5 0 0 0 .6-.17c.27-.129.532-.278.78-.445.28-.185.57-.398.87-.638.3-.24.6-.49.9-.75.298-.25.583-.508.855-.773.273-.264.515-.502.728-.712.05-.05.11-.09.176-.116.128-.375.248-.75.349-1.125.06-.163.144-.394.251-.694.11-.3.235-.594.375-.881.125-.268.281-.52.465-.75a.724.724 0 0 1 .559-.289.901.901 0 0 1 .663.21.848.848 0 0 1 .207.619 2.24 2.24 0 0 1-.023.258c0 .117-.034.244-.056.375a8.367 8.367 0 0 1-.075.375 1.725 1.725 0 0 1-.075.26c.283-.308.588-.613.915-.916.32-.297.661-.571 1.02-.821a5.887 5.887 0 0 1 1.076-.596 2.83 2.83 0 0 1 1.099-.229c.254 0 .506.037.75.109.238.067.462.175.664.319.195.14.357.32.476.528.128.23.191.488.184.75a2.924 2.924 0 0 1-.282 1.189 8.598 8.598 0 0 1-.704 1.267c-.283.425-.588.84-.915 1.242-.328.402-.635.769-.923 1.099l-.724.84a1.268 1.268 0 0 0-.303.468c-.002.1.036.195.104.266a.48.48 0 0 0 .346.102c.205-.027.402-.101.573-.218a9.742 9.742 0 0 0 1.058-.75 52.649 52.649 0 0 0 1.729-1.436c.48-.413 1.038-.904 1.672-1.463l3.03-28.05a7.593 7.593 0 0 1-1.294.537c-1.72.503-3.48.86-5.261 1.065ZM60 30.75c-13.095 0-23.708 1.462-23.708 3.27 0 1.807 10.583 3.262 23.708 3.262 13.125 0 23.707-1.462 23.707-3.27 0-1.807-10.627-3.262-23.707-3.262Zm9.465 4.226c0 .424-1.26.75-2.816.75-1.556 0-2.816-.345-2.816-.75s1.26-.75 2.816-.75c1.556 0 2.805.319 2.805.743l.011.007Z" fill="#DA4648"/><path d="M64.388 34.627a.127.127 0 0 0-.023.068c0 .274 1.016.495 2.25.495s2.25-.221 2.25-.495l2.963-12L83.61 10.256c.248-.281-.255-1.155-1.095-1.905s-1.748-1.001-2.029-.716L67.957 20.846l-3.57 13.781Z" fill="#DA4648"/></svg><svg fill="none" viewBox="0 0 120 120" id="html-icon" xmlns="http://www.w3.org/2000/svg"><path d="M22.133 102.004 13.706 7.5h92.588l-8.438 94.489L59.944 112.5l-37.812-10.496Z" fill="#E44F26"/><path d="m60 104.468 30.638-8.494 7.207-80.745H60v89.239Z" fill="#F1662A"/><path d="M60 50.276H44.663l-1.058-11.869H60v-11.59H30.937l.278 3.112 2.846 31.939H60V50.276ZM60 80.377l-.053.016-12.907-3.484-.825-9.244H34.579l1.623 18.195 23.745 6.593.053-.016v-12.06Z" fill="#EBEBEB"/><path d="M59.959 50.276v11.591H74.23L72.89 76.901l-12.93 3.488v12.06l23.763-6.589.173-1.957 2.723-30.514.285-3.113H59.959ZM59.959 26.816V38.407h27.997l.233-2.602.529-5.876.277-3.113H59.959Z" fill="#fff"/></svg><svg fill="none" viewBox="0 0 120 120" id="js-icon" xmlns="http://www.w3.org/2000/svg"><path d="M85.688 67.008H9.445V98.39h64.758l11.484-31.383Zm-43.29 18.867c0 1.523-.468 2.742-1.406 3.656-.937.914-2.133 1.36-3.61 1.36-1.57 0-2.812-.399-3.726-1.196-.914-.797-1.36-1.968-1.336-3.515l.024-.07h2.578c0 .913.21 1.57.656 2.015.445.445 1.031.656 1.805.656.703 0 1.265-.258 1.71-.797.446-.515.657-1.218.657-2.109V74.719h2.648v11.156Zm13.524 3.844c-1.031.797-2.39 1.172-4.078 1.172-1.617 0-3.024-.422-4.242-1.29-1.196-.867-1.782-2.085-1.758-3.656l.023-.07h2.555c0 .96.328 1.688.984 2.156.657.492 1.477.727 2.414.727.938 0 1.664-.188 2.203-.586.516-.399.774-.938.774-1.617 0-.657-.234-1.22-.703-1.64-.469-.423-1.313-.798-2.508-1.15-1.711-.468-3.047-1.1-3.961-1.874-.938-.774-1.406-1.782-1.406-3.024 0-1.289.515-2.344 1.523-3.187 1.031-.844 2.344-1.243 3.938-1.243 1.734 0 3.093.47 4.125 1.383 1.03.914 1.523 2.063 1.5 3.422l-.024.07h-2.554c0-.843-.282-1.5-.844-2.015-.563-.492-1.313-.75-2.227-.75-.89 0-1.593.21-2.086.633-.492.422-.726.96-.726 1.64 0 .61.258 1.125.797 1.524.539.398 1.406.773 2.648 1.125 1.664.469 2.953 1.101 3.82 1.922.868.796 1.313 1.828 1.313 3.093.047 1.383-.469 2.438-1.5 3.235Z" fill="#F47822"/><path d="M82.71 1.406H25.173a3.13 3.13 0 0 0-3.117 3.117v60.188h6.234V7.64h54.422V29.25h21.609v83.109H28.29v-11.671h-6.235v14.789a3.13 3.13 0 0 0 3.117 3.117h82.265a3.131 3.131 0 0 0 3.118-3.117V29.25L82.711 1.406Z" fill="#F47822"/><path d="M96 40.172H36.61v4.594H96v-4.594ZM86.602 49.102H36.609v4.593h49.993v-4.593Z" fill="#F47822"/></svg><svg viewBox="0 0 200 20" fill="none" id="logo" xmlns="http://www.w3.org/2000/svg"><path d="m10.537 15-1.035-3.398H4.297L3.262 15H0L5.04.664h3.7L13.8 15h-3.262ZM8.78 9.062l-1.035-3.32a37.922 37.922 0 0 0-.264-.85 94.97 94.97 0 0 0-.322-1.064c-.104-.364-.189-.68-.254-.947-.065.267-.156.599-.273.996a97.05 97.05 0 0 1-.547 1.865l-1.025 3.32h3.72Zm13.75-4.98h3.282l-4.327 5.234L26.191 15h-3.378L18.35 9.463V15H15.37V4.082h2.979v5.303l4.18-5.303Zm8.106 0v4.316c0 .222-.01.502-.03.84-.013.332-.032.67-.058 1.016a48.68 48.68 0 0 1-.078.928c-.026.273-.046.459-.059.556l5.04-7.656h3.583V15h-2.88v-4.355c0-.358.012-.752.038-1.182.026-.436.056-.846.088-1.23.033-.385.056-.674.069-.87L31.328 15h-3.574V4.082h2.88Zm25.293 0V15h-2.783V9.639c0-.528.01-1.045.029-1.553.02-.508.049-.977.088-1.406h-.059L50.185 15H47.95l-3.066-8.34h-.078c.052.436.088.905.107 1.406.02.502.03 1.052.03 1.65V15h-2.774V4.082h4.219l2.715 7.402 2.763-7.402h4.063Zm13.056 5.44c0 .91-.123 1.718-.37 2.421a4.772 4.772 0 0 1-1.065 1.787 4.476 4.476 0 0 1-1.68 1.094c-.65.248-1.387.371-2.207.371a5.866 5.866 0 0 1-2.119-.37 4.711 4.711 0 0 1-1.67-1.095 5.1 5.1 0 0 1-1.094-1.787c-.254-.703-.38-1.51-.38-2.422 0-1.21.214-2.236.644-3.076.43-.84 1.042-1.478 1.836-1.914.794-.436 1.741-.654 2.842-.654 1.022 0 1.927.218 2.715.654.794.436 1.416 1.074 1.865 1.914.456.84.683 1.866.683 3.076Zm-7.548 0c0 .716.078 1.318.234 1.806.156.488.4.856.732 1.104.332.247.765.37 1.3.37.526 0 .953-.123 1.279-.37.332-.248.572-.616.722-1.104.156-.488.234-1.09.234-1.807 0-.722-.078-1.321-.234-1.796-.15-.482-.39-.843-.722-1.084-.333-.241-.765-.362-1.3-.362-.787 0-1.36.27-1.718.81-.352.541-.528 1.352-.528 2.432Zm19.687-2.579c0 .586-.186 1.088-.557 1.504-.364.41-.904.674-1.62.791v.078c.755.092 1.363.355 1.826.791.462.43.693.974.693 1.631 0 .625-.163 1.185-.488 1.68-.326.488-.844.876-1.553 1.162-.71.28-1.638.42-2.783.42h-5.196V4.082h5.196c.852 0 1.617.091 2.294.273.678.176 1.212.472 1.602.89.39.416.586.982.586 1.698Zm-2.744 4.639c0-.43-.17-.739-.508-.928-.332-.195-.827-.293-1.484-.293h-1.963v2.579h2.021c.56 0 1.022-.105 1.387-.313.365-.208.547-.557.547-1.045Zm-.273-4.404c0-.339-.134-.59-.4-.752-.268-.163-.662-.244-1.183-.244h-2.1V8.34h1.759c.631 0 1.11-.091 1.435-.274.326-.182.489-.478.489-.888ZM98.193 15l-1.035-3.398h-5.205L90.918 15h-3.262L92.696.664h3.7L101.456 15h-3.262Zm-1.757-5.938L95.4 5.742a37.841 37.841 0 0 0-.263-.85 95.165 95.165 0 0 0-.323-1.064c-.104-.364-.188-.68-.253-.947a22.31 22.31 0 0 1-.274.996 96.83 96.83 0 0 1-.547 1.865l-1.025 3.32h3.72ZM112.803 15h-2.979V6.318h-2.744c-.137 1.602-.299 2.966-.488 4.092-.189 1.127-.43 2.044-.723 2.754-.293.703-.657 1.218-1.094 1.543-.436.326-.973.488-1.611.488a5.2 5.2 0 0 1-.947-.078 3.27 3.27 0 0 1-.752-.234V12.5c.143.059.296.107.459.146.163.033.329.05.498.05a.8.8 0 0 0 .537-.225c.169-.15.329-.407.479-.772.149-.37.289-.882.419-1.533.137-.651.261-1.475.372-2.47.11-.997.214-2.201.312-3.614h8.262V15Zm7.636-11.123c1.01 0 1.879.195 2.608.586a4.003 4.003 0 0 1 1.689 1.68c.397.735.596 1.634.596 2.695v1.445h-7.041c.033.84.283 1.5.752 1.983.475.475 1.133.713 1.973.713.696 0 1.334-.072 1.914-.215a9.754 9.754 0 0 0 1.787-.645v2.305a7.107 7.107 0 0 1-1.699.586c-.586.123-1.299.185-2.139.185-1.094 0-2.064-.202-2.91-.605a4.521 4.521 0 0 1-1.983-1.846c-.475-.827-.713-1.868-.713-3.125 0-1.276.215-2.337.645-3.183.436-.853 1.042-1.491 1.816-1.915.775-.43 1.677-.644 2.705-.644Zm.02 2.12c-.579 0-1.061.185-1.445.556-.378.37-.596.954-.655 1.748h4.18a2.938 2.938 0 0 0-.244-1.182 1.837 1.837 0 0 0-.684-.82c-.299-.202-.683-.303-1.152-.303Zm14.453-1.915h3.281l-4.326 5.234L138.574 15h-3.379l-4.463-5.537V15h-2.978V4.082h2.978v5.303l4.18-5.303Zm9.658 11.113c-1.08 0-2.002-.195-2.763-.586-.762-.397-1.342-1.009-1.739-1.836-.397-.826-.595-1.884-.595-3.173 0-1.335.224-2.422.673-3.262.456-.846 1.084-1.468 1.885-1.865.808-.397 1.742-.596 2.803-.596.755 0 1.406.075 1.953.225a7.592 7.592 0 0 1 1.445.517l-.878 2.305a13.902 13.902 0 0 0-1.309-.46 4.115 4.115 0 0 0-1.211-.185c-.521 0-.954.124-1.299.371-.345.241-.602.606-.771 1.094-.17.488-.254 1.1-.254 1.836 0 .723.091 1.322.273 1.797.182.475.446.83.791 1.064.345.228.765.342 1.26.342.618 0 1.169-.081 1.65-.244a6.46 6.46 0 0 0 1.407-.703v2.549a4.894 4.894 0 0 1-1.436.615c-.495.13-1.123.195-1.885.195Zm10.332-11.338c1.465 0 2.588.32 3.369.957.782.638 1.172 1.609 1.172 2.91V15h-2.08l-.576-1.484h-.078a5.57 5.57 0 0 1-.957.957c-.326.247-.7.43-1.123.546-.423.118-.938.176-1.543.176-.645 0-1.224-.123-1.738-.37a2.762 2.762 0 0 1-1.202-1.134c-.292-.514-.439-1.165-.439-1.953 0-1.159.407-2.011 1.221-2.558.814-.554 2.034-.86 3.662-.918l1.894-.059v-.478c0-.573-.149-.993-.449-1.26-.299-.267-.716-.4-1.25-.4-.527 0-1.045.074-1.553.224-.507.15-1.015.339-1.523.566l-.986-2.011a8.461 8.461 0 0 1 1.943-.723 9.429 9.429 0 0 1 2.236-.264Zm1.582 6.084-1.152.04c-.964.026-1.634.198-2.012.517-.371.32-.556.739-.556 1.26 0 .456.133.781.4.976.267.19.615.284 1.045.284.638 0 1.175-.19 1.611-.567.443-.377.664-.915.664-1.611V9.94Zm9.014-5.859v4.2h4.16v-4.2h2.979V15h-2.979v-4.502h-4.16V15h-2.978V4.082h2.978Zm20.078 0v8.74h1.602v6.094h-2.676V15h-7.344v3.916h-2.676v-6.094h.918c.482-.735.886-1.575 1.211-2.52.332-.943.599-1.943.801-2.997a29.56 29.56 0 0 0 .449-3.223h7.715Zm-2.978 2.236h-2.237a28.166 28.166 0 0 1-.4 2.344 18.927 18.927 0 0 1-.586 2.168c-.234.69-.521 1.354-.859 1.992h4.082V6.318Zm12.519-2.441c1.231 0 2.223.478 2.979 1.436.761.957 1.142 2.36 1.142 4.208 0 1.237-.179 2.28-.537 3.125-.358.84-.853 1.475-1.484 1.905-.632.43-1.358.644-2.178.644-.527 0-.98-.065-1.357-.195-.378-.137-.7-.31-.967-.518a4.633 4.633 0 0 1-.694-.683h-.156a8.46 8.46 0 0 1 .156 1.602v4.404h-2.978V4.082h2.422l.42 1.416h.136c.196-.293.433-.563.713-.81.28-.248.616-.443 1.006-.586.397-.15.856-.225 1.377-.225Zm-.957 2.383c-.521 0-.934.107-1.24.322-.306.215-.531.537-.674.967-.137.43-.211.973-.225 1.63v.323c0 .703.066 1.299.196 1.787.137.488.361.86.674 1.113.319.254.755.381 1.308.381.456 0 .83-.127 1.123-.38.293-.255.511-.626.655-1.114.149-.495.224-1.097.224-1.807 0-1.067-.166-1.871-.498-2.412-.332-.54-.846-.81-1.543-.81Z" fill="#D2E9E3"/></svg><svg id="mail" style="enable-background:new 0 0 128 128" version="1.1" viewBox="0 0 128 128" xml:space="preserve" fill="#FFF" xmlns="http://www.w3.org/2000/svg"><style>.kst1{fill:#fff}</style><circle cx="64" cy="64" r="64" style="fill:#267cb5"/><path class="kst1" d="m64 72.4 38.2-32.7c-.6-.4-1.4-.7-2.2-.7H28c-.8 0-1.6.3-2.2.7L64 72.4z"/><path class="kst1" d="M66.6 75.4c-1.5 1.3-3.7 1.3-5.2 0L24 43.5V85c0 2.2 1.8 4 4 4h72c2.2 0 4-1.8 4-4V43.4l-37.4 32z"/></svg><svg style="shape-rendering:geometricPrecision;text-rendering:geometricPrecision;image-rendering:optimizeQuality;fill-rule:evenodd;clip-rule:evenodd" viewBox="0 0 201 201" xml:space="preserve" fill="#FFF" id="phone" xmlns="http://www.w3.org/2000/svg"><defs><style>.lfil1{fill:#fff}</style></defs><g id="lLayer_x0020_1"><g id="l_320501824"><rect height="201" rx="19" ry="19" width="201" style="fill:#2dc100"/><path class="lfil1" d="M107 34c37 5 54 23 59 60 0 4 0 8 4 8s4-3 4-6v-2c1-35-30-67-66-68-3 0-9-2-9 4 0 4 5 3 8 4z"/><path class="lfil1" d="M114 44c-4-1-8-2-9 2-1 6 4 5 8 6 23 5 31 13 35 36v3c0 2 1 5 5 4 2 0 3-1 3-3v-4c0-22-19-42-42-44z"/><path class="lfil1" d="M116 61c-2 0-5 1-5 3-2 4 1 5 4 5 9 2 14 7 15 16 0 2 1 3 1 4 1 0 2 1 4 1l1-1c2-1 2-3 2-5 0-11-12-23-22-23zM164 134c-5-4-10-7-14-10-10-7-19-7-27 3-4 6-9 7-15 4-17-7-30-19-37-35-1-3-2-5-2-8-1-4 1-8 6-11 4-3 8-6 8-12 0-8-20-34-27-37-3-1-6-1-10 0-18 6-25 21-18 38 4 9 9 18 14 26 22 37 54 64 96 81 3 2 6 2 7 3 12 0 26-11 30-22 3-11-5-15-11-20z"/></g></g></svg><svg fill="none" viewBox="0 0 120 120" id="sass-icon" xmlns="http://www.w3.org/2000/svg"><path fill-rule="evenodd" clip-rule="evenodd" d="M1.143 52.646c0 .66.194 1.094.303 1.517.708 2.75 2.232 5.11 4.04 7.262 2.574 3.068 5.727 5.537 8.956 7.86 2.801 2.013 5.66 3.982 8.472 5.98.483.343.94.738 1.464 1.16-.451.243-.826.457-1.216.655-3.712 1.883-7.283 3.993-10.574 6.55-1.984 1.54-3.902 3.179-5.257 5.32-2.18 3.442-2.951 7.11-1.326 11.025.474 1.144 1.198 2.132 2.219 2.862.33.236.702.471 1.09.563.991.233 2.002.386 3.006.571l2.843-.002c3.145-.281 6.007-1.358 8.593-3.143 4.043-2.79 6.766-6.53 7.937-11.331.851-3.49.886-6.983-.117-10.456-.093-.323-.21-.639-.332-.95-.122-.313-.265-.617-.434-1.006l6.446-3.707.097.083c-.117.383-.242.766-.348 1.153-.766 2.797-1.275 5.644-1.092 8.547.195 3.094 1.058 5.99 2.87 8.574 1.464 2.091 4.953 2.169 6.51.07.552-.745 1.087-1.524 1.49-2.355 1.05-2.17 2.023-4.38 3.027-6.573l.176-.401c-.073 1.038-.157 1.95-.195 2.864-.06 1.426.023 2.843.51 4.2.418 1.16 1.127 2.028 2.457 2.18.91.105 1.634-.312 2.302-.84a9.734 9.734 0 0 0 2.523-2.999c1.782-3.272 3.612-6.526 5.228-9.88 1.747-3.63 3.275-7.365 4.898-11.056l.268-.654c.384 1.506.65 2.982 1.143 4.379.572 1.62 1.28 3.203 2.05 4.742.365.726.323 1.198-.183 1.807-2.114 2.55-4.193 5.131-6.273 7.71-.46.568-.919 1.148-1.302 1.77a3.47 3.47 0 0 0-.45 1.278 1.629 1.629 0 0 0 1.296 1.848c.823.177 1.7.243 2.539.18 2.903-.213 5.54-1.232 7.87-2.959 3.02-2.237 3.99-5.29 3.258-8.907-.198-.982-.547-1.936-.888-2.882-.153-.427-.163-.726.115-1.123 2.415-3.447 4.477-7.105 6.395-10.846a2.23 2.23 0 0 1 .287-.452c.622 3.234 1.557 6.352 3.233 9.18-.854.824-1.701 1.571-2.467 2.394-1.687 1.814-3.15 3.782-3.912 6.183-.328 1.035-.58 2.087-.434 3.192.227 1.717 1.633 2.833 3.321 2.442 3.613-.837 6.733-2.54 9.012-5.555 1.533-2.03 1.673-4.296 1.03-6.668-.175-.645-.385-1.28-.61-2.02.892-.276 1.761-.608 2.66-.814 4.668-1.065 9.285-.879 13.783.807 2.626.984 4.748 2.631 6.006 5.223 1.537 3.167.687 6.173-2.299 8.175-.278.187-.597.334-.828.568a.82.82 0 0 0-.192.628c.02.115.325.26.5.258.981-.008 1.777-.523 2.541-1.051 1.915-1.325 3.312-3.107 3.613-5.454l.059-.176-.072-1.528c-.03-.088.021-.175.015-.242-.407-3.417-2.233-6.068-4.888-8.145-3.075-2.405-6.706-3.395-10.546-3.551a23.814 23.814 0 0 0-9.154 1.409c-.841.304-1.675.665-2.52 1.006-.114-.206-.236-.403-.336-.606-.868-1.777-1.92-3.476-2.152-5.514-.165-1.448-.368-2.893-.024-4.325.331-1.377.762-2.73 1.168-4.09.21-.699.062-1.09-.605-1.406a2.677 2.677 0 0 0-.737-.242c-1.64-.238-3.259-.102-4.848.36-.563.165-.971.48-1.096 1.102-.071.357-.217.7-.318 1.052-.415 1.465-.71 2.959-1.38 4.355-1.683 3.501-3.603 6.87-5.568 10.216-.212.36-.436.715-.705 1.153-.69-1.444-1.426-2.74-1.649-4.258-.252-1.718-.45-3.433-.023-5.137.318-1.271.733-2.52 1.115-3.773.181-.597.098-.91-.442-1.224-.273-.158-.581-.299-.889-.345a10.916 10.916 0 0 0-5.02.41c-.508.166-.775.495-.931 1.02-.458 1.549-.848 3.135-1.49 4.608-2.6 5.962-5.276 11.894-7.949 17.824-.558 1.239-1.211 2.434-1.84 3.64-.16.305-.392.574-.59.861-.16-.188-.222-.318-.221-.447.005-.762-.086-1.547.06-2.284.439-2.23.945-4.446 1.478-6.655.441-1.824.954-3.632 1.442-5.444.164-.607.167-1.174-.269-1.684-.732-.854-2.262-1.041-3.17-.383l-.4.227.077-.647c.191-1.387.23-2.769-.15-4.135-.475-1.702-1.69-2.682-3.456-2.627-.824.025-1.688.165-2.45.465-3.205 1.257-5.67 3.481-7.768 6.158a2.43 2.43 0 0 1-.71.613c-2.712 1.504-5.433 2.989-8.152 4.48l-3.028 1.658c-.811-.774-1.55-1.578-2.386-2.26-2.557-2.084-5.155-4.118-7.73-6.18-2.281-1.827-4.492-3.73-6.183-6.15-1.258-1.8-2.07-3.77-2.147-5.995-.098-2.836.706-5.427 2.15-7.84 1.847-3.085 4.366-5.562 7.135-7.806 2.93-2.372 6.099-4.385 9.383-6.224 4.594-2.571 9.32-4.848 14.387-6.35 5.196-1.542 10.468-2.424 15.905-1.809 2.138.242 4.213.731 6.12 1.777 1.459.8 2.656 1.847 3.213 3.483.55 1.611.532 3.243.152 4.88-.774 3.312-2.588 6.043-4.87 8.484-3.745 4-8.312 6.723-13.455 8.522a37.008 37.008 0 0 1-9.154 1.953c-2.559.215-5.064-.012-7.486-.902-1.604-.59-3.001-1.491-4.124-2.8-.2-.234-.458-.488-.832-.269-.366.216-.431.564-.308.918.205.587.394 1.198.714 1.723.804 1.317 1.975 2.272 3.265 3.092 2.478 1.576 5.248 2.105 8.12 2.228 4.357.189 8.608-.462 12.8-1.631 5.984-1.669 11.187-4.616 15.36-9.266 3.474-3.872 5.956-8.242 6.487-13.518.26-2.575-.017-5.098-1.222-7.448-1.308-2.545-3.387-4.438-5.874-5.742-3.62-1.898-7.528-3.003-11.56-3.003h-4.041c-4.885 0-9.607 1.4-14.197 3.069a97.546 97.546 0 0 0-10.189 4.409c-7.203 3.599-13.91 7.939-19.42 13.906-2.745 2.973-5.07 6.253-6.406 10.115a37.958 37.958 0 0 0-1.042 3.512m26.1 33.763c-.313 4.18-2.207 7.569-5.304 10.314-1.742 1.543-3.74 2.642-6.067 3.028-.843.14-1.707.174-2.525-.176-1.167-.499-1.429-1.535-1.451-2.638-.035-1.76.58-3.35 1.425-4.862 1.103-1.973 2.72-3.476 4.445-4.88 2.719-2.214 5.668-4.087 8.689-5.856l.228-.093c.467 1.725.689 3.428.56 5.163Zm23.585-18.168c-.22 1.335-.496 2.67-.886 3.964-1.348 4.479-3.08 8.819-4.952 13.1-.346.792-.85 1.515-1.287 2.266a1.585 1.585 0 0 1-.265.313c-.542.535-1.056.507-1.33-.193-.318-.814-.514-1.685-.683-2.546-.114-.579-.086-1.186-.122-1.779.037-4.213 1.322-8.041 3.503-11.606.899-1.47 1.877-2.87 3.373-3.8.46-.286.975-.516 1.495-.662.797-.224 1.286.144 1.154.943ZM67 87.045l5.784-6.753c.24 2.508-4.022 7.514-5.784 6.753Zm18.472-4.544c-.409.234-.854.403-1.273.62-.384.198-.51-.002-.522-.332a2.235 2.235 0 0 1 .088-.676c.78-2.755 2.218-5.106 4.356-7.018l.15-.077c1.017 2.845-.158 5.97-2.8 7.483Z" fill="#CB6699"/></svg><svg viewBox="0 0 22.578 22.578" id="semantics" xmlns="http://www.w3.org/2000/svg"><path d="M14.604 276.606c-2.063 2.062-4.124 4.125-6.186 6.188a.333.333 0 0 0-.088.117l-.946 2.126a.767.767 0 0 0 .158.845.767.767 0 0 0 .845.158l2.109-.94a.326.326 0 0 0 .127-.088l6.195-6.195a1.001 1.001 0 0 0 0-1.41l-.8-.801c-.504-.478-.966-.409-1.414 0zm.941.469.801.801a.329.329 0 0 1 0 .472l-1.325 1.326-1.272-1.272 1.327-1.327c.189-.148.285-.16.47 0zm-8.918 1.099c-.547 0-.998.45-.998.997v2.996H1.97c-.548 0-.999.452-.999 1v10.984c0 .548.45.998.998.998H15.95c.548 0 .998-.45.998-.998v-2.995h3.662c.547 0 .998-.453.998-1V279.17c0-.548-.45-.997-.998-.997h-2.664a.333.333 0 0 0 0 .665h2.664c.187 0 .334.144.334.332v.998h-4.661a.333.333 0 0 0 0 .666h4.66v9.32a.33.33 0 0 1-.333.335c-4.663-.005-9.316 0-13.983 0a.328.328 0 0 1-.331-.334v-9.321H9.29a.333.333 0 1 0 0-.666H6.296v-.998c0-.188.144-.332.331-.332h4.662a.333.333 0 0 0 0-.665zm6.652.7 1.27 1.27-4.174 4.173-1.272-1.269zm-5.986.297a.333.333 0 1 0 .003.666.333.333 0 0 0-.003-.666zm1.332 0a.333.333 0 1 0 .002.666.333.333 0 0 0-.002-.666zm1.331 0a.333.333 0 1 0 .003.666.333.333 0 0 0-.003-.666zm-7.988 3.662H5.63v1.331H1.634v-.997a.33.33 0 0 1 .334-.334zm.665.333a.333.333 0 1 0 .002.666.333.333 0 0 0-.002-.666zm1.331 0a.333.333 0 1 0 .003.666.333.333 0 0 0-.003-.666zm10.32 0a.67.67 0 0 0-.665.666v.664a.67.67 0 0 0 .666.666v2.664a.67.67 0 0 0-.666.666v.666c0 .363.302.666.666.666h.665a.671.671 0 0 0 .666-.666h2.664c0 .363.303.666.666.666h.666a.671.671 0 0 0 .666-.666v-.666a.67.67 0 0 0-.666-.666v-2.664a.67.67 0 0 0 .666-.666v-.663a.67.67 0 0 0-.666-.666h-.666a.671.671 0 0 0-.666.665h-2.664a.67.67 0 0 0-.666-.665zm-5.544.458 1.058 1.056-1.682.75c-.053.024-.076.009-.105-.02-.029-.028-.043-.05-.02-.103zm5.545.208h.665v.664h-.665zm4.661 0h.666v.665h-.666zm-3.33.665h2.664c0 .363.303.665.666.665v2.664a.671.671 0 0 0-.666.666h-2.664a.67.67 0 0 0-.666-.666v-2.664a.67.67 0 0 0 .666-.665zm-13.982.334h3.995v.727a.979.979 0 0 0-.331-.061H3.3c-.548 0-1 .45-1 .997v1.666c0 .548.452.998 1 .998h1.998a.979.979 0 0 0 .331-.061v1.059c0 .547.45 1 .998 1h9.656v2.995a.327.327 0 0 1-.333.332H1.968a.329.329 0 0 1-.334-.332zm15.314.331c-.731 0-1.332.6-1.332 1.332 0 .731.601 1.332 1.332 1.332.732 0 1.332-.6 1.332-1.332 0-.732-.6-1.332-1.332-1.332zm0 .666a.66.66 0 0 1 .666.666.661.661 0 0 1-.666.666.661.661 0 0 1-.665-.666.66.66 0 0 1 .665-.666zm-13.648.334h1.998c.188 0 .331.144.331.332v1.666a.326.326 0 0 1-.331.332H3.3a.328.328 0 0 1-.334-.332v-1.666c0-.188.146-.332.334-.332zm5.991.332a.333.333 0 0 0 0 .666h2.664a.333.333 0 0 0 0-.666zm-1.998 1.332a.333.333 0 0 0 0 .666h4.662a.333.333 0 0 0 0-.666zm6.992.666h.665v.666h-.665zm4.661 0h.666v.666h-.666zm-11.653.666a.333.333 0 0 0 0 .666h4.662a.333.333 0 0 0 0-.666zm-3.661.666c-.731 0-1.332.6-1.332 1.332v1.332c0 .732.6 1.332 1.332 1.332.731 0 1.332-.6 1.332-1.332v-1.332c0-.732-.6-1.332-1.332-1.332zm0 .666a.66.66 0 0 1 .666.666v1.332a.66.66 0 0 1-.666.666.661.661 0 0 1-.666-.666v-1.332c0-.372.294-.666.666-.666zm8.323 1.332a.333.333 0 1 0 0 .666h.332a.333.333 0 1 0 0-.666zm1.998 0a.333.333 0 1 0 0 .666h.332a.333.333 0 1 0 0-.666zm-7.99 1.332a.333.333 0 1 0 0 .666h4.66a.333.333 0 1 0 0-.666zm5.992 0a.333.333 0 1 0 0 .666h.666a.333.333 0 0 0 0-.666zm1.998 0a.333.333 0 1 0 0 .666h1.332a.333.333 0 0 0 0-.666z" style="color:#000;font-style:normal;font-variant:normal;font-weight:400;font-stretch:normal;font-size:medium;line-height:normal;font-family:sans-serif;font-variant-ligatures:normal;font-variant-position:normal;font-variant-caps:normal;font-variant-numeric:normal;font-variant-alternates:normal;font-variant-east-asian:normal;font-feature-settings:normal;font-variation-settings:normal;text-indent:0;text-align:start;text-decoration:none;text-decoration-line:none;text-decoration-style:solid;text-decoration-color:#000;letter-spacing:normal;word-spacing:normal;text-transform:none;writing-mode:lr-tb;direction:ltr;text-orientation:mixed;dominant-baseline:auto;baseline-shift:baseline;text-anchor:start;white-space:normal;shape-padding:0;shape-margin:0;inline-size:0;clip-rule:nonzero;display:inline;overflow:visible;visibility:visible;opacity:1;isolation:auto;mix-blend-mode:normal;color-interpolation:sRGB;color-interpolation-filters:linearRGB;solid-color:#000;solid-opacity:1;vector-effect:none;fill:#d2e9e3;fill-opacity:1;fill-rule:nonzero;stroke:none;stroke-width:.665789;stroke-linecap:round;stroke-linejoin:round;stroke-miterlimit:4;stroke-dasharray:none;stroke-dashoffset:0;stroke-opacity:1;color-rendering:auto;image-rendering:auto;shape-rendering:auto;text-rendering:auto;enable-background:accumulate;stop-color:#000;stop-opacity:1" transform="translate(0 -274.422)"/></svg><svg aria-label="Telegram" viewBox="0 0 512 512" id="telegram" xmlns="http://www.w3.org/2000/svg"><rect width="512" height="512" rx="15%" fill="#37aee2"/><path fill="#c8daea" d="M199 404c-11 0-10-4-13-14l-32-105 245-144"/><path fill="#a9c9dd" d="M199 404c7 0 11-4 16-8l45-43-56-34"/><path fill="#f6fbfe" d="m204 319 135 99c14 9 26 4 30-14l55-258c5-22-9-32-24-25L79 245c-21 8-21 21-4 26l83 26 190-121c9-5 17-3 11 4"/></svg><svg viewBox="0 0 22.578 22.578" id="validity" xmlns="http://www.w3.org/2000/svg"><path style="color:#000;font-style:normal;font-variant:normal;font-weight:400;font-stretch:normal;font-size:medium;line-height:normal;font-family:sans-serif;font-variant-ligatures:normal;font-variant-position:normal;font-variant-caps:normal;font-variant-numeric:normal;font-variant-alternates:normal;font-variant-east-asian:normal;font-feature-settings:normal;font-variation-settings:normal;text-indent:0;text-align:start;text-decoration:none;text-decoration-line:none;text-decoration-style:solid;text-decoration-color:#000;letter-spacing:normal;word-spacing:normal;text-transform:none;writing-mode:lr-tb;direction:ltr;text-orientation:mixed;dominant-baseline:auto;baseline-shift:baseline;text-anchor:start;white-space:normal;shape-padding:0;shape-margin:0;inline-size:0;clip-rule:nonzero;display:inline;overflow:visible;visibility:visible;isolation:auto;mix-blend-mode:normal;color-interpolation:sRGB;color-interpolation-filters:linearRGB;solid-color:#000;solid-opacity:1;vector-effect:none;fill:#d2e9e3;fill-opacity:1;fill-rule:nonzero;stroke:none;stroke-width:.529167;stroke-linecap:round;stroke-linejoin:round;stroke-miterlimit:4;stroke-dasharray:none;stroke-dashoffset:0;stroke-opacity:1;color-rendering:auto;image-rendering:auto;shape-rendering:auto;text-rendering:auto;enable-background:accumulate;stop-color:#000" d="M2.636 277.39c-.916 0-1.666.747-1.666 1.663v13.316c0 .916.75 1.663 1.666 1.663h17.309c.916 0 1.663-.747 1.663-1.663v-13.316c0-.916-.747-1.663-1.663-1.663zm0 .666h17.309c.559 0 .997.438.997.997v13.316a.987.987 0 0 1-.997.997H2.636a.99.99 0 0 1-1-.997v-13.316a.99.99 0 0 1 1-.997zm0 .666a.333.333 0 0 0-.334.331.333.333 0 0 0 .334.334h.332a.333.333 0 0 0 .334-.334.333.333 0 0 0-.334-.331zm1.663 0a.333.333 0 0 0-.331.331.333.333 0 0 0 .331.334h.335a.333.333 0 0 0 .332-.334.333.333 0 0 0-.332-.331zm1.664 0a.333.333 0 0 0-.331.331.333.333 0 0 0 .331.334h.334a.333.333 0 0 0 .332-.334.333.333 0 0 0-.332-.331zm8.49 0a.333.333 0 0 0-.335.331.333.333 0 0 0 .335.334h.332a.333.333 0 0 0 .334-.334.333.333 0 0 0-.334-.331zm1.496 0a.333.333 0 0 0-.332.331.333.333 0 0 0 .332.334h.334a.333.333 0 0 0 .332-.334.333.333 0 0 0-.332-.331zm1.666 0a.333.333 0 0 0-.334.331.333.333 0 0 0 .334.334h2.33a.333.333 0 0 0 .334-.334.333.333 0 0 0-.334-.331zm-4.54 2.199a.333.333 0 0 0-.335.332v.857h-1.45a.333.333 0 0 0-.334.332v1.154l-1.484 1.485h-2.01v-.855a.333.333 0 0 0-.331-.335H4.75a.333.333 0 0 0-.33.335v2.376a.333.333 0 0 0 .33.334h2.38a.333.333 0 0 0 .331-.334v-.855h.833v1.857l-1.624 2.376a.333.333 0 0 0 .275.521h3.361a.333.333 0 0 0 .276-.52l-1.622-2.374v-1.86h.51l1.583 1.585a.333.333 0 0 0 .472 0l1.68-1.683a.333.333 0 0 0 0-.47l-1.584-1.585v-.818h1.118v.855a.333.333 0 0 0 .334.332h2.045v2.901h-2.045a.333.333 0 0 0-.334.333v2.378a.333.333 0 0 0 .334.332h4.755a.333.333 0 0 0 .332-.332v-2.378a.333.333 0 0 0-.332-.333h-2.045v-2.901h2.045a.333.333 0 0 0 .332-.332v-2.378a.333.333 0 0 0-.332-.332zm.33.666h4.09v1.71h-4.09v-.836a.333.333 0 0 0 0-.02zm-2.115 2.616 1.212 1.212-1.212 1.209-1.211-1.209zm-6.207.354h1.713v1.713H5.083Zm8.323 2.974h4.089v1.712h-4.09Zm-4.78.769 1.053 1.536H7.577Zm-5.99 1.74a.333.333 0 0 0-.334.331v1.998a.333.333 0 0 0 .334.332h1.998a.333.333 0 0 0 .332-.332v-1.998a.333.333 0 0 0-.332-.331zm.332.665h1.331v1.33H2.968Zm6.493 1.331a.333.333 0 0 0-.335.332.333.333 0 0 0 .335.334h.331a.333.333 0 0 0 .334-.334.333.333 0 0 0-.334-.332zm1.663 0a.333.333 0 0 0-.334.332.333.333 0 0 0 .334.334h.331a.333.333 0 0 0 .335-.334.333.333 0 0 0-.335-.332zm1.663 0a.333.333 0 0 0-.331.332.333.333 0 0 0 .331.334h.335a.333.333 0 0 0 .331-.334.333.333 0 0 0-.331-.332z" transform="translate(0 -274.422)"/></svg><svg viewBox="0 0 512 512" fill="#fff" id="viber" xmlns="http://www.w3.org/2000/svg"><rect width="512" height="512" rx="15%" fill="#665ca7"/><path fill="none" stroke="#fff" stroke-linecap="round" stroke-width="10" d="M269 186a30 30 0 0 1 31 31m-38-58a64 64 0 0 1 64 67m-73-93a97 97 0 0 1 99 104"/><path fill-rule="evenodd" d="M95 232c0-91 17-147 161-147s161 56 161 147-17 147-161 147l-26-1-53 63c-4 4-8 1-8-3v-69c-6 0-31-12-38-19-22-23-36-40-36-118zm-30 0c0-126 55-177 191-177s191 51 191 177-55 177-191 177c-10 0-18 0-32-2l-38 43c-7 8-28 11-28-13v-42c-6 0-20-6-39-18-19-13-54-44-54-145zm223 42q10-13 24-4l36 27q8 10-7 28t-28 15q-53-12-102-60t-61-104q0-20 25-34 13-9 22 5l25 35q6 12-7 22c-39 15 51 112 73 70z"/></svg><svg viewBox="0 0 64 64" id="vk" xmlns="http://www.w3.org/2000/svg"><g data-name="32-vk"><rect height="64" rx="11.2" ry="11.2" width="64" style="fill:#4489c8"/><path d="M9.62 19.77h7.68a.79.79 0 0 1 .74.51c.85 2.19 4.38 10.76 7.61 11.46 2.4 0 1.55-11.4-1.5-11.4-.8 0 1.42-1.42 1.57-1.48a16.38 16.38 0 0 1 8.66 0c1.53.64 1.79 2.43 1.83 3.95s-1.7 8 .59 8.7c3 .92 6.86-8.49 7.76-10.8a.79.79 0 0 1 .74-.5h8.55a.8.8 0 0 1 .74 1.11 74.74 74.74 0 0 1-6.31 11.52 1.59 1.59 0 0 0 .16 2C51 37.58 58 45.34 54 45.34h-8.63a1.57 1.57 0 0 1-1.18-.53c-1.34-1.48-5.24-5.6-7-5.27-1.46.27-1.6 2.75-1.53 4.37a1.6 1.6 0 0 1-1.48 1.68c-1.53.09-3.62.13-3.81.12-6.1-.39-9.71-4.46-13.16-9a56.33 56.33 0 0 1-8.35-15.88.81.81 0 0 1 .76-1.06Z" style="fill:#fff"/></g></svg><svg style="shape-rendering:geometricPrecision;text-rendering:geometricPrecision;image-rendering:optimizeQuality;fill-rule:evenodd;clip-rule:evenodd" viewBox="0 0 187 187" xml:space="preserve" fill="#FFF" id="whatsapp" xmlns="http://www.w3.org/2000/svg"><defs><style>.sfil1{fill:#fefefe}</style></defs><g id="sLayer_x0020_1"><g id="s_521245888"><rect height="187" rx="18" ry="18" width="187" style="fill:#009846"/><path class="sfil1" d="M95 146c-11 0-22-3-31-9l-21 7 7-20c-6-9-10-20-10-32v-5c3-28 26-50 55-50s52 22 55 51v4c0 30-25 54-55 54zm65-56c-1-35-30-63-65-63S31 54 29 89v3c0 12 4 24 10 33l-12 35 36-11c9 5 20 8 32 8 36 0 65-29 65-65v-2z"/><path class="sfil1" d="M125 105c-2-1-10-5-11-5-2-1-3-1-4 1-1 1-4 5-5 6s-2 1-3 0c-2-1-7-2-13-8-5-4-8-9-9-11-1-1 0-2 0-3l3-3v-1c1 0 1-1 1-1 1-2 1-2 0-3 0-1-3-9-5-12-1-3-2-3-3-3h-3c-1 0-3 1-5 2-1 2-5 6-5 13 0 2 0 4 1 6 1 5 5 10 5 11 1 1 11 18 28 24 16 6 16 4 19 4s10-4 11-8c1-3 1-7 1-7-1-1-2-1-3-2z"/></g></g></svg><svg viewBox="0 0 22.578 22.578" id="Ñrossbrowser" xmlns="http://www.w3.org/2000/svg"><path d="M2.032 277.39a1 1 0 0 0-.782.404 1.43 1.43 0 0 0-.28.876v10.09c0 .33.098.636.28.872.182.236.464.408.782.408h7.21l-.24 1.663h-2.04c-.53 0-1.023.279-1.296.733l-.312.523a.667.667 0 0 0-.089.408h-.633a.333.333 0 0 0-.334.334.333.333 0 0 0 .334.332h13.314a.333.333 0 0 0 .334-.332.333.333 0 0 0-.334-.334h-.633a.667.667 0 0 0-.09-.408l-.312-.523a1.513 1.513 0 0 0-1.295-.733h-2.04l-.24-1.663h7.21c.318 0 .6-.172.781-.408.182-.236.28-.542.28-.873v-10.09a1.43 1.43 0 0 0-.28-.875 1 1 0 0 0-.781-.405zm0 .665h18.514c.086 0 .171.042.253.148a.78.78 0 0 1 .145.467v9.038H1.634v-9.038a.78.78 0 0 1 .145-.467c.082-.106.167-.148.253-.148zm1.04.666a.87.87 0 0 0-.52.16.64.64 0 0 0-.27.506v5.66c0 .214.123.395.27.503a.87.87 0 0 0 .52.162h16.417c.192 0 .37-.054.519-.162a.636.636 0 0 0 .27-.503v-5.66a.64.64 0 0 0-.27-.506.866.866 0 0 0-.519-.16zm0 .666h16.417c.06 0 .105.02.123.032v5.593a.225.225 0 0 1-.123.035H3.072a.226.226 0 0 1-.123-.035v-5.593a.228.228 0 0 1 .123-.032zm1.55.666a.333.333 0 0 0-.02 0 .333.333 0 0 0-.223.096l-.666.666a.333.333 0 0 0 0 .472l.666.665a.333.333 0 0 0 .47 0 .333.333 0 0 0 0-.47l-.43-.431.43-.43a.333.333 0 0 0 0-.472.333.333 0 0 0-.227-.096zm3.33 0a.333.333 0 0 0-.02 0 .333.333 0 0 0-.226.096.333.333 0 0 0 0 .472l.43.43-.43.43a.333.333 0 0 0 0 .471.333.333 0 0 0 .472 0l.666-.665a.333.333 0 0 0 0-.472l-.666-.666a.333.333 0 0 0-.226-.096zm-1.35 0a.333.333 0 0 0-.29.184l-.665 1.33a.333.333 0 0 0 .15.447.333.333 0 0 0 .447-.147l.666-1.333a.333.333 0 0 0-.15-.446.333.333 0 0 0-.157-.035zm9.68 0a.672.672 0 0 0-.666.666v2.995c0 .363.304.666.667.666h1.997a.672.672 0 0 0 .666-.666v-2.995a.672.672 0 0 0-.666-.666zm0 .666h1.998v2.995h-1.997zm-6.342.332a.333.333 0 0 0-.332.334.333.333 0 0 0 .332.331h.332a.333.333 0 0 0 .334-.331.333.333 0 0 0-.334-.334zm1.663 0a.333.333 0 0 0-.331.334.333.333 0 0 0 .331.331h2.999a.333.333 0 0 0 .331-.331.333.333 0 0 0-.331-.334zm-1.007 1.332a.333.333 0 0 0-.226.098l-.666.666a.333.333 0 0 0 0 .47l.666.665a.333.333 0 0 0 .472 0 .333.333 0 0 0 0-.472l-.43-.43.43-.43a.333.333 0 0 0 0-.47.333.333 0 0 0-.246-.097zm1.998 0a.333.333 0 0 0-.288.184l-.666 1.332a.333.333 0 0 0 .148.445.333.333 0 0 0 .447-.148l.666-1.332a.333.333 0 0 0-.15-.447.333.333 0 0 0-.157-.034zm1.33 0a.333.333 0 0 0-.225.098.333.333 0 0 0 0 .47l.43.43-.43.429a.333.333 0 0 0 0 .472.333.333 0 0 0 .47 0l.666-.666a.333.333 0 0 0 0-.47l-.666-.665a.333.333 0 0 0-.246-.098zm-9.975.997a.333.333 0 0 0-.335.334.333.333 0 0 0 .335.332h2.996a.333.333 0 0 0 .331-.332.333.333 0 0 0-.331-.334zm4.327 0a.333.333 0 0 0-.334.334.333.333 0 0 0 .334.332h.332a.333.333 0 0 0 .334-.332.333.333 0 0 0-.334-.334zm1.182 2.998a.333.333 0 0 0-.334.332.333.333 0 0 0 .334.332h.332a.333.333 0 0 0 .334-.332.333.333 0 0 0-.334-.332zm1.664 0a.333.333 0 0 0-.332.332.333.333 0 0 0 .332.332h.334a.333.333 0 0 0 .332-.332.333.333 0 0 0-.332-.332zm1.666 0a.333.333 0 0 0-.334.332.333.333 0 0 0 .334.332h.331a.333.333 0 0 0 .335-.332.333.333 0 0 0-.335-.332zm-11.154 1.996h19.31v.385a.783.783 0 0 1-.145.468c-.082.106-.167.147-.253.147H2.032c-.086 0-.171-.041-.253-.147a.783.783 0 0 1-.145-.468zm8.279 1.666h2.752l.239 1.663h-3.23Zm-2.951 2.33h8.654a.84.84 0 0 1 .723.407l.314.524c.026.043.012.066-.039.066H5.964c-.051 0-.066-.023-.04-.066l.315-.524a.84.84 0 0 1 .723-.407zm-3.996.997a.333.333 0 0 0-.332.334.333.333 0 0 0 .332.332H3.3a.333.333 0 0 0 .332-.332.333.333 0 0 0-.332-.334zm16.312 0a.333.333 0 0 0-.332.334.333.333 0 0 0 .332.332h.334a.333.333 0 0 0 .332-.332.333.333 0 0 0-.332-.334z" style="color:#000;font-style:normal;font-variant:normal;font-weight:400;font-stretch:normal;font-size:medium;line-height:normal;font-family:sans-serif;font-variant-ligatures:normal;font-variant-position:normal;font-variant-caps:normal;font-variant-numeric:normal;font-variant-alternates:normal;font-variant-east-asian:normal;font-feature-settings:normal;font-variation-settings:normal;text-indent:0;text-align:start;text-decoration:none;text-decoration-line:none;text-decoration-style:solid;text-decoration-color:#000;letter-spacing:normal;word-spacing:normal;text-transform:none;writing-mode:lr-tb;direction:ltr;text-orientation:mixed;dominant-baseline:auto;baseline-shift:baseline;text-anchor:start;white-space:normal;shape-padding:0;shape-margin:0;inline-size:0;clip-rule:nonzero;display:inline;overflow:visible;visibility:visible;opacity:1;isolation:auto;mix-blend-mode:normal;color-interpolation:sRGB;color-interpolation-filters:linearRGB;solid-color:#000;solid-opacity:1;vector-effect:none;fill:#d2e9e3;fill-opacity:1;fill-rule:nonzero;stroke:none;stroke-width:.529167;stroke-linecap:round;stroke-linejoin:round;stroke-miterlimit:4;stroke-dasharray:none;stroke-dashoffset:0;stroke-opacity:1;color-rendering:auto;image-rendering:auto;shape-rendering:auto;text-rendering:auto;enable-background:accumulate;stop-color:#000;stop-opacity:1" transform="translate(0 -274.422)"/></svg></svg>