<?xml version="1.0" encoding="UTF-8" standalone="no"?><svg viewBox="0 0 512 512" xmlns="http://www.w3.org/2000/svg" xmlns:xlink="http://www.w3.org/1999/xlink"><style>:root>svg{display:none}:root>svg:target{display:block}</style><svg viewBox="0 0 22.578 22.578" id="adaptation" xmlns="http://www.w3.org/2000/svg"><path d="M17.371 277.929c-.017-1.31-1.096-2.353-2.405-2.353H7.612a2.394 2.394 0 0 0-2.404 2.336c-.006.364-.002.728-.002 1.091a4.473 4.473 0 0 0-4.236 4.46 4.473 4.473 0 0 0 4.236 4.459v5.542c0 1.326 1.086 2.382 2.406 2.382H20.232c.756 0 1.376-.62 1.376-1.377v-4.128c0-.756-.62-1.376-1.376-1.376h-2.86c-.008-3.679.014-7.358 0-11.036zm-9.759-1.665h7.354c.84 0 1.526.57 1.684 1.351H5.928c.158-.781.845-1.35 1.684-1.35zm2.989.346a.344.344 0 0 0 0 .688h1.376a.344.344 0 0 0 0-.688zm-4.707 1.693h10.79v10.662h-4.019c-.755 0-1.376.62-1.376 1.376v2.09H5.894v-4.52a4.478 4.478 0 0 0 4.02-4.448 4.477 4.477 0 0 0-4.02-4.448zm-.452 1.377a3.777 3.777 0 0 1 3.782 3.783 3.778 3.778 0 0 1-3.782 3.783 3.778 3.778 0 0 1-3.783-3.783 3.777 3.777 0 0 1 3.783-3.783zm5.159 1.376a.344.344 0 0 0 0 .688h5.16a.344.344 0 0 0 0-.688zm-6.246.937-1.186 1.186a.344.344 0 0 0 0 .485l1.272 1.27c.134.133.351.133.485 0a.344.344 0 0 0 0-.486l-1.028-1.026.944-.944a.344.344 0 0 0 0-.485.36.36 0 0 0-.487 0zm1.584 0a.344.344 0 0 0 0 .485l.945.944-1.029 1.026a.344.344 0 0 0 .488.485l1.27-1.27a.344.344 0 0 0 0-.484l-1.187-1.186c-.196-.149-.334-.126-.487 0zm5.005.44a.344.344 0 0 0 0 .687h.688a.344.344 0 1 0 0-.688zm2.064 0a.344.344 0 0 0 0 .687h1.033a.344.344 0 0 0 0-.688zm2.41 0a.344.344 0 1 0 0 .687h.342a.344.344 0 0 0 0-.688zm-4.474 1.372a.344.344 0 1 0 .002.688.344.344 0 0 0-.002-.688zm1.332 0a.344.344 0 0 0 0 .689h.732a.344.344 0 1 0 0-.689zm2.108 0a.344.344 0 1 0 .003.688.344.344 0 0 0-.003-.688zm1.376 0a.344.344 0 0 0 0 .689.344.344 0 0 0 0-.689zm-5.159 1.377a.344.344 0 0 0 0 .688h1.03a.344.344 0 1 0 0-.688zm2.237 0a.344.344 0 1 0 0 .688h2.922a.344.344 0 0 0 0-.688h-2.922zm-.173 4.471h7.567c.384 0 .688.304.688.688v4.128a.683.683 0 0 1-.688.689h-7.567a.683.683 0 0 1-.688-.689v-4.128c0-.384.304-.688.688-.688zm4.518.792-2.065 3.576a.344.344 0 0 0 .597.345l2.064-3.575a.344.344 0 0 0-.127-.47c-.175-.107-.37-.039-.47.124zm-3.233.49-1.186 1.186a.344.344 0 0 0 0 .485l1.273 1.272a.344.344 0 0 0 .485-.488l-1.026-1.025c.318-.319.458-.461.942-.945a.344.344 0 0 0 0-.485c-.148-.137-.346-.12-.488 0zm4.51 0a.344.344 0 0 0 0 .485l.941.942-1.028 1.028a.344.344 0 0 0 0 .488.344.344 0 0 0 .488 0l1.27-1.272a.344.344 0 0 0 0-.485l-1.186-1.186c-.197-.148-.34-.12-.485 0zm-12.566 2.184h5.395v.688H10.6a.344.344 0 0 0 0 .688h.69c.005.242.076.466.191.663h-3.87c-.959 0-1.718-.74-1.718-1.694zm2.643.688a.344.344 0 0 0 0 .688h.687a.344.344 0 1 0 0-.688z" style="color:#000;font-style:normal;font-variant:normal;font-weight:400;font-stretch:normal;font-size:medium;line-height:normal;font-family:sans-serif;font-variant-ligatures:normal;font-variant-position:normal;font-variant-caps:normal;font-variant-numeric:normal;font-variant-alternates:normal;font-variant-east-asian:normal;font-feature-settings:normal;font-variation-settings:normal;text-indent:0;text-align:start;text-decoration:none;text-decoration-line:none;text-decoration-style:solid;text-decoration-color:#000;letter-spacing:normal;word-spacing:normal;text-transform:none;writing-mode:lr-tb;direction:ltr;text-orientation:mixed;dominant-baseline:auto;baseline-shift:baseline;text-anchor:start;white-space:normal;shape-padding:0;shape-margin:0;inline-size:0;clip-rule:nonzero;display:inline;overflow:visible;visibility:visible;opacity:1;isolation:auto;mix-blend-mode:normal;color-interpolation:sRGB;color-interpolation-filters:linearRGB;solid-color:#000;solid-opacity:1;vector-effect:none;fill:#d2e9e3;fill-opacity:1;fill-rule:nonzero;stroke:none;stroke-width:.687917;stroke-linecap:round;stroke-linejoin:round;stroke-miterlimit:4;stroke-dasharray:none;stroke-dashoffset:0;stroke-opacity:1;color-rendering:auto;image-rendering:auto;shape-rendering:auto;text-rendering:auto;enable-background:accumulate;stop-color:#000;stop-opacity:1" transform="translate(0 -274.422)"/></svg><svg fill="#2E98FB" viewBox="0 0 512 512" id="bam-icon" xmlns="http://www.w3.org/2000/svg"><path d="M302.933 407.885H512V467.2H302.933v-59.315zm-68.019-239.352H119.467V44.8H0v366.933h234.914c38.763 0 70.187-33.211 70.187-71.974V237.184c0-38.767-31.424-68.65-70.187-68.65z"/></svg><svg viewBox="0 0 32 32" id="css-icon" xmlns="http://www.w3.org/2000/svg"><path style="fill:#1572b6" d="M5.902 27.201 3.656 2h24.688l-2.249 25.197L15.985 30 5.902 27.201z"/><path style="fill:#33a9dc" d="m16 27.858 8.17-2.265 1.922-21.532H16v23.797z"/><path style="fill:#fff" d="M16 13.191h4.09l.282-3.165H16V6.935h7.75l-.074.829-.759 8.518H16v-3.091z"/><path style="fill:#ebebeb" d="m16.019 21.218-.014.004-3.442-.93-.22-2.465H9.24l.433 4.853 6.331 1.758.015-.004v-3.216z"/><path style="fill:#fff" d="m19.827 16.151-.372 4.139-3.447.93v3.216l6.336-1.756.047-.522.537-6.007h-3.101z"/><path style="fill:#ebebeb" d="M16.011 6.935v3.091H8.545l-.062-.695-.141-1.567-.074-.829h7.743zM16 13.191v3.091H12.601l-.062-.695-.14-1.567-.074-.829H16z"/></svg><svg viewBox="0 0 7.678 7.68" id="figma-icon" xmlns="http://www.w3.org/2000/svg"><path d="M2.56 7.68A1.28 1.28 0 0 0 3.84 6.4V5.12H2.56a1.28 1.28 0 0 0 0 2.56z" fill="#0acf83"/><path d="M1.28 3.84a1.28 1.28 0 0 1 1.28-1.28h1.28v2.56H2.56a1.28 1.28 0 0 1-1.28-1.28z" fill="#a259ff"/><path d="M1.28 1.28A1.28 1.28 0 0 1 2.559 0h1.28v2.56H2.56a1.28 1.28 0 0 1-1.28-1.28z" fill="#f24e1e"/><path d="M3.84 0h1.28a1.28 1.28 0 0 1 0 2.56H3.84z" fill="#ff7262"/><path d="M6.4 3.84a1.28 1.28 0 0 1-2.56 0 1.28 1.28 0 0 1 2.56 0z" fill="#1abcfe"/></svg><svg viewBox="0 0 22.578 22.578" id="fixed" xmlns="http://www.w3.org/2000/svg"><path d="M1.916 278.266a.892.892 0 0 0-.697.363 1.247 1.247 0 0 0-.249.766v8.48c0 .289.088.557.25.766a.89.89 0 0 0 .696.362h6.003l-.185 1.29h-1.67c-.463 0-.896.243-1.135.64l-.264.44c-.252.419.07.985.56.985h8.96c.489 0 .808-.566.556-.985l-.263-.44a1.322 1.322 0 0 0-1.134-.64h-1.67l-.185-1.29h3.11a.334.334 0 1 0 0-.668H1.916c-.054 0-.107-.025-.168-.104-.12-.205-.11-.353-.11-.584h12.96a.334.334 0 1 0 0-.667H1.639v-7.585c0-.263.157-.455.278-.461H17.49c.053 0 .11.022.17.1.06.08.11.21.11.36v2.915a.334.334 0 0 0 .669 0v-2.914c0-.29-.088-.557-.25-.766a.898.898 0 0 0-.7-.363zm1.808 1.192a.334.334 0 0 0-.056.468.85.85 0 0 1 .182.53c0 .479-.381.86-.86.86a.85.85 0 0 1-.522-.177.334.334 0 1 0-.407.53c.257.197.581.315.93.315.839 0 1.526-.688 1.526-1.528 0-.353-.12-.682-.324-.94-.219-.179-.338-.149-.469-.058zm1.863 2.28-.299-.299c-.02-.02-.01-.02-.004-.034.006-.015-.001-.017.027-.017h.424a.579.579 0 0 0 .574-.574v-.712a.579.579 0 0 0-.574-.574h-.424a.334.334 0 0 0 0 .667h.33v.525h-.33a.708.708 0 0 0-.646.431.709.709 0 0 0 .154.762l.23.231-.371.372-.232-.232a.709.709 0 0 0-.761-.152.707.707 0 0 0-.43.645v.328h-.526v-.328a.334.334 0 1 0-.668 0v.422c0 .313.261.573.575.573h.711c.313 0 .575-.26.575-.573v-.422c0-.028.005-.023.02-.03.014-.005.011-.012.031.009l.298.298a.581.581 0 0 0 .813 0l.506-.502a.581.581 0 0 0 0-.814h-.002zm3.762-2.058a.58.58 0 0 0-.575.574v.421c0 .028-.005.024-.02.03-.014.006-.014.012-.034-.008l-.298-.298a.577.577 0 0 0-.81 0l-.505.503a.58.58 0 0 0 0 .813l.298.298c.02.02.013.02.007.035-.006.014.001.02-.027.02h-.423a.579.579 0 0 0-.575.573v.712c0 .314.261.574.575.574h.423c.028 0 .021.003.027.018.006.014.013.015-.007.034l-.298.298a.58.58 0 0 0 0 .813l.505.503a.577.577 0 0 0 .81 0l.298-.298c.02-.02.02-.014.035-.008.015.006.02 0 .02.029v.421a.58.58 0 0 0 .574.574h.712a.58.58 0 0 0 .574-.574v-.421c0-.028.005-.023.02-.03.014-.005.012-.012.031.009l.299.298a.58.58 0 0 0 .813 0l.502-.503a.58.58 0 0 0 0-.813l-.298-.298c-.02-.02-.01-.02-.005-.034.006-.015 0-.018.027-.018h.424c.313 0 .574-.26.574-.574v-.712a.578.578 0 0 0-.574-.574h-.424c-.027 0-.02-.005-.027-.02-.006-.014-.014-.014.005-.034l.298-.298a.58.58 0 0 0 0-.813l-.502-.503a.58.58 0 0 0-.813 0l-.299.298c-.02.02-.017.014-.032.008-.014-.006-.02-.003-.02-.03v-.42a.58.58 0 0 0-.573-.575zm.094.668h.524v.327c0 .297.192.547.431.646.24.1.552.06.762-.15l.234-.232.37.37-.232.234a.704.704 0 0 0-.153.759c.099.239.349.43.645.43h.33v.528h-.33a.709.709 0 0 0-.645.431.708.708 0 0 0 .153.761l.231.232-.372.372-.231-.232a.708.708 0 0 0-.762-.152.707.707 0 0 0-.43.645v.33h-.525v-.33a.708.708 0 0 0-.432-.645.708.708 0 0 0-.761.152l-.232.232-.372-.372.232-.232a.706.706 0 0 0 .15-.76.704.704 0 0 0-.643-.432h-.33v-.527h.33a.704.704 0 0 0 .643-.431c.1-.24.06-.55-.15-.759l-.234-.234.374-.37.232.232c.21.21.522.25.761.15a.709.709 0 0 0 .432-.646zm.26 1.12a1.53 1.53 0 0 0-1.524 1.529c0 .839.685 1.527 1.524 1.527.84 0 1.528-.688 1.528-1.527 0-.84-.688-1.528-1.528-1.528zm0 .669c.479 0 .86.381.86.86 0 .478-.381.86-.86.86a.855.855 0 0 1-.86-.86c0-.479.382-.86.86-.86zm6.899 1.172c-.55 0-1 .454-1 1.003v7.844c0 .55.45 1 1 1h4.006c.549 0 1-.45 1-1v-7.844c0-.549-.451-1.003-1-1.003zm0 .668h4.006c.188 0 .332.147.332.335v6.006h-4.673v-6.006c0-.188.146-.335.335-.335zm1.845 2.421-.333 1.336a.334.334 0 0 0 .242.404.334.334 0 0 0 .404-.242l.335-1.335a.334.334 0 0 0-.244-.404c-.203-.044-.337.042-.404.241zm-1.247.18-.335.333a.334.334 0 0 0 0 .473l.335.332c.13.13.34.13.47 0 .13-.13.13-.34 0-.47l-.098-.099.099-.098c.129-.13.129-.34 0-.47-.191-.144-.345-.117-.471 0zm2.335 0c-.129.13-.129.34 0 .471l.1.098-.1.099a.334.334 0 0 0 .474.47l.332-.332a.334.334 0 0 0 0-.473l-.332-.333c-.191-.144-.347-.116-.474 0zm-10.942 2.425h2.222l.184 1.29H8.407Zm-2.528 1.958h7.28c.23 0 .443.12.561.318l.247.412H5.257l.246-.412a.654.654 0 0 1 .562-.318zm10.202.025h4.673v1.17a.327.327 0 0 1-.332.332h-4.006a.329.329 0 0 1-.335-.332zm2.336.334a.334.334 0 1 0 .001.668.334.334 0 0 0-.001-.668z" style="color:#000;font-style:normal;font-variant:normal;font-weight:400;font-stretch:normal;font-size:medium;line-height:normal;font-family:sans-serif;font-variant-ligatures:normal;font-variant-position:normal;font-variant-caps:normal;font-variant-numeric:normal;font-variant-alternates:normal;font-variant-east-asian:normal;font-feature-settings:normal;font-variation-settings:normal;text-indent:0;text-align:start;text-decoration:none;text-decoration-line:none;text-decoration-style:solid;text-decoration-color:#000;letter-spacing:normal;word-spacing:normal;text-transform:none;writing-mode:lr-tb;direction:ltr;text-orientation:mixed;dominant-baseline:auto;baseline-shift:baseline;text-anchor:start;white-space:normal;shape-padding:0;shape-margin:0;inline-size:0;clip-rule:nonzero;display:inline;overflow:visible;visibility:visible;opacity:1;isolation:auto;mix-blend-mode:normal;color-interpolation:sRGB;color-interpolation-filters:linearRGB;solid-color:#000;solid-opacity:1;vector-effect:none;fill:#d2e9e3;fill-opacity:1;fill-rule:nonzero;stroke:none;stroke-width:.667471;stroke-linecap:round;stroke-linejoin:round;stroke-miterlimit:4;stroke-dasharray:none;stroke-dashoffset:0;stroke-opacity:1;color-rendering:auto;image-rendering:auto;shape-rendering:auto;text-rendering:auto;enable-background:accumulate;stop-color:#000;stop-opacity:1" transform="translate(0 -274.422)"/></svg><svg viewBox="0 0 22.578 22.578" id="flexbox" xmlns="http://www.w3.org/2000/svg"><path d="M8.894 276.05c-.695 0-1.265.572-1.265 1.267v2.728H2.31c-.734 0-1.339.602-1.339 1.337v12.654c0 .734.605 1.337 1.34 1.337h11.305c.734 0 1.337-.603 1.337-1.337v-2.658h5.39a1.27 1.27 0 0 0 1.266-1.266v-11.713a.33.33 0 0 0 0-.017v-1.065c0-.695-.57-1.267-1.266-1.267zm0 .666h4.06v.334a.991.991 0 0 1-.997.998H8.295v-.73c0-.336.264-.602.6-.602zm4.726 0h6.722c.336 0 .6.266.6.601v.73h-7.664c.211-.279.342-.622.342-.997zm-4.327.334a.333.333 0 1 0-.003.665.333.333 0 0 0 .003-.665zm1.331 0a.333.333 0 1 0-.002.665.333.333 0 0 0 .002-.665zm1.332 0a.333.333 0 1 0-.003.665.333.333 0 0 0 .003-.665zm-3.661 1.663H20.942v11.399c0 .335-.264.6-.6.6H8.894a.594.594 0 0 1-.599-.6zm1.664.667c-.674.11-.875.396-.998 1v4.658c.087.646.401.875.998.998h3.995c.673-.108.877-.394.998-.998v-4.659c-.09-.645-.401-.874-.998-1zm.03.665h3.935l-1.967 2.168zm5.96 0a.333.333 0 0 0 0 .666h3.996a.333.333 0 1 0 0-.666zm-6.322.594 1.879 2.07-1.879 2.07zm4.658 0v4.14l-1.879-2.07zm-11.976.072h3.988v.332c0 .555-.442 1-.997 1H1.636v-.661c0-.375.299-.67.673-.67zm4.655 0h.665v1.332H6.62a1.65 1.65 0 0 0 .345-1zm-4.327.332a.333.333 0 1 0-.003.665.333.333 0 0 0 .003-.665zm1.331 0a.333.333 0 1 0-.002.665.333.333 0 0 0 .002-.665zm1.332 0a.333.333 0 1 0-.003.665.333.333 0 0 0 .003-.665zm10.993.273a.618.618 0 0 0-.615.611v2.165c0 .335.28.615.615.615h3.293c.334 0 .611-.28.611-.615v-2.165a.616.616 0 0 0-.611-.611zm.052.665h3.187v2.06h-3.187Zm-14.71.728H7.63v7.403c0 .695.57 1.266 1.265 1.266h5.391v2.658c0 .375-.295.67-.67.67H2.309a.668.668 0 0 1-.673-.67zm10.32.495 1.97 2.168H9.987Zm-8.955.17c-.36 0-.66.3-.66.661v2.34c0 .36.3.66.66.66h3.266c.361 0 .66-.3.66-.66v-2.34c0-.361-.299-.661-.66-.661zm.677.666h1.912l-.956.743zm-.672.32c.003.004.005.005.008.007l1.078.838-1.078.838-.008.006zm2.17.845 1.082-.841v1.682zm10.774.167a.333.333 0 0 0-.332.332c.001.183.15.33.332.332h3.996a.333.333 0 0 0 .334-.332.333.333 0 0 0-.334-.332zm-11.316.254.956.743H3.677Zm15.07 1.076H9.536c-.398-.003-.604.194-.575.575v2.179c-.013.398.224.566.575.575h10.167c.398 0 .572-.199.576-.575v-2.18c-.002-.325-.2-.58-.576-.574zm-7.846.666h5.523l-2.761.658zm7.756.152v1.695l-3.559-.848zm-9.986.001 3.556.847-3.556.846zm-5.993.18a.333.333 0 0 0 0 .666H5.63a.333.333 0 0 0 0-.665zm10.984 1.008 2.76.656h-5.519zm-11.159.324a.575.575 0 0 0-.57.57v1.185c0 .311.259.57.57.57h2.42c.312 0 .571-.259.571-.57v-1.185a.575.575 0 0 0-.57-.57zm.096.667h2.229v.992H3.555zm-.916 2.328a.333.333 0 1 0 0 .665h10.649a.333.333 0 0 0 0-.665zm0 1.331a.333.333 0 1 0 0 .666h10.649a.333.333 0 0 0 0-.666z" style="color:#000;font-style:normal;font-variant:normal;font-weight:400;font-stretch:normal;font-size:medium;line-height:normal;font-family:sans-serif;font-variant-ligatures:normal;font-variant-position:normal;font-variant-caps:normal;font-variant-numeric:normal;font-variant-alternates:normal;font-variant-east-asian:normal;font-feature-settings:normal;font-variation-settings:normal;text-indent:0;text-align:start;text-decoration:none;text-decoration-line:none;text-decoration-style:solid;text-decoration-color:#000;letter-spacing:normal;word-spacing:normal;text-transform:none;writing-mode:lr-tb;direction:ltr;text-orientation:mixed;dominant-baseline:auto;baseline-shift:baseline;text-anchor:start;white-space:normal;shape-padding:0;shape-margin:0;inline-size:0;clip-rule:nonzero;display:inline;overflow:visible;visibility:visible;opacity:1;isolation:auto;mix-blend-mode:normal;color-interpolation:sRGB;color-interpolation-filters:linearRGB;solid-color:#000;solid-opacity:1;vector-effect:none;fill:#d2e9e3;fill-opacity:1;fill-rule:nonzero;stroke:none;stroke-width:.665723;stroke-linecap:round;stroke-linejoin:round;stroke-miterlimit:4;stroke-dasharray:none;stroke-dashoffset:0;stroke-opacity:1;color-rendering:auto;image-rendering:auto;shape-rendering:auto;text-rendering:auto;enable-background:accumulate;stop-color:#000;stop-opacity:1" transform="translate(0 -274.422)"/></svg><svg viewBox="0 0 32 32" id="gulp-icon" xmlns="http://www.w3.org/2000/svg"><path d="M15.942 24.095a15.353 15.353 0 0 1-3.518-.393 6.761 6.761 0 0 1-1.006-.311l.813 1.389.318 4.34c0 .487 1.546.881 3.452.881s3.452-.394 3.452-.881l.252-4.387.769-1.346a6.691 6.691 0 0 1-1.015.315 15.353 15.353 0 0 1-3.517.393ZM20.5 9.973a34.285 34.285 0 0 1-4.5.261 34.285 34.285 0 0 1-4.5-.261 8.43 8.43 0 0 1-1.4-.292 2.03 2.03 0 0 1-.345-.143L10.5 16.4q.052-.177.116-.354a6.711 6.711 0 0 1 .3-.707 6.264 6.264 0 0 1 .376-.653 5.049 5.049 0 0 1 .432-.566 3.45 3.45 0 0 1 .47-.445 2.238 2.238 0 0 1 .487-.291 1.235 1.235 0 0 1 .487-.1 1.051 1.051 0 0 1 .538.152 1.541 1.541 0 0 1 .486.492.393.393 0 0 1 .066.154.838.838 0 0 1 .014.147.391.391 0 0 1-.078.257.233.233 0 0 1-.185.094.237.237 0 0 1-.182-.1 1.953 1.953 0 0 1-.188-.295.712.712 0 0 0-.215-.251.453.453 0 0 0-.255-.078.788.788 0 0 0-.457.177 2.652 2.652 0 0 0-.481.468 5.131 5.131 0 0 0-.457.666 6.946 6.946 0 0 0-.386.767 5.477 5.477 0 0 0-.267.774 2.751 2.751 0 0 0-.1.685 1.64 1.64 0 0 0 .014.208.7.7 0 0 0 .052.194.389.389 0 0 0 .1.143.247.247 0 0 0 .166.056.561.561 0 0 0 .257-.076 1.928 1.928 0 0 0 .3-.2 3.741 3.741 0 0 0 .31-.279q.156-.155.29-.315t.238-.306a1.808 1.808 0 0 0 .156-.255l.284-.85a.4.4 0 0 1 .136-.2.3.3 0 0 1 .173-.058.267.267 0 0 1 .085.014.209.209 0 0 1 .13.125.3.3 0 0 1 .02.114 1.653 1.653 0 0 1-.031.326 2.587 2.587 0 0 1-.078.3q-.047.145-.105.291t-.113.306a.694.694 0 0 0-.044.114l-.078.241q-.046.141-.1.324l-.11.365q-.057.186-.108.365t-.093.324l-.069.242c-.018.065-.03.1-.034.116a.753.753 0 0 1-.049.128.848.848 0 0 1-.079.134.488.488 0 0 1-.1.1.186.186 0 0 1-.113.042.159.159 0 0 1-.142-.065.455.455 0 0 1-.044-.239v-.051a.514.514 0 0 1 0-.054 1.283 1.283 0 0 1 .058-.217q.043-.159.1-.36t.128-.416l.124-.385q-.162.181-.351.36a3.788 3.788 0 0 1-.388.322 2.3 2.3 0 0 1-.4.233.947.947 0 0 1-.388.09.694.694 0 0 1-.368-.094c-.019-.011-.036-.024-.053-.037l.415 4.352c.108.271 2.142.936 4.825.936s4.719-.666 4.825-.937l.6-5.174-.143.132a6.253 6.253 0 0 1-.484.41 2.184 2.184 0 0 1-.444.266 1.153 1.153 0 0 1-.464.094.562.562 0 0 1-.359-.1.337.337 0 0 1-.127-.278v-.027a.184.184 0 0 1 0-.031.657.657 0 0 1 .095-.25 2.868 2.868 0 0 1 .2-.293q.116-.152.247-.308t.243-.295a2.847 2.847 0 0 0 .185-.255.383.383 0 0 0 .073-.188.085.085 0 0 0-.031-.069.16.16 0 0 0-.1-.025.573.573 0 0 0-.252.063 1.251 1.251 0 0 0-.257.17 2.324 2.324 0 0 0-.247.244 3.6 3.6 0 0 0-.226.286q-.105.148-.192.3t-.148.277l-.052.112q-.034.072-.073.163t-.084.186l-.081.181-.066.152-.041.092q-.012.025-.05.123l-.081.212-.1.255-.095.253-.078.21c-.022.06-.037.1-.043.123a1.32 1.32 0 0 1-.072.177.73.73 0 0 1-.095.147.433.433 0 0 1-.122.1.312.312 0 0 1-.154.038.3.3 0 0 1-.182-.052.236.236 0 0 1-.072-.2.631.631 0 0 1 .018-.148 1.322 1.322 0 0 1 .046-.15c.018-.05.037-.1.057-.145s.037-.092.053-.136q.165-.362.336-.725t.328-.72l.063-.147-.019.019a4.054 4.054 0 0 1-.4.338 2.1 2.1 0 0 1-.391.233.922.922 0 0 1-.377.087.487.487 0 0 1-.209-.04.349.349 0 0 1-.134-.108.433.433 0 0 1-.072-.163c0-.021-.008-.044-.011-.066a3.797 3.797 0 0 1-.108.081 2.192 2.192 0 0 1-.373.215.824.824 0 0 1-.33.081.312.312 0 0 1-.238-.1.482.482 0 0 1-.091-.333 1.824 1.824 0 0 1 .049-.387 1.978 1.978 0 0 1-.2.286 1.741 1.741 0 0 1-.272.264 1.358 1.358 0 0 1-.342.193 1.122 1.122 0 0 1-.412.074.737.737 0 0 1-.194-.025.407.407 0 0 1-.163-.087.436.436 0 0 1-.113-.165.679.679 0 0 1-.043-.259s0-.039.012-.11a2.357 2.357 0 0 1 .078-.336q.066-.23.2-.6t.388-.886a.489.489 0 0 1 .148-.2.308.308 0 0 1 .182-.06.335.335 0 0 1 .089.013.286.286 0 0 1 .086.04.215.215 0 0 1 .064.069.187.187 0 0 1 .024.1.251.251 0 0 1-.009.069.824.824 0 0 1-.066.161q-.05.1-.118.228t-.142.277q-.075.148-.139.307a3.069 3.069 0 0 0-.11.324 1.4 1.4 0 0 0-.052.32.238.238 0 0 0 .031.119.107.107 0 0 0 .1.054.638.638 0 0 0 .379-.13 1.683 1.683 0 0 0 .333-.324 3.108 3.108 0 0 0 .276-.416q.124-.222.206-.407a2.063 2.063 0 0 0 .1-.264 2.626 2.626 0 0 1 .1-.26.8.8 0 0 1 .119-.2.211.211 0 0 1 .168-.08.208.208 0 0 1 .174.083.316.316 0 0 1 .064.2.566.566 0 0 1-.041.179q-.041.114-.1.26t-.136.313q-.073.167-.136.338a3.352 3.352 0 0 0-.1.336 1.26 1.26 0 0 0-.041.306.117.117 0 0 0 .134.13.586.586 0 0 0 .235-.065 1.607 1.607 0 0 0 .295-.183l.077-.061a2.511 2.511 0 0 1 .1-.327q.107-.282.217-.561l.2-.51.925-2.333a.391.391 0 0 1 .148-.2.354.354 0 0 1 .188-.058.272.272 0 0 1 .172.061.238.238 0 0 1 .078.2.407.407 0 0 1-.026.137 1.664 1.664 0 0 1-.066.156q-.076.17-.182.416t-.226.535q-.121.289-.247.6l-.247.609-.226.562-.182.461a2.031 2.031 0 0 0-.066.194.713.713 0 0 0-.032.2.177.177 0 0 0 .018.087.073.073 0 0 0 .07.033.4.4 0 0 0 .16-.045 1.638 1.638 0 0 0 .208-.119q.112-.074.232-.17t.24-.2q.119-.1.228-.206t.194-.19a.137.137 0 0 1 .047-.031c.034-.1.066-.2.093-.3l.067-.185a2.535 2.535 0 0 1 .1-.235 1.007 1.007 0 0 1 .124-.2.193.193 0 0 1 .149-.077.24.24 0 0 1 .177.056.226.226 0 0 1 .055.165.6.6 0 0 1-.006.069c0 .031-.009.065-.015.1l-.02.1a.456.456 0 0 1-.02.069q.113-.123.244-.244a2.513 2.513 0 0 1 .272-.219 1.571 1.571 0 0 1 .287-.159.755.755 0 0 1 .293-.061.71.71 0 0 1 .2.029.575.575 0 0 1 .177.085.444.444 0 0 1 .127.141.388.388 0 0 1 .049.2.78.78 0 0 1-.075.317 2.293 2.293 0 0 1-.188.338q-.113.17-.244.331t-.246.293l-.193.224a.338.338 0 0 0-.081.125.1.1 0 0 0 .028.071.128.128 0 0 0 .092.027.352.352 0 0 0 .153-.058 2.6 2.6 0 0 0 .282-.2q.182-.143.461-.383c.128-.11.277-.241.446-.39l.808-7.48a2.024 2.024 0 0 1-.345.143 8.427 8.427 0 0 1-1.403.284ZM16 8.2c-3.492 0-6.322.39-6.322.872s2.822.87 6.322.87 6.322-.39 6.322-.872S19.488 8.2 16 8.2Zm2.524 1.127c0 .113-.336.2-.751.2s-.751-.092-.751-.2.336-.2.751-.2.748.085.748.198Z" style="fill:#da4648"/><path d="M17.17 9.234a.034.034 0 0 0-.006.018c0 .073.271.132.6.132s.6-.059.6-.132l.79-3.2 3.142-3.317c.066-.075-.068-.308-.292-.508s-.466-.267-.541-.191l-3.341 3.523Z" style="fill:#da4648"/></svg><svg viewBox="0 0 32 32" id="html-icon" xmlns="http://www.w3.org/2000/svg"><path style="fill:#e44f26" d="M5.902 27.201 3.655 2h24.69l-2.25 25.197L15.985 30 5.902 27.201z"/><path style="fill:#f1662a" d="m16 27.858 8.17-2.265 1.922-21.532H16v23.797z"/><path style="fill:#ebebeb" d="M16 13.407h-4.09l-.282-3.165H16V7.151H8.25l.074.83.759 8.517H16v-3.091zM16 21.434l-.014.004-3.442-.929-.22-2.465H9.221l.433 4.852 6.332 1.758.014-.004v-3.216z"/><path style="fill:#fff" d="M15.989 13.407v3.091h3.806l-.358 4.009-3.448.93v3.216l6.337-1.757.046-.522.726-8.137.076-.83H15.989zM15.989 7.151V10.242h7.466l.062-.694.141-1.567.074-.83h-7.743z"/></svg><svg id="js-icon" style="enable-background:new 0 0 512 512" version="1.1" viewBox="0 0 512 512" xml:space="preserve" fill="#F26A3F" xmlns="http://www.w3.org/2000/svg"><style>.ist0{fill:#f47822}</style><g id="iXMLID_745_"><path class="ist0" d="M365.6 285.9H40.3v133.9h276.3l49-133.9zm-184.7 80.5c0 6.5-2 11.7-6 15.6-4 3.9-9.1 5.8-15.4 5.8-6.7 0-12-1.7-15.9-5.1-3.9-3.4-5.8-8.4-5.7-15l.1-.3h11c0 3.9.9 6.7 2.8 8.6 1.9 1.9 4.4 2.8 7.7 2.8 3 0 5.4-1.1 7.3-3.4 1.9-2.2 2.8-5.2 2.8-9v-47.6h11.3v47.6zm57.7 16.4c-4.4 3.4-10.2 5-17.4 5-6.9 0-12.9-1.8-18.1-5.5-5.1-3.7-7.6-8.9-7.5-15.6l.1-.3h10.9c0 4.1 1.4 7.2 4.2 9.2 2.8 2.1 6.3 3.1 10.3 3.1 4 0 7.1-.8 9.4-2.5 2.2-1.7 3.3-4 3.3-6.9 0-2.8-1-5.2-3-7-2-1.8-5.6-3.4-10.7-4.9-7.3-2-13-4.7-16.9-8-4-3.3-6-7.6-6-12.9 0-5.5 2.2-10 6.5-13.6 4.4-3.6 10-5.3 16.8-5.3 7.4 0 13.2 2 17.6 5.9 4.4 3.9 6.5 8.8 6.4 14.6l-.1.3h-10.9c0-3.6-1.2-6.4-3.6-8.6-2.4-2.1-5.6-3.2-9.5-3.2-3.8 0-6.8.9-8.9 2.7-2.1 1.8-3.1 4.1-3.1 7 0 2.6 1.1 4.8 3.4 6.5 2.3 1.7 6 3.3 11.3 4.8 7.1 2 12.6 4.7 16.3 8.2 3.7 3.4 5.6 7.8 5.6 13.2.2 5.9-2 10.4-6.4 13.8z" id="iXMLID_749_"/><path class="ist0" d="M352.9 6H107.4c-7.3 0-13.3 6-13.3 13.3v256.8h26.6V32.6h232.2v92.2h92.2v354.6H120.7v-49.8H94.1v63.1c0 7.3 6 13.3 13.3 13.3h351c7.3 0 13.3-6 13.3-13.3V124.8L352.9 6z" id="iXMLID_748_"/><path class="ist0" id="iXMLID_747_" d="M156.2 171.4h253.4V191H156.2z"/><path class="ist0" id="iXMLID_746_" d="M156.2 209.5h213.3v19.6H156.2z"/></g></svg><svg viewBox="0 0 200 20" fill="none" id="logo" xmlns="http://www.w3.org/2000/svg"><path d="m10.537 15-1.035-3.398H4.297L3.262 15H0L5.04.664h3.7L13.8 15h-3.262ZM8.78 9.062l-1.035-3.32a37.922 37.922 0 0 0-.264-.85 94.97 94.97 0 0 0-.322-1.064c-.104-.364-.189-.68-.254-.947-.065.267-.156.599-.273.996a97.05 97.05 0 0 1-.547 1.865l-1.025 3.32h3.72Zm13.75-4.98h3.282l-4.327 5.234L26.191 15h-3.378L18.35 9.463V15H15.37V4.082h2.979v5.303l4.18-5.303Zm8.106 0v4.316c0 .222-.01.502-.03.84-.013.332-.032.67-.058 1.016a48.68 48.68 0 0 1-.078.928c-.026.273-.046.459-.059.556l5.04-7.656h3.583V15h-2.88v-4.355c0-.358.012-.752.038-1.182.026-.436.056-.846.088-1.23.033-.385.056-.674.069-.87L31.328 15h-3.574V4.082h2.88Zm25.293 0V15h-2.783V9.639c0-.528.01-1.045.029-1.553.02-.508.049-.977.088-1.406h-.059L50.185 15H47.95l-3.066-8.34h-.078c.052.436.088.905.107 1.406.02.502.03 1.052.03 1.65V15h-2.774V4.082h4.219l2.715 7.402 2.763-7.402h4.063Zm13.056 5.44c0 .91-.123 1.718-.37 2.421a4.772 4.772 0 0 1-1.065 1.787 4.476 4.476 0 0 1-1.68 1.094c-.65.248-1.387.371-2.207.371a5.866 5.866 0 0 1-2.119-.37 4.711 4.711 0 0 1-1.67-1.095 5.1 5.1 0 0 1-1.094-1.787c-.254-.703-.38-1.51-.38-2.422 0-1.21.214-2.236.644-3.076.43-.84 1.042-1.478 1.836-1.914.794-.436 1.741-.654 2.842-.654 1.022 0 1.927.218 2.715.654.794.436 1.416 1.074 1.865 1.914.456.84.683 1.866.683 3.076Zm-7.548 0c0 .716.078 1.318.234 1.806.156.488.4.856.732 1.104.332.247.765.37 1.3.37.526 0 .953-.123 1.279-.37.332-.248.572-.616.722-1.104.156-.488.234-1.09.234-1.807 0-.722-.078-1.321-.234-1.796-.15-.482-.39-.843-.722-1.084-.333-.241-.765-.362-1.3-.362-.787 0-1.36.27-1.718.81-.352.541-.528 1.352-.528 2.432Zm19.687-2.579c0 .586-.186 1.088-.557 1.504-.364.41-.904.674-1.62.791v.078c.755.092 1.363.355 1.826.791.462.43.693.974.693 1.631 0 .625-.163 1.185-.488 1.68-.326.488-.844.876-1.553 1.162-.71.28-1.638.42-2.783.42h-5.196V4.082h5.196c.852 0 1.617.091 2.294.273.678.176 1.212.472 1.602.89.39.416.586.982.586 1.698Zm-2.744 4.639c0-.43-.17-.739-.508-.928-.332-.195-.827-.293-1.484-.293h-1.963v2.579h2.021c.56 0 1.022-.105 1.387-.313.365-.208.547-.557.547-1.045Zm-.273-4.404c0-.339-.134-.59-.4-.752-.268-.163-.662-.244-1.183-.244h-2.1V8.34h1.759c.631 0 1.11-.091 1.435-.274.326-.182.489-.478.489-.888ZM98.193 15l-1.035-3.398h-5.205L90.918 15h-3.262L92.696.664h3.7L101.456 15h-3.262Zm-1.757-5.938L95.4 5.742a37.841 37.841 0 0 0-.263-.85 95.165 95.165 0 0 0-.323-1.064c-.104-.364-.188-.68-.253-.947a22.31 22.31 0 0 1-.274.996 96.83 96.83 0 0 1-.547 1.865l-1.025 3.32h3.72ZM112.803 15h-2.979V6.318h-2.744c-.137 1.602-.299 2.966-.488 4.092-.189 1.127-.43 2.044-.723 2.754-.293.703-.657 1.218-1.094 1.543-.436.326-.973.488-1.611.488a5.2 5.2 0 0 1-.947-.078 3.27 3.27 0 0 1-.752-.234V12.5c.143.059.296.107.459.146.163.033.329.05.498.05a.8.8 0 0 0 .537-.225c.169-.15.329-.407.479-.772.149-.37.289-.882.419-1.533.137-.651.261-1.475.372-2.47.11-.997.214-2.201.312-3.614h8.262V15Zm7.636-11.123c1.01 0 1.879.195 2.608.586a4.003 4.003 0 0 1 1.689 1.68c.397.735.596 1.634.596 2.695v1.445h-7.041c.033.84.283 1.5.752 1.983.475.475 1.133.713 1.973.713.696 0 1.334-.072 1.914-.215a9.754 9.754 0 0 0 1.787-.645v2.305a7.107 7.107 0 0 1-1.699.586c-.586.123-1.299.185-2.139.185-1.094 0-2.064-.202-2.91-.605a4.521 4.521 0 0 1-1.983-1.846c-.475-.827-.713-1.868-.713-3.125 0-1.276.215-2.337.645-3.183.436-.853 1.042-1.491 1.816-1.915.775-.43 1.677-.644 2.705-.644Zm.02 2.12c-.579 0-1.061.185-1.445.556-.378.37-.596.954-.655 1.748h4.18a2.938 2.938 0 0 0-.244-1.182 1.837 1.837 0 0 0-.684-.82c-.299-.202-.683-.303-1.152-.303Zm14.453-1.915h3.281l-4.326 5.234L138.574 15h-3.379l-4.463-5.537V15h-2.978V4.082h2.978v5.303l4.18-5.303Zm9.658 11.113c-1.08 0-2.002-.195-2.763-.586-.762-.397-1.342-1.009-1.739-1.836-.397-.826-.595-1.884-.595-3.173 0-1.335.224-2.422.673-3.262.456-.846 1.084-1.468 1.885-1.865.808-.397 1.742-.596 2.803-.596.755 0 1.406.075 1.953.225a7.592 7.592 0 0 1 1.445.517l-.878 2.305a13.902 13.902 0 0 0-1.309-.46 4.115 4.115 0 0 0-1.211-.185c-.521 0-.954.124-1.299.371-.345.241-.602.606-.771 1.094-.17.488-.254 1.1-.254 1.836 0 .723.091 1.322.273 1.797.182.475.446.83.791 1.064.345.228.765.342 1.26.342.618 0 1.169-.081 1.65-.244a6.46 6.46 0 0 0 1.407-.703v2.549a4.894 4.894 0 0 1-1.436.615c-.495.13-1.123.195-1.885.195Zm10.332-11.338c1.465 0 2.588.32 3.369.957.782.638 1.172 1.609 1.172 2.91V15h-2.08l-.576-1.484h-.078a5.57 5.57 0 0 1-.957.957c-.326.247-.7.43-1.123.546-.423.118-.938.176-1.543.176-.645 0-1.224-.123-1.738-.37a2.762 2.762 0 0 1-1.202-1.134c-.292-.514-.439-1.165-.439-1.953 0-1.159.407-2.011 1.221-2.558.814-.554 2.034-.86 3.662-.918l1.894-.059v-.478c0-.573-.149-.993-.449-1.26-.299-.267-.716-.4-1.25-.4-.527 0-1.045.074-1.553.224-.507.15-1.015.339-1.523.566l-.986-2.011a8.461 8.461 0 0 1 1.943-.723 9.429 9.429 0 0 1 2.236-.264Zm1.582 6.084-1.152.04c-.964.026-1.634.198-2.012.517-.371.32-.556.739-.556 1.26 0 .456.133.781.4.976.267.19.615.284 1.045.284.638 0 1.175-.19 1.611-.567.443-.377.664-.915.664-1.611V9.94Zm9.014-5.859v4.2h4.16v-4.2h2.979V15h-2.979v-4.502h-4.16V15h-2.978V4.082h2.978Zm20.078 0v8.74h1.602v6.094h-2.676V15h-7.344v3.916h-2.676v-6.094h.918c.482-.735.886-1.575 1.211-2.52.332-.943.599-1.943.801-2.997a29.56 29.56 0 0 0 .449-3.223h7.715Zm-2.978 2.236h-2.237a28.166 28.166 0 0 1-.4 2.344 18.927 18.927 0 0 1-.586 2.168c-.234.69-.521 1.354-.859 1.992h4.082V6.318Zm12.519-2.441c1.231 0 2.223.478 2.979 1.436.761.957 1.142 2.36 1.142 4.208 0 1.237-.179 2.28-.537 3.125-.358.84-.853 1.475-1.484 1.905-.632.43-1.358.644-2.178.644-.527 0-.98-.065-1.357-.195-.378-.137-.7-.31-.967-.518a4.633 4.633 0 0 1-.694-.683h-.156a8.46 8.46 0 0 1 .156 1.602v4.404h-2.978V4.082h2.422l.42 1.416h.136c.196-.293.433-.563.713-.81.28-.248.616-.443 1.006-.586.397-.15.856-.225 1.377-.225Zm-.957 2.383c-.521 0-.934.107-1.24.322-.306.215-.531.537-.674.967-.137.43-.211.973-.225 1.63v.323c0 .703.066 1.299.196 1.787.137.488.361.86.674 1.113.319.254.755.381 1.308.381.456 0 .83-.127 1.123-.38.293-.255.511-.626.655-1.114.149-.495.224-1.097.224-1.807 0-1.067-.166-1.871-.498-2.412-.332-.54-.846-.81-1.543-.81Z" fill="#D2E9E3"/></svg><svg viewBox="0 0 32 32" id="photoshop-icon" xmlns="http://www.w3.org/2000/svg"><path d="M3.167 3.517h25.666v24.966H3.167Z" style="fill:#0c0824"/><path d="M3.167 3.517h25.666v24.966H3.167ZM2 29.65h28V2.35H2Zm18.877-16.1c-.922 0-1.237.467-1.237.852 0 .42.21.712 1.447 1.353 1.832.887 2.4 1.738 2.4 2.987 0 1.867-1.423 2.87-3.348 2.87a5.076 5.076 0 0 1-2.392-.5c-.082-.035-.093-.093-.093-.187v-1.717c0-.117.058-.152.14-.093a4.33 4.33 0 0 0 2.345.688c.922 0 1.307-.385 1.307-.91 0-.42-.268-.793-1.447-1.4-1.657-.793-2.345-1.6-2.345-2.94 0-1.505 1.178-2.753 3.22-2.753a5.365 5.365 0 0 1 2.088.327.258.258 0 0 1 .117.233v1.6c0 .093-.058.152-.175.117a3.941 3.941 0 0 0-2.03-.525Zm-10.034 1.388c.268.023.478.023.945.023 1.365 0 2.648-.478 2.648-2.333 0-1.482-.922-2.228-2.473-2.228-.467 0-.91.023-1.12.035Zm-2.077-6.2c0-.082.163-.14.257-.14a69.782 69.782 0 0 1 3.01-.058c3.232 0 4.492 1.773 4.492 4.037 0 2.963-2.147 4.235-4.783 4.235-.443 0-.595-.023-.91-.023v4.48c0 .093-.035.14-.14.14H8.907c-.093 0-.14-.035-.14-.14V8.743Z" style="fill:#31c5f0"/></svg><svg viewBox="0 0 128 128" id="sass-icon" xmlns="http://www.w3.org/2000/svg"><path fill-rule="evenodd" clip-rule="evenodd" fill="#CB6699" d="M1.219 56.156c0 .703.207 1.167.323 1.618.756 2.933 2.381 5.45 4.309 7.746 2.746 3.272 6.109 5.906 9.554 8.383 2.988 2.148 6.037 4.248 9.037 6.38.515.366 1.002.787 1.561 1.236-.481.26-.881.489-1.297.7-3.959 2.008-7.768 4.259-11.279 6.986-2.116 1.644-4.162 3.391-5.607 5.674-2.325 3.672-3.148 7.584-1.415 11.761.506 1.22 1.278 2.274 2.367 3.053.353.252.749.502 1.162.6 1.058.249 2.136.412 3.207.609l3.033-.002c3.354-.299 6.407-1.448 9.166-3.352 4.312-2.976 7.217-6.966 8.466-12.087.908-3.722.945-7.448-.125-11.153a11.696 11.696 0 0 0-.354-1.014c-.13-.333-.283-.657-.463-1.072l6.876-3.954.103.088c-.125.409-.258.817-.371 1.23-.817 2.984-1.36 6.02-1.165 9.117.208 3.3 1.129 6.389 3.061 9.146 1.562 2.23 5.284 2.313 6.944.075.589-.795 1.16-1.626 1.589-2.513 1.121-2.315 2.159-4.671 3.23-7.011l.187-.428c-.077 1.108-.167 2.081-.208 3.055-.064 1.521.025 3.033.545 4.48.445 1.238 1.202 2.163 2.62 2.326.97.111 1.743-.333 2.456-.896a10.384 10.384 0 0 0 2.691-3.199c1.901-3.491 3.853-6.961 5.576-10.54 1.864-3.871 3.494-7.855 5.225-11.792l.286-.698c.409 1.607.694 3.181 1.219 4.671.61 1.729 1.365 3.417 2.187 5.058.389.775.344 1.278-.195 1.928-2.256 2.72-4.473 5.473-6.692 8.223-.491.607-.98 1.225-1.389 1.888a3.701 3.701 0 0 0-.48 1.364 1.737 1.737 0 0 0 1.383 1.971 9.661 9.661 0 0 0 2.708.193c3.097-.228 5.909-1.315 8.395-3.157 3.221-2.386 4.255-5.642 3.475-9.501-.211-1.047-.584-2.065-.947-3.074-.163-.455-.174-.774.123-1.198 2.575-3.677 4.775-7.578 6.821-11.569.081-.157.164-.314.306-.482.663 3.45 1.661 6.775 3.449 9.792-.912.879-1.815 1.676-2.632 2.554-1.799 1.934-3.359 4.034-4.173 6.595-.35 1.104-.619 2.226-.463 3.405.242 1.831 1.742 3.021 3.543 2.604 3.854-.892 7.181-2.708 9.612-5.925 1.636-2.166 1.785-4.582 1.1-7.113-.188-.688-.411-1.365-.651-2.154.951-.295 1.878-.649 2.837-.868 4.979-1.136 9.904-.938 14.702.86 2.801 1.05 5.064 2.807 6.406 5.571 1.639 3.379.733 6.585-2.452 8.721-.297.199-.637.356-.883.605a.869.869 0 0 0-.205.67c.021.123.346.277.533.275 1.047-.008 1.896-.557 2.711-1.121 2.042-1.413 3.532-3.314 3.853-5.817l.063-.188-.077-1.63c-.031-.094.023-.187.016-.258-.434-3.645-2.381-6.472-5.213-8.688-3.28-2.565-7.153-3.621-11.249-3.788a25.401 25.401 0 0 0-9.765 1.503c-.897.325-1.786.71-2.688 1.073-.121-.219-.251-.429-.358-.646-.926-1.896-2.048-3.708-2.296-5.882-.176-1.544-.392-3.086-.025-4.613.353-1.469.813-2.913 1.246-4.362.223-.746.066-1.164-.646-1.5a2.854 2.854 0 0 0-.786-.258c-1.75-.254-3.476-.109-5.171.384-.6.175-1.036.511-1.169 1.175-.076.381-.231.746-.339 1.122-.443 1.563-.757 3.156-1.473 4.645-1.794 3.735-3.842 7.329-5.938 10.897-.227.385-.466.763-.752 1.23-.736-1.54-1.521-2.922-1.759-4.542-.269-1.832-.481-3.661-.025-5.479.339-1.356.782-2.687 1.19-4.025.193-.636.104-.97-.472-1.305-.291-.169-.62-.319-.948-.368a11.643 11.643 0 0 0-5.354.438c-.543.176-.828.527-.994 1.087-.488 1.652-.904 3.344-1.589 4.915-2.774 6.36-5.628 12.687-8.479 19.013-.595 1.321-1.292 2.596-1.963 3.882-.17.326-.418.613-.63.919-.17-.201-.236-.339-.235-.477.005-.813-.092-1.65.063-2.436a172.189 172.189 0 0 1 1.578-7.099c.47-1.946 1.017-3.874 1.538-5.807.175-.647.178-1.252-.287-1.796-.781-.911-2.413-1.111-3.381-.409l-.428.242.083-.69c.204-1.479.245-2.953-.161-4.41-.506-1.816-1.802-2.861-3.686-2.803-.878.027-1.8.177-2.613.497-3.419 1.34-6.048 3.713-8.286 6.568a2.592 2.592 0 0 1-.757.654c-2.893 1.604-5.795 3.188-8.696 4.778l-3.229 1.769c-.866-.826-1.653-1.683-2.546-2.41-2.727-2.224-5.498-4.393-8.244-6.592-2.434-1.949-4.792-3.979-6.596-6.56-1.342-1.92-2.207-4.021-2.29-6.395-.105-3.025.753-5.789 2.293-8.362 1.97-3.292 4.657-5.934 7.611-8.327 3.125-2.53 6.505-4.678 10.008-6.639 4.901-2.743 9.942-5.171 15.347-6.774 5.542-1.644 11.165-2.585 16.965-1.929 2.28.258 4.494.78 6.527 1.895 1.557.853 2.834 1.97 3.428 3.716.586 1.718.568 3.459.162 5.204-.825 3.534-2.76 6.447-5.195 9.05-3.994 4.267-8.866 7.172-14.351 9.091a39.478 39.478 0 0 1-9.765 2.083c-2.729.229-5.401-.013-7.985-.962-1.711-.629-3.201-1.591-4.399-2.987-.214-.25-.488-.521-.887-.287-.391.23-.46.602-.329.979.219.626.421 1.278.762 1.838.857 1.405 2.107 2.424 3.483 3.298 2.643 1.681 5.597 2.246 8.66 2.377 4.648.201 9.183-.493 13.654-1.74 6.383-1.78 11.933-4.924 16.384-9.884 3.706-4.13 6.353-8.791 6.92-14.419.277-2.747-.018-5.438-1.304-7.944-1.395-2.715-3.613-4.734-6.265-6.125C68.756 18.179 64.588 17 60.286 17h-4.31c-5.21 0-10.247 1.493-15.143 3.274-3.706 1.349-7.34 2.941-10.868 4.703-7.683 3.839-14.838 8.468-20.715 14.833-2.928 3.171-5.407 6.67-6.833 10.79a40.494 40.494 0 0 0-1.111 3.746m27.839 36.013c-.333 4.459-2.354 8.074-5.657 11.002-1.858 1.646-3.989 2.818-6.471 3.23-.9.149-1.821.185-2.694-.188-1.245-.532-1.524-1.637-1.548-2.814-.037-1.876.62-3.572 1.521-5.186 1.176-2.104 2.9-3.708 4.741-5.206 2.9-2.361 6.046-4.359 9.268-6.245l.243-.1c.498 1.84.735 3.657.597 5.507zM54.303 70.98c-.235 1.424-.529 2.849-.945 4.229-1.438 4.777-3.285 9.406-5.282 13.973-.369.845-.906 1.616-1.373 2.417a1.689 1.689 0 0 1-.283.334c-.578.571-1.126.541-1.418-.206-.34-.868-.549-1.797-.729-2.716-.121-.617-.092-1.265-.13-1.897.039-4.494 1.41-8.578 3.736-12.38.959-1.568 2.003-3.062 3.598-4.054a6.27 6.27 0 0 1 1.595-.706c.85-.239 1.372.154 1.231 1.006zm17.164 21.868 6.169-7.203c.257 2.675-4.29 8.015-6.169 7.203zm19.703-4.847c-.436.25-.911.43-1.358.661-.409.212-.544-.002-.556-.354a2.385 2.385 0 0 1 .093-.721c.833-2.938 2.366-5.446 4.647-7.486l.16-.082c1.085 3.035-.169 6.368-2.986 7.982z"/></svg><svg viewBox="0 0 22.578 22.578" id="semantics" xmlns="http://www.w3.org/2000/svg"><path d="M14.604 276.606c-2.063 2.062-4.124 4.125-6.186 6.188a.333.333 0 0 0-.088.117l-.946 2.126a.767.767 0 0 0 .158.845.767.767 0 0 0 .845.158l2.109-.94a.326.326 0 0 0 .127-.088l6.195-6.195a1.001 1.001 0 0 0 0-1.41l-.8-.801c-.504-.478-.966-.409-1.414 0zm.941.469.801.801a.329.329 0 0 1 0 .472l-1.325 1.326-1.272-1.272 1.327-1.327c.189-.148.285-.16.47 0zm-8.918 1.099c-.547 0-.998.45-.998.997v2.996H1.97c-.548 0-.999.452-.999 1v10.984c0 .548.45.998.998.998H15.95c.548 0 .998-.45.998-.998v-2.995h3.662c.547 0 .998-.453.998-1V279.17c0-.548-.45-.997-.998-.997h-2.664a.333.333 0 0 0 0 .665h2.664c.187 0 .334.144.334.332v.998h-4.661a.333.333 0 0 0 0 .666h4.66v9.32a.33.33 0 0 1-.333.335c-4.663-.005-9.316 0-13.983 0a.328.328 0 0 1-.331-.334v-9.321H9.29a.333.333 0 1 0 0-.666H6.296v-.998c0-.188.144-.332.331-.332h4.662a.333.333 0 0 0 0-.665zm6.652.7 1.27 1.27-4.174 4.173-1.272-1.269zm-5.986.297a.333.333 0 1 0 .003.666.333.333 0 0 0-.003-.666zm1.332 0a.333.333 0 1 0 .002.666.333.333 0 0 0-.002-.666zm1.331 0a.333.333 0 1 0 .003.666.333.333 0 0 0-.003-.666zm-7.988 3.662H5.63v1.331H1.634v-.997a.33.33 0 0 1 .334-.334zm.665.333a.333.333 0 1 0 .002.666.333.333 0 0 0-.002-.666zm1.331 0a.333.333 0 1 0 .003.666.333.333 0 0 0-.003-.666zm10.32 0a.67.67 0 0 0-.665.666v.664a.67.67 0 0 0 .666.666v2.664a.67.67 0 0 0-.666.666v.666c0 .363.302.666.666.666h.665a.671.671 0 0 0 .666-.666h2.664c0 .363.303.666.666.666h.666a.671.671 0 0 0 .666-.666v-.666a.67.67 0 0 0-.666-.666v-2.664a.67.67 0 0 0 .666-.666v-.663a.67.67 0 0 0-.666-.666h-.666a.671.671 0 0 0-.666.665h-2.664a.67.67 0 0 0-.666-.665zm-5.544.458 1.058 1.056-1.682.75c-.053.024-.076.009-.105-.02-.029-.028-.043-.05-.02-.103zm5.545.208h.665v.664h-.665zm4.661 0h.666v.665h-.666zm-3.33.665h2.664c0 .363.303.665.666.665v2.664a.671.671 0 0 0-.666.666h-2.664a.67.67 0 0 0-.666-.666v-2.664a.67.67 0 0 0 .666-.665zm-13.982.334h3.995v.727a.979.979 0 0 0-.331-.061H3.3c-.548 0-1 .45-1 .997v1.666c0 .548.452.998 1 .998h1.998a.979.979 0 0 0 .331-.061v1.059c0 .547.45 1 .998 1h9.656v2.995a.327.327 0 0 1-.333.332H1.968a.329.329 0 0 1-.334-.332zm15.314.331c-.731 0-1.332.6-1.332 1.332 0 .731.601 1.332 1.332 1.332.732 0 1.332-.6 1.332-1.332 0-.732-.6-1.332-1.332-1.332zm0 .666a.66.66 0 0 1 .666.666.661.661 0 0 1-.666.666.661.661 0 0 1-.665-.666.66.66 0 0 1 .665-.666zm-13.648.334h1.998c.188 0 .331.144.331.332v1.666a.326.326 0 0 1-.331.332H3.3a.328.328 0 0 1-.334-.332v-1.666c0-.188.146-.332.334-.332zm5.991.332a.333.333 0 0 0 0 .666h2.664a.333.333 0 0 0 0-.666zm-1.998 1.332a.333.333 0 0 0 0 .666h4.662a.333.333 0 0 0 0-.666zm6.992.666h.665v.666h-.665zm4.661 0h.666v.666h-.666zm-11.653.666a.333.333 0 0 0 0 .666h4.662a.333.333 0 0 0 0-.666zm-3.661.666c-.731 0-1.332.6-1.332 1.332v1.332c0 .732.6 1.332 1.332 1.332.731 0 1.332-.6 1.332-1.332v-1.332c0-.732-.6-1.332-1.332-1.332zm0 .666a.66.66 0 0 1 .666.666v1.332a.66.66 0 0 1-.666.666.661.661 0 0 1-.666-.666v-1.332c0-.372.294-.666.666-.666zm8.323 1.332a.333.333 0 1 0 0 .666h.332a.333.333 0 1 0 0-.666zm1.998 0a.333.333 0 1 0 0 .666h.332a.333.333 0 1 0 0-.666zm-7.99 1.332a.333.333 0 1 0 0 .666h4.66a.333.333 0 1 0 0-.666zm5.992 0a.333.333 0 1 0 0 .666h.666a.333.333 0 0 0 0-.666zm1.998 0a.333.333 0 1 0 0 .666h1.332a.333.333 0 0 0 0-.666z" style="color:#000;font-style:normal;font-variant:normal;font-weight:400;font-stretch:normal;font-size:medium;line-height:normal;font-family:sans-serif;font-variant-ligatures:normal;font-variant-position:normal;font-variant-caps:normal;font-variant-numeric:normal;font-variant-alternates:normal;font-variant-east-asian:normal;font-feature-settings:normal;font-variation-settings:normal;text-indent:0;text-align:start;text-decoration:none;text-decoration-line:none;text-decoration-style:solid;text-decoration-color:#000;letter-spacing:normal;word-spacing:normal;text-transform:none;writing-mode:lr-tb;direction:ltr;text-orientation:mixed;dominant-baseline:auto;baseline-shift:baseline;text-anchor:start;white-space:normal;shape-padding:0;shape-margin:0;inline-size:0;clip-rule:nonzero;display:inline;overflow:visible;visibility:visible;opacity:1;isolation:auto;mix-blend-mode:normal;color-interpolation:sRGB;color-interpolation-filters:linearRGB;solid-color:#000;solid-opacity:1;vector-effect:none;fill:#d2e9e3;fill-opacity:1;fill-rule:nonzero;stroke:none;stroke-width:.665789;stroke-linecap:round;stroke-linejoin:round;stroke-miterlimit:4;stroke-dasharray:none;stroke-dashoffset:0;stroke-opacity:1;color-rendering:auto;image-rendering:auto;shape-rendering:auto;text-rendering:auto;enable-background:accumulate;stop-color:#000;stop-opacity:1" transform="translate(0 -274.422)"/></svg><svg viewBox="0 0 22.578 22.578" id="validity" xmlns="http://www.w3.org/2000/svg"><path style="color:#000;font-style:normal;font-variant:normal;font-weight:400;font-stretch:normal;font-size:medium;line-height:normal;font-family:sans-serif;font-variant-ligatures:normal;font-variant-position:normal;font-variant-caps:normal;font-variant-numeric:normal;font-variant-alternates:normal;font-variant-east-asian:normal;font-feature-settings:normal;font-variation-settings:normal;text-indent:0;text-align:start;text-decoration:none;text-decoration-line:none;text-decoration-style:solid;text-decoration-color:#000;letter-spacing:normal;word-spacing:normal;text-transform:none;writing-mode:lr-tb;direction:ltr;text-orientation:mixed;dominant-baseline:auto;baseline-shift:baseline;text-anchor:start;white-space:normal;shape-padding:0;shape-margin:0;inline-size:0;clip-rule:nonzero;display:inline;overflow:visible;visibility:visible;isolation:auto;mix-blend-mode:normal;color-interpolation:sRGB;color-interpolation-filters:linearRGB;solid-color:#000;solid-opacity:1;vector-effect:none;fill:#d2e9e3;fill-opacity:1;fill-rule:nonzero;stroke:none;stroke-width:.529167;stroke-linecap:round;stroke-linejoin:round;stroke-miterlimit:4;stroke-dasharray:none;stroke-dashoffset:0;stroke-opacity:1;color-rendering:auto;image-rendering:auto;shape-rendering:auto;text-rendering:auto;enable-background:accumulate;stop-color:#000" d="M2.636 277.39c-.916 0-1.666.747-1.666 1.663v13.316c0 .916.75 1.663 1.666 1.663h17.309c.916 0 1.663-.747 1.663-1.663v-13.316c0-.916-.747-1.663-1.663-1.663zm0 .666h17.309c.559 0 .997.438.997.997v13.316a.987.987 0 0 1-.997.997H2.636a.99.99 0 0 1-1-.997v-13.316a.99.99 0 0 1 1-.997zm0 .666a.333.333 0 0 0-.334.331.333.333 0 0 0 .334.334h.332a.333.333 0 0 0 .334-.334.333.333 0 0 0-.334-.331zm1.663 0a.333.333 0 0 0-.331.331.333.333 0 0 0 .331.334h.335a.333.333 0 0 0 .332-.334.333.333 0 0 0-.332-.331zm1.664 0a.333.333 0 0 0-.331.331.333.333 0 0 0 .331.334h.334a.333.333 0 0 0 .332-.334.333.333 0 0 0-.332-.331zm8.49 0a.333.333 0 0 0-.335.331.333.333 0 0 0 .335.334h.332a.333.333 0 0 0 .334-.334.333.333 0 0 0-.334-.331zm1.496 0a.333.333 0 0 0-.332.331.333.333 0 0 0 .332.334h.334a.333.333 0 0 0 .332-.334.333.333 0 0 0-.332-.331zm1.666 0a.333.333 0 0 0-.334.331.333.333 0 0 0 .334.334h2.33a.333.333 0 0 0 .334-.334.333.333 0 0 0-.334-.331zm-4.54 2.199a.333.333 0 0 0-.335.332v.857h-1.45a.333.333 0 0 0-.334.332v1.154l-1.484 1.485h-2.01v-.855a.333.333 0 0 0-.331-.335H4.75a.333.333 0 0 0-.33.335v2.376a.333.333 0 0 0 .33.334h2.38a.333.333 0 0 0 .331-.334v-.855h.833v1.857l-1.624 2.376a.333.333 0 0 0 .275.521h3.361a.333.333 0 0 0 .276-.52l-1.622-2.374v-1.86h.51l1.583 1.585a.333.333 0 0 0 .472 0l1.68-1.683a.333.333 0 0 0 0-.47l-1.584-1.585v-.818h1.118v.855a.333.333 0 0 0 .334.332h2.045v2.901h-2.045a.333.333 0 0 0-.334.333v2.378a.333.333 0 0 0 .334.332h4.755a.333.333 0 0 0 .332-.332v-2.378a.333.333 0 0 0-.332-.333h-2.045v-2.901h2.045a.333.333 0 0 0 .332-.332v-2.378a.333.333 0 0 0-.332-.332zm.33.666h4.09v1.71h-4.09v-.836a.333.333 0 0 0 0-.02zm-2.115 2.616 1.212 1.212-1.212 1.209-1.211-1.209zm-6.207.354h1.713v1.713H5.083Zm8.323 2.974h4.089v1.712h-4.09Zm-4.78.769 1.053 1.536H7.577Zm-5.99 1.74a.333.333 0 0 0-.334.331v1.998a.333.333 0 0 0 .334.332h1.998a.333.333 0 0 0 .332-.332v-1.998a.333.333 0 0 0-.332-.331zm.332.665h1.331v1.33H2.968Zm6.493 1.331a.333.333 0 0 0-.335.332.333.333 0 0 0 .335.334h.331a.333.333 0 0 0 .334-.334.333.333 0 0 0-.334-.332zm1.663 0a.333.333 0 0 0-.334.332.333.333 0 0 0 .334.334h.331a.333.333 0 0 0 .335-.334.333.333 0 0 0-.335-.332zm1.663 0a.333.333 0 0 0-.331.332.333.333 0 0 0 .331.334h.335a.333.333 0 0 0 .331-.334.333.333 0 0 0-.331-.332z" transform="translate(0 -274.422)"/></svg><svg viewBox="0 0 22.578 22.578" id="Ñrossbrowser" xmlns="http://www.w3.org/2000/svg"><path d="M2.032 277.39a1 1 0 0 0-.782.404 1.43 1.43 0 0 0-.28.876v10.09c0 .33.098.636.28.872.182.236.464.408.782.408h7.21l-.24 1.663h-2.04c-.53 0-1.023.279-1.296.733l-.312.523a.667.667 0 0 0-.089.408h-.633a.333.333 0 0 0-.334.334.333.333 0 0 0 .334.332h13.314a.333.333 0 0 0 .334-.332.333.333 0 0 0-.334-.334h-.633a.667.667 0 0 0-.09-.408l-.312-.523a1.513 1.513 0 0 0-1.295-.733h-2.04l-.24-1.663h7.21c.318 0 .6-.172.781-.408.182-.236.28-.542.28-.873v-10.09a1.43 1.43 0 0 0-.28-.875 1 1 0 0 0-.781-.405zm0 .665h18.514c.086 0 .171.042.253.148a.78.78 0 0 1 .145.467v9.038H1.634v-9.038a.78.78 0 0 1 .145-.467c.082-.106.167-.148.253-.148zm1.04.666a.87.87 0 0 0-.52.16.64.64 0 0 0-.27.506v5.66c0 .214.123.395.27.503a.87.87 0 0 0 .52.162h16.417c.192 0 .37-.054.519-.162a.636.636 0 0 0 .27-.503v-5.66a.64.64 0 0 0-.27-.506.866.866 0 0 0-.519-.16zm0 .666h16.417c.06 0 .105.02.123.032v5.593a.225.225 0 0 1-.123.035H3.072a.226.226 0 0 1-.123-.035v-5.593a.228.228 0 0 1 .123-.032zm1.55.666a.333.333 0 0 0-.02 0 .333.333 0 0 0-.223.096l-.666.666a.333.333 0 0 0 0 .472l.666.665a.333.333 0 0 0 .47 0 .333.333 0 0 0 0-.47l-.43-.431.43-.43a.333.333 0 0 0 0-.472.333.333 0 0 0-.227-.096zm3.33 0a.333.333 0 0 0-.02 0 .333.333 0 0 0-.226.096.333.333 0 0 0 0 .472l.43.43-.43.43a.333.333 0 0 0 0 .471.333.333 0 0 0 .472 0l.666-.665a.333.333 0 0 0 0-.472l-.666-.666a.333.333 0 0 0-.226-.096zm-1.35 0a.333.333 0 0 0-.29.184l-.665 1.33a.333.333 0 0 0 .15.447.333.333 0 0 0 .447-.147l.666-1.333a.333.333 0 0 0-.15-.446.333.333 0 0 0-.157-.035zm9.68 0a.672.672 0 0 0-.666.666v2.995c0 .363.304.666.667.666h1.997a.672.672 0 0 0 .666-.666v-2.995a.672.672 0 0 0-.666-.666zm0 .666h1.998v2.995h-1.997zm-6.342.332a.333.333 0 0 0-.332.334.333.333 0 0 0 .332.331h.332a.333.333 0 0 0 .334-.331.333.333 0 0 0-.334-.334zm1.663 0a.333.333 0 0 0-.331.334.333.333 0 0 0 .331.331h2.999a.333.333 0 0 0 .331-.331.333.333 0 0 0-.331-.334zm-1.007 1.332a.333.333 0 0 0-.226.098l-.666.666a.333.333 0 0 0 0 .47l.666.665a.333.333 0 0 0 .472 0 .333.333 0 0 0 0-.472l-.43-.43.43-.43a.333.333 0 0 0 0-.47.333.333 0 0 0-.246-.097zm1.998 0a.333.333 0 0 0-.288.184l-.666 1.332a.333.333 0 0 0 .148.445.333.333 0 0 0 .447-.148l.666-1.332a.333.333 0 0 0-.15-.447.333.333 0 0 0-.157-.034zm1.33 0a.333.333 0 0 0-.225.098.333.333 0 0 0 0 .47l.43.43-.43.429a.333.333 0 0 0 0 .472.333.333 0 0 0 .47 0l.666-.666a.333.333 0 0 0 0-.47l-.666-.665a.333.333 0 0 0-.246-.098zm-9.975.997a.333.333 0 0 0-.335.334.333.333 0 0 0 .335.332h2.996a.333.333 0 0 0 .331-.332.333.333 0 0 0-.331-.334zm4.327 0a.333.333 0 0 0-.334.334.333.333 0 0 0 .334.332h.332a.333.333 0 0 0 .334-.332.333.333 0 0 0-.334-.334zm1.182 2.998a.333.333 0 0 0-.334.332.333.333 0 0 0 .334.332h.332a.333.333 0 0 0 .334-.332.333.333 0 0 0-.334-.332zm1.664 0a.333.333 0 0 0-.332.332.333.333 0 0 0 .332.332h.334a.333.333 0 0 0 .332-.332.333.333 0 0 0-.332-.332zm1.666 0a.333.333 0 0 0-.334.332.333.333 0 0 0 .334.332h.331a.333.333 0 0 0 .335-.332.333.333 0 0 0-.335-.332zm-11.154 1.996h19.31v.385a.783.783 0 0 1-.145.468c-.082.106-.167.147-.253.147H2.032c-.086 0-.171-.041-.253-.147a.783.783 0 0 1-.145-.468zm8.279 1.666h2.752l.239 1.663h-3.23Zm-2.951 2.33h8.654a.84.84 0 0 1 .723.407l.314.524c.026.043.012.066-.039.066H5.964c-.051 0-.066-.023-.04-.066l.315-.524a.84.84 0 0 1 .723-.407zm-3.996.997a.333.333 0 0 0-.332.334.333.333 0 0 0 .332.332H3.3a.333.333 0 0 0 .332-.332.333.333 0 0 0-.332-.334zm16.312 0a.333.333 0 0 0-.332.334.333.333 0 0 0 .332.332h.334a.333.333 0 0 0 .332-.332.333.333 0 0 0-.332-.334z" style="color:#000;font-style:normal;font-variant:normal;font-weight:400;font-stretch:normal;font-size:medium;line-height:normal;font-family:sans-serif;font-variant-ligatures:normal;font-variant-position:normal;font-variant-caps:normal;font-variant-numeric:normal;font-variant-alternates:normal;font-variant-east-asian:normal;font-feature-settings:normal;font-variation-settings:normal;text-indent:0;text-align:start;text-decoration:none;text-decoration-line:none;text-decoration-style:solid;text-decoration-color:#000;letter-spacing:normal;word-spacing:normal;text-transform:none;writing-mode:lr-tb;direction:ltr;text-orientation:mixed;dominant-baseline:auto;baseline-shift:baseline;text-anchor:start;white-space:normal;shape-padding:0;shape-margin:0;inline-size:0;clip-rule:nonzero;display:inline;overflow:visible;visibility:visible;opacity:1;isolation:auto;mix-blend-mode:normal;color-interpolation:sRGB;color-interpolation-filters:linearRGB;solid-color:#000;solid-opacity:1;vector-effect:none;fill:#d2e9e3;fill-opacity:1;fill-rule:nonzero;stroke:none;stroke-width:.529167;stroke-linecap:round;stroke-linejoin:round;stroke-miterlimit:4;stroke-dasharray:none;stroke-dashoffset:0;stroke-opacity:1;color-rendering:auto;image-rendering:auto;shape-rendering:auto;text-rendering:auto;enable-background:accumulate;stop-color:#000;stop-opacity:1" transform="translate(0 -274.422)"/></svg></svg>